<svg width="18" height="23" viewBox="0 0 18 23" fill="none" xmlns="http://www.w3.org/2000/svg">
<path d="M16.0382 7.51271L7.29207 1.09525C6.60897 0.595037 5.80067 0.293791 4.95682 0.224913C4.11296 0.156034 3.26651 0.322214 2.51133 0.705025C1.75615 1.08784 1.12175 1.67232 0.678471 2.39367C0.235191 3.11502 0.000353891 3.94504 0 4.79171V17.6266C0.000151059 18.4737 0.235001 19.3041 0.678486 20.0258C1.12197 20.7475 1.75675 21.3321 2.51236 21.7149C3.26798 22.0977 4.11489 22.2637 4.95909 22.1943C5.8033 22.125 6.61178 21.8231 7.29482 21.3222L16.0409 14.9047C16.6215 14.479 17.0936 13.9224 17.419 13.2802C17.7444 12.638 17.914 11.9282 17.914 11.2083C17.914 10.4883 17.7444 9.77848 17.419 9.13627C17.0936 8.49407 16.6215 7.93755 16.0409 7.51179L16.0382 7.51271ZM14.9527 13.4259L6.2066 19.8434C5.79682 20.1429 5.31216 20.3231 4.80629 20.3641C4.30041 20.4051 3.79305 20.3054 3.34035 20.0759C2.88766 19.8464 2.50729 19.4962 2.24135 19.0639C1.97541 18.6316 1.83427 18.1342 1.83356 17.6266V4.79171C1.82847 4.28321 1.96695 3.7836 2.23307 3.35027C2.4992 2.91695 2.88217 2.5675 3.338 2.34207C3.7257 2.14486 4.15443 2.04184 4.5894 2.04136C5.17238 2.04359 5.73924 2.23287 6.2066 2.58135L14.9527 8.99881C15.3006 9.25431 15.5835 9.58812 15.7785 9.97323C15.9735 10.3583 16.0751 10.7839 16.0751 11.2156C16.0751 11.6472 15.9735 12.0728 15.7785 12.4579C15.5835 12.8431 15.3006 13.1769 14.9527 13.4324V13.4259Z" fill="black"/>
</svg>
