<svg width="19" height="26" viewBox="0 0 19 26" fill="none" xmlns="http://www.w3.org/2000/svg">
<path d="M18.75 25.4059H16.6667V20.1528C16.6658 19.3361 16.3411 18.5531 15.7636 17.9757C15.1861 17.3982 14.4031 17.0734 13.5865 17.0726H5.16354C4.34687 17.0734 3.56389 17.3982 2.98642 17.9757C2.40895 18.5531 2.08416 19.3361 2.08333 20.1528V25.4059H0V20.1528C0.00165399 18.7839 0.546199 17.4714 1.51419 16.5035C2.48219 15.5355 3.79459 14.9909 5.16354 14.9893H13.5865C14.9554 14.9909 16.2678 15.5355 17.2358 16.5035C18.2038 17.4714 18.7483 18.7839 18.75 20.1528V25.4059Z" fill="black"/>
<path d="M9.375 12.906C8.13887 12.906 6.9305 12.5395 5.90269 11.8527C4.87488 11.1659 4.0738 10.1898 3.60076 9.04778C3.12771 7.90574 3.00394 6.64908 3.24509 5.43669C3.48625 4.22431 4.08151 3.11067 4.95559 2.23659C5.82966 1.36251 6.94331 0.767258 8.15569 0.526101C9.36807 0.284943 10.6247 0.408714 11.7668 0.881762C12.9088 1.35481 13.8849 2.15589 14.5717 3.18369C15.2584 4.2115 15.625 5.41988 15.625 6.65601C15.6233 8.3131 14.9643 9.90185 13.7926 11.0736C12.6208 12.2453 11.0321 12.9044 9.375 12.906ZM9.375 2.48934C8.55091 2.48934 7.74533 2.73371 7.06013 3.19155C6.37492 3.64939 5.84087 4.30014 5.5255 5.06149C5.21014 5.82285 5.12763 6.66063 5.2884 7.46888C5.44917 8.27714 5.84601 9.01957 6.42872 9.60229C7.01144 10.185 7.75387 10.5818 8.56213 10.7426C9.37038 10.9034 10.2082 10.8209 10.9695 10.5055C11.7309 10.1901 12.3816 9.65609 12.8395 8.97088C13.2973 8.28568 13.5417 7.4801 13.5417 6.65601C13.5417 5.55094 13.1027 4.49113 12.3213 3.70973C11.5399 2.92833 10.4801 2.48934 9.375 2.48934Z" fill="black"/>
</svg>
