<svg width="22" height="25" viewBox="0 0 22 25" fill="none" xmlns="http://www.w3.org/2000/svg">
<path d="M4.79009 0.522238C2.53559 0.998379 0.791656 2.67348 0.154889 4.9796L0 5.53606V12.6208V19.7055L0.154889 20.262C0.722816 22.3157 2.16271 23.8646 4.13038 24.5358C5.01956 24.8398 5.05971 24.8398 11.0143 24.8398C16.9977 24.8398 16.9346 24.8456 17.8754 24.5243C19.6767 23.9105 21.0707 22.505 21.6787 20.6865C21.9943 19.74 22 19.6424 22 13.9402C22 8.92641 21.9943 8.67973 21.891 8.46174C21.7361 8.13475 14.1924 0.614025 13.8999 0.487818C13.7163 0.413242 13.1369 0.40177 9.51134 0.407505C5.57027 0.407505 5.30639 0.41898 4.79009 0.522238ZM12.2076 4.97387C12.2305 7.36604 12.2362 7.41194 12.6149 8.18064C13.0738 9.10424 14.0605 9.86148 15.116 10.0967C15.2595 10.1254 16.2806 10.154 17.4566 10.154H19.5332V14.6975C19.5332 19.7572 19.539 19.6195 19.1432 20.4226C18.994 20.7324 18.8104 20.9791 18.5007 21.2889C18.0188 21.7765 17.5426 22.0633 16.8944 22.2698L16.4641 22.4018H11.0143C4.99087 22.4018 5.29492 22.419 4.4631 22.0231C3.49361 21.5642 2.74211 20.5947 2.49544 19.5048C2.46102 19.3384 2.43807 16.8315 2.43807 12.6208C2.43807 6.87843 2.44954 5.94336 2.52986 5.62211C2.85684 4.21663 4.10743 3.08078 5.5588 2.86852C5.71943 2.84557 7.27406 2.82263 9.01799 2.81689L12.1789 2.81116L12.2076 4.97387ZM17.6287 7.73319C17.5254 7.74466 17.0149 7.74466 16.4928 7.73319C15.6668 7.71598 15.5176 7.69877 15.3168 7.58977C15.03 7.44062 14.921 7.32589 14.7776 6.9989C14.6743 6.76943 14.6571 6.62028 14.6571 5.65079V4.56083L16.2347 6.1384C17.7893 7.6873 17.8123 7.71598 17.6287 7.73319Z" fill="#8797B2"/>
<path d="M10.6411 10.2339C10.4346 10.3028 6.7115 12.7638 6.46482 12.9875C6.01737 13.3891 5.98868 14.2266 6.41319 14.6741C6.68855 14.9724 7.21632 15.133 7.58347 15.0355C7.70394 15.0011 8.23744 14.6913 8.76522 14.3413C9.29872 13.9972 9.74044 13.7103 9.75765 13.7103C9.76913 13.7103 9.7806 14.9207 9.7806 16.3951V19.0855L9.91254 19.338C9.98712 19.4756 10.1592 19.6649 10.2912 19.7625C10.5149 19.9174 10.578 19.9346 10.9853 19.9346C11.3926 19.9346 11.4557 19.9174 11.6794 19.7625C11.8114 19.6649 11.9835 19.4756 12.058 19.338L12.19 19.0855V16.3951C12.19 14.9207 12.2015 13.7103 12.2187 13.7103C12.2301 13.7103 12.6719 13.9914 13.1939 14.3413C14.1863 15.0011 14.4445 15.1101 14.8174 15.0527C15.7295 14.9093 16.1769 13.8136 15.6205 13.108C15.4771 12.9244 11.6106 10.3314 11.3295 10.2339C11.0771 10.1421 10.8935 10.1421 10.6411 10.2339Z" fill="#8797B2"/>
</svg>
