<svg width="26" height="27" viewBox="0 0 26 27" fill="none" xmlns="http://www.w3.org/2000/svg">
<g clip-path="url(#clip0_618_2929)">
<path d="M13 13.8398C14.1867 13.8398 15.3467 13.488 16.3334 12.8287C17.3201 12.1694 18.0892 11.2323 18.5433 10.1359C18.9974 9.03959 19.1162 7.83319 18.8847 6.6693C18.6532 5.50542 18.0818 4.43632 17.2426 3.59721C16.4035 2.75809 15.3344 2.18665 14.1705 1.95513C13.0067 1.72362 11.8003 1.84244 10.7039 2.29657C9.60754 2.7507 8.67047 3.51973 8.01118 4.50642C7.35189 5.49312 7 6.65316 7 7.83985C7.00159 9.43066 7.63424 10.9559 8.75911 12.0807C9.88399 13.2056 11.4092 13.8383 13 13.8398ZM13 3.83985C13.7911 3.83985 14.5645 4.07444 15.2223 4.51397C15.8801 4.95349 16.3928 5.57821 16.6955 6.30911C16.9983 7.04002 17.0775 7.84428 16.9231 8.62021C16.7688 9.39613 16.3878 10.1089 15.8284 10.6683C15.269 11.2277 14.5563 11.6086 13.7804 11.763C13.0044 11.9173 12.2002 11.8381 11.4693 11.5354C10.7384 11.2326 10.1136 10.7199 9.67412 10.0621C9.2346 9.40433 9 8.63097 9 7.83985C9 6.77898 9.42143 5.76156 10.1716 5.01142C10.9217 4.26127 11.9391 3.83985 13 3.83985Z" fill="#FF715A"/>
<path d="M13 15.8398C10.6139 15.8425 8.32622 16.7916 6.63896 18.4788C4.95171 20.1661 4.00265 22.4537 4 24.8398C4 25.1051 4.10536 25.3594 4.29289 25.547C4.48043 25.7345 4.73478 25.8398 5 25.8398C5.26522 25.8398 5.51957 25.7345 5.70711 25.547C5.89464 25.3594 6 25.1051 6 24.8398C6 22.9833 6.7375 21.2029 8.05025 19.8901C9.36301 18.5773 11.1435 17.8398 13 17.8398C14.8565 17.8398 16.637 18.5773 17.9497 19.8901C19.2625 21.2029 20 22.9833 20 24.8398C20 25.1051 20.1054 25.3594 20.2929 25.547C20.4804 25.7345 20.7348 25.8398 21 25.8398C21.2652 25.8398 21.5196 25.7345 21.7071 25.547C21.8946 25.3594 22 25.1051 22 24.8398C21.9974 22.4537 21.0483 20.1661 19.361 18.4788C17.6738 16.7916 15.3861 15.8425 13 15.8398Z" fill="#FF715A"/>
</g>
<defs>
<clipPath id="clip0_618_2929">
<rect width="24" height="24" fill="white" transform="translate(1 1.83984)"/>
</clipPath>
</defs>
</svg>
