<svg width="22" height="22" viewBox="0 0 22 22" fill="none" xmlns="http://www.w3.org/2000/svg">
<path d="M16.0396 0.659668C15.0078 0.675717 13.9985 0.963744 13.1137 1.49466C12.2288 2.02558 11.4997 2.78059 11 3.68345C10.5003 2.78059 9.77118 2.02558 8.88632 1.49466C8.00146 0.963744 6.99216 0.675717 5.96037 0.659668C4.31556 0.731131 2.76589 1.45066 1.64991 2.66107C0.533927 3.87148 -0.0576437 5.47437 0.00443589 7.11956C0.00443589 13.3275 10.0434 20.4975 10.4704 20.8017L11 21.1765L11.5296 20.8017C11.9566 20.4993 21.9956 13.3275 21.9956 7.11956C22.0576 5.47437 21.4661 3.87148 20.3501 2.66107C19.2341 1.45066 17.6844 0.731131 16.0396 0.659668Z" fill="#161C3D"/>
</svg>
