<svg width="22" height="17" viewBox="0 0 22 17" fill="none" xmlns="http://www.w3.org/2000/svg">
<path d="M18.5279 0.416752C19.4485 0.417238 20.3312 0.783076 20.9822 1.43392C21.6332 2.08476 21.9993 2.96738 22 3.88793L22 12.818C22.0002 13.4591 21.8226 14.0877 21.4871 14.6341C21.1516 15.1804 20.6712 15.623 20.0993 15.9128C19.5274 16.2026 18.8864 16.3282 18.2474 16.2757C17.6085 16.2232 16.9966 15.9946 16.4797 15.6153L13.0149 13.072C12.9696 13.6897 12.7597 14.2841 12.407 14.7933C12.0543 15.3025 11.5717 15.7079 11.0093 15.9675C10.4469 16.2271 9.82527 16.3313 9.20896 16.2694C8.59265 16.2074 8.00417 15.9816 7.50468 15.6153L1.41591 11.1503C0.977005 10.828 0.620132 10.4069 0.374154 9.92109C0.128175 9.43529 1.26139e-06 8.89841 1.21378e-06 8.35388C1.16618e-06 7.80936 0.128175 7.27248 0.374154 6.78668C0.620132 6.30088 0.977004 5.8798 1.41591 5.55751L7.50467 1.09247C8.00405 0.726226 8.59237 0.500365 9.20853 0.438343C9.8247 0.376321 10.4462 0.480401 11.0086 0.739772C11.5709 0.999143 12.0536 1.40435 12.4064 1.91329C12.7592 2.42224 12.9693 3.01637 13.0149 3.63396L16.4797 1.09063C17.0732 0.653638 17.7908 0.41755 18.5279 0.416752Z" fill="#161C3D"/>
</svg>
