<svg width="34" height="23" viewBox="0 0 34 23" fill="none" xmlns="http://www.w3.org/2000/svg">
<path d="M31.4995 3.81672C30.5699 3.35194 29.4739 3.44957 28.6434 4.07523C28.5898 4.11511 28.5389 4.16049 28.4921 4.20724L26.0761 6.64527C25.786 3.11818 22.857 0.328125 19.2571 0.328125H6.88129C3.09018 0.32675 0.00585938 3.41107 0.00585938 7.20218V15.4527C0.00585938 19.2438 3.09018 22.3281 6.88129 22.3281H19.2571C22.8722 22.3281 25.8135 19.5133 26.0802 15.9656L28.4949 18.3775C28.5416 18.4229 28.5898 18.4641 28.642 18.504C29.1261 18.867 29.6981 19.0513 30.2756 19.0513C30.6923 19.0513 31.1089 18.9564 31.4995 18.7612C32.4304 18.2964 33.0079 17.3599 33.0079 16.3218V6.25887C33.0079 5.21793 32.4304 4.2815 31.4995 3.81672ZM19.2571 19.578H6.88129C4.6069 19.578 2.75603 17.7271 2.75603 15.4527V7.20218C2.75603 4.92779 4.6069 3.07692 6.88129 3.07692H19.2571C21.5315 3.07692 23.3823 4.92779 23.3823 7.20218V15.4527C23.3823 17.7271 21.5315 19.578 19.2571 19.578ZM26.1325 12.1291V10.4941L30.2577 6.33038L30.2921 16.2832L26.1325 12.1277V12.1291Z" fill="#161C3D"/>
</svg>
