<svg width="40" height="41" viewBox="0 0 40 41" fill="none" xmlns="http://www.w3.org/2000/svg">
<g clip-path="url(#clip0_198_2257)">
<path d="M37.9844 0.744724C37.8906 0.783787 37.3359 1.13535 36.7656 1.52597C35.8672 2.12754 35.7031 2.27597 35.5938 2.5416C35.5234 2.71347 35.4688 2.92441 35.4688 2.99472C35.4688 3.13535 35.1641 3.4791 35.0391 3.4791C35.0078 3.4791 34.8281 3.33847 34.6406 3.1666C34.3828 2.93222 34.2344 2.8541 34.0391 2.8541C33.7734 2.8541 33.5156 3.05722 33.4141 3.34629C33.3438 3.53379 33.5234 3.94004 33.7812 4.17441C34.0312 4.40879 34.0312 4.47129 33.8125 4.65097C33.6406 4.7916 33.6328 4.78379 33.3438 4.52597C32.9844 4.19785 32.6953 4.11972 32.4297 4.26816C31.9609 4.53379 31.9297 4.98691 32.3438 5.46347C32.4766 5.6041 32.5781 5.74472 32.5781 5.76816C32.5781 5.81504 25.0078 12.8853 24.9219 12.9166C24.8906 12.9322 24.6719 12.8307 24.4453 12.69C22.4766 11.5338 20.1953 11.2291 18.3672 11.8775L18.0156 11.9947L16.2969 10.2838C14.2734 8.27597 14.0625 8.12754 13.1016 8.18222C12.7266 8.19785 12.4375 8.26035 12.2188 8.37754C12.0078 8.48691 11.8594 8.51816 11.7891 8.47129C11.4062 8.2291 10.8281 8.58066 10.8281 9.05722C10.8281 9.33066 10.9531 9.47129 13.1953 11.7135L15.5703 14.0885L15.3359 14.4244C15.2109 14.6119 15.0078 14.94 14.8906 15.1588C14.5781 15.7057 14.1016 16.1822 13.5781 16.4635C13.2266 16.651 13.0938 16.776 12.9688 17.0416C12.7031 17.5885 12.9062 18.1822 13.4375 18.401C13.7344 18.526 13.7422 18.7369 13.4766 19.2525C12.8438 20.5103 10.8047 21.8619 9.53906 21.8697L9.02344 21.8775L8.78125 21.4244C8.52344 20.9322 8.36719 20.7916 8 20.7135C7.625 20.6275 7.23438 20.8307 6.98438 21.2291C6.54688 21.9244 6.42969 22.0728 6.14844 22.2916C5.99219 22.4166 5.625 22.6197 5.33594 22.7369C5.03906 22.8541 4.47656 23.1041 4.07812 23.2916C2.05469 24.2369 0.710938 25.7135 0.21875 27.5182C-0.0234375 28.4088 -0.0234375 30.0416 0.21875 31.0182C0.554688 32.3541 1.14062 33.6744 1.92188 34.8228C3.89844 37.7291 6.74219 39.7682 9.80469 40.4791C10.7422 40.6978 12.3359 40.6822 13.1562 40.4478C15.2578 39.8463 16.7891 38.2603 17.8047 35.6197C18.2109 34.5807 18.4375 34.2994 19.3984 33.7057C19.7656 33.4791 20 33.1275 20 32.7994C20 32.4791 19.7188 32.1353 19.2578 31.8932L18.7891 31.6432L18.7969 31.1275C18.8047 29.8619 20.1562 27.8228 21.4141 27.19C21.875 26.9557 22.1562 26.94 22.2266 27.1432C22.3828 27.6353 22.9766 27.94 23.4688 27.776C23.7734 27.6744 24.0625 27.3853 24.2812 26.9557C24.4688 26.5885 24.9453 26.0885 25.2734 25.9244C25.4062 25.8541 25.75 25.6432 26.0469 25.4557L26.5859 25.1041L30.7891 29.3072C34.8203 33.3385 35.0078 33.5103 35.2812 33.5103C35.5 33.5103 35.6094 33.4557 35.75 33.2916C36.1094 32.8775 36.0156 32.6822 35.0156 31.6666L34.2578 30.901L34.7891 30.3697C35.6484 29.5025 35.875 29.8697 31.9922 25.9791L28.6641 22.651L28.7891 22.3072C29.4375 20.4713 29.1328 18.19 27.9766 16.2213C27.8359 15.9947 27.7344 15.776 27.75 15.7447C27.7812 15.6588 34.8516 8.08847 34.8984 8.08847C34.9219 8.08847 35.0625 8.19004 35.2031 8.32285C35.6797 8.73691 36.1328 8.70566 36.3984 8.23691C36.5469 7.9791 36.4766 7.7291 36.1406 7.33847C35.8828 7.03379 35.8828 7.02597 36.0156 6.8541C36.1953 6.63535 36.2578 6.63535 36.4922 6.88535C36.7266 7.14316 37.1328 7.32285 37.3203 7.25254C37.6094 7.15097 37.8125 6.89316 37.8125 6.62754C37.8125 6.43222 37.7344 6.28379 37.5 6.02597C37.3281 5.83847 37.1875 5.65097 37.1875 5.61191C37.1875 5.46347 37.5469 5.21347 37.8281 5.1666C37.9922 5.13535 38.2266 5.01816 38.3672 4.90879C38.6406 4.67441 39.8125 2.95566 39.9375 2.61191C40.0781 2.20566 39.9453 1.8541 39.4688 1.34629C38.875 0.721287 38.4609 0.557224 37.9844 0.744724ZM38.1484 2.9791C37.9062 3.33847 37.6875 3.63535 37.6641 3.63535C37.5625 3.63535 37 3.01035 37.0547 2.96347C37.0859 2.93222 37.3828 2.72129 37.7109 2.50254C38.2578 2.12754 38.3359 2.1041 38.4531 2.20566C38.5781 2.31504 38.5547 2.36972 38.1484 2.9791ZM36.2656 4.6041C36.1406 4.73691 33.375 7.71347 30.1172 11.2135C26.8594 14.7135 24.1328 17.651 24.0547 17.7369C23.9062 17.8853 23.8984 17.8853 23.3594 17.3463C23.0547 17.0494 22.8203 16.776 22.8281 16.7525C22.8438 16.7213 25.875 13.8853 29.5625 10.44C34.8906 5.48691 36.3047 4.20566 36.3828 4.27597C36.4688 4.34629 36.4531 4.40879 36.2656 4.6041ZM13.6562 9.6041C13.7734 9.6666 14.5312 10.3853 15.3516 11.2057L16.8359 12.6978L16.6406 12.8932L16.4453 13.0885L14.6484 11.2916L12.8516 9.49472H13.1484C13.3125 9.49472 13.5391 9.5416 13.6562 9.6041ZM21.8359 13.0494C22.6797 13.2682 23.8672 13.8072 23.8125 13.9478C23.7969 13.9791 23.3516 14.4088 22.8125 14.9088L21.8359 15.8228L20.4531 14.44C19.6875 13.6822 19.0781 13.0416 19.0938 13.0338C19.2891 12.8385 21.0625 12.8463 21.8359 13.0494ZM19.3594 15.2213L20.8672 16.7291L20.6641 16.9166L20.4609 17.1041L18.9219 15.565L17.3828 14.0182L17.5781 13.8697C17.6875 13.7838 17.7891 13.7135 17.8125 13.7135C17.8359 13.7135 18.5312 14.3932 19.3594 15.2213ZM19.4531 18.0182C19.4531 18.0416 18.9219 18.5494 18.2734 19.1432C17.6328 19.7369 17.0625 20.2994 17.0156 20.3853C16.7891 20.8072 16.875 20.94 18.2891 22.3541C19.0312 23.0963 19.7109 23.7135 19.8125 23.7369C20.1484 23.7994 20.4375 23.5728 21.5156 22.3932C22.1172 21.7447 22.625 21.2135 22.6484 21.2135C22.6797 21.2135 23.3516 21.8697 24.1641 22.6822L25.625 24.1432L25.25 24.3697C24.1953 25.026 23.8203 25.3072 23.5156 25.6978L23.1875 26.1275L22.8672 25.9166C22.5938 25.7369 22.4688 25.7057 21.9609 25.7057C21.4219 25.7057 21.3125 25.7369 20.7812 26.0182C19.7188 26.5728 18.4922 27.9713 17.8906 29.2916C17.25 30.6978 17.2656 32.0416 17.9375 32.6588L18.1406 32.8463L17.6797 33.3072C17.2031 33.776 16.9062 34.2916 16.375 35.5728C15.1016 38.651 12.8203 39.8619 9.77344 39.0963C8.67188 38.815 7.30469 38.1666 6.33594 37.4635L5.99219 37.2135L7.39062 35.815L8.78125 34.4244L10.8984 33.315C12.0547 32.7135 13.0859 32.1275 13.1875 32.0182C13.2891 31.9088 13.3594 31.7291 13.3594 31.5807C13.3594 31.3619 13.1328 31.1041 11.3438 29.3228C9.5625 27.5338 9.30469 27.3072 9.08594 27.3072C8.9375 27.3072 8.75781 27.3775 8.64844 27.4791C8.53906 27.5807 7.95312 28.6119 7.35156 29.7682L6.24219 31.8853L4.85156 33.276L3.45312 34.6744L3.20312 34.3307C2.5 33.3619 1.85156 31.9947 1.57031 30.8932C0.804688 27.8463 2.01562 25.5728 5.09375 24.2916C6.57031 23.6666 6.82031 23.526 7.32812 23.0182L7.82031 22.526L8.00781 22.7291C8.32031 23.065 8.79688 23.2447 9.40625 23.2447C10.7734 23.2447 12.3594 22.4713 13.6797 21.1432C14.2031 20.6197 14.4219 20.3307 14.6797 19.8072C14.9922 19.19 15.0078 19.1041 14.9844 18.6275C14.9609 18.2291 14.9062 18.0416 14.75 17.7916L14.5391 17.4791L14.9688 17.151C15.3594 16.8463 15.6406 16.4713 16.2969 15.4166L16.5234 15.0416L17.9844 16.5025C18.7969 17.315 19.4531 17.9869 19.4531 18.0182ZM27.0781 17.3932C27.2188 17.6666 27.4297 18.2057 27.5469 18.5963C27.7266 19.1978 27.7578 19.4478 27.7578 20.276C27.7656 21.8307 27.8438 21.8385 26.2344 20.2135L24.8516 18.8307L25.7656 17.8385C26.2656 17.2916 26.7109 16.8541 26.75 16.8619C26.7891 16.8775 26.9375 17.1119 27.0781 17.3932ZM22.4219 18.2838L23 18.8619L22.8125 19.065L22.625 19.2682L22.0156 18.6588L21.4062 18.0572L21.5781 17.8775C21.6719 17.776 21.7656 17.6978 21.7891 17.6978C21.8203 17.6978 22.1016 17.9635 22.4219 18.2838ZM21.0156 20.9713C20.6406 21.3853 20.2344 21.8072 20.125 21.9166L19.9141 22.1041L19.2344 21.4166L18.5547 20.7291L19.4922 19.8463L20.4297 18.9557L21.0703 19.5885L21.7109 20.2291L21.0156 20.9713ZM26.8359 23.0416C26.7578 23.151 26.6797 23.2447 26.6484 23.2447C26.625 23.2447 25.9141 22.5572 25.0781 21.7213L23.5625 20.2057L23.75 20.0025L23.9375 19.7994L25.4531 21.315L26.9688 22.8307L26.8359 23.0416ZM29.9453 25.8072L31.8828 27.7447L31.6797 27.9322L31.4766 28.1197L29.5312 26.1744L27.5859 24.2291L27.75 24.0494C27.8438 23.9478 27.9375 23.8697 27.9609 23.8697C27.9922 23.8697 28.8828 24.7447 29.9453 25.8072ZM33.5156 29.7682L33.3125 29.9635L32.8906 29.5338L32.4688 29.1041L32.6562 28.9088L32.8438 28.7057L33.2734 29.1432L33.7109 29.5728L33.5156 29.7682ZM11.5 31.4557C11.4688 31.4869 10.7812 31.8697 9.96094 32.2994L8.47656 33.0807L8.03125 32.6432L7.58594 32.1978L8.10156 31.2213C8.38281 30.6822 8.75781 29.9791 8.92969 29.6588L9.24219 29.0885L10.3984 30.2447C11.0391 30.8853 11.5312 31.4322 11.5 31.4557ZM7.08594 33.5728C7.22656 33.7135 7.34375 33.8619 7.34375 33.9088C7.34375 34.0103 5.0625 36.2916 4.96094 36.2916C4.85938 36.2916 4.375 35.8072 4.375 35.7135C4.375 35.6119 6.64844 33.3228 6.75 33.3228C6.79688 33.3228 6.94531 33.4322 7.08594 33.5728Z" fill="#FF8E7C"/>
<path d="M14.5706 21.7526C14.3987 21.8307 13.6643 22.2682 12.93 22.7291C11.2346 23.8073 11.344 23.7526 11.1878 23.6119C10.8362 23.3151 10.3362 23.4401 10.1565 23.8776C10.0628 24.0963 10.0706 24.1588 10.2034 24.401C10.4534 24.8619 10.719 25.0026 11.3128 25.0026H11.8362L13.43 23.9948L15.0159 22.9869L15.2346 23.1198C15.5628 23.3151 15.8362 23.276 16.1096 23.0104C16.305 22.8073 16.3362 22.7291 16.2971 22.5182C16.2034 22.0494 15.5862 21.6041 15.0393 21.6041C14.9534 21.6041 14.7425 21.6744 14.5706 21.7526Z" fill="#FF8E7C"/>
<path d="M17.6559 24.5572C17.3903 24.8306 17.3513 25.0963 17.5466 25.4244C17.6716 25.6431 17.6716 25.6431 16.6716 27.2291C15.7497 28.7056 15.6716 28.8541 15.6403 29.2525C15.6091 29.776 15.7809 30.1431 16.1794 30.4166C16.6559 30.7447 17.1872 30.4713 17.1872 29.901C17.1872 29.7525 17.1325 29.5572 17.0622 29.4869C16.9372 29.3541 16.9919 29.2525 17.8825 27.8228C19.0153 26.0103 19.0934 25.8385 19.0231 25.3697C18.9606 24.94 18.5231 24.44 18.1481 24.3697C17.9372 24.3306 17.8591 24.3619 17.6559 24.5572Z" fill="#FF8E7C"/>
</g>
<defs>
<clipPath id="clip0_198_2257">
<rect width="40" height="40" fill="white" transform="translate(0 0.666626)"/>
</clipPath>
</defs>
</svg>
