<svg width="40" height="41" viewBox="0 0 40 41" fill="none" xmlns="http://www.w3.org/2000/svg">
<g clip-path="url(#clip0_198_2297)">
<path d="M36.4061 3.44006L33.6327 6.2135L32.9296 5.51038C32.0546 4.62756 31.7421 4.4635 31.0233 4.51038C30.0311 4.56506 29.4218 5.2135 29.4061 6.24475L29.3983 6.776L28.5077 7.14319C28.0155 7.34631 27.4452 7.62756 27.2264 7.76819C27.0155 7.91663 25.9139 8.94788 24.7889 10.0651L22.7421 12.0963L22.0389 11.4244C21.4452 10.8541 21.2968 10.7448 21.078 10.7448C20.8436 10.7448 20.5233 11.0416 17.3671 14.1979C15.0389 16.526 13.8983 17.7291 13.8593 17.8776C13.8124 18.0729 13.8827 18.1666 14.5389 18.8307L15.2655 19.5729L14.8436 20.0026L14.4218 20.4323L14.1249 20.1432C13.7733 19.7994 13.4139 19.7604 13.1874 20.0338C12.9686 20.3151 13.0077 20.6276 13.3202 20.9635L13.5858 21.2682L13.1796 21.6666L12.7733 22.0651L12.4843 21.7916C11.7343 21.1041 10.9686 21.8932 11.6796 22.6198L11.953 22.901L9.03894 25.7994C6.54676 28.2838 6.04676 28.7448 5.51551 29.0494C4.82019 29.4557 4.02332 29.7604 3.28113 29.9166C2.81238 30.0104 2.74988 30.0104 2.46863 29.8698C2.01551 29.6432 1.22644 29.6979 0.796756 29.9869C0.140506 30.4166 -0.156369 31.3229 0.117069 32.0573C0.234256 32.3698 0.820194 32.9948 4.17176 36.3619C8.37488 40.5807 8.46863 40.6666 9.22644 40.6666C9.72644 40.6666 10.3593 40.3307 10.6639 39.8932C10.8593 39.6119 10.8983 39.4791 10.9218 39.0026C10.9374 38.5729 10.9139 38.3776 10.8046 38.1588C10.6718 37.9088 10.6639 37.8307 10.7499 37.3776C10.8749 36.7135 11.2343 35.7994 11.6483 35.0963C11.9139 34.6432 12.5233 33.9869 14.8671 31.6276L17.7655 28.7135L18.4843 29.4166C19.0468 29.9713 19.2421 30.1198 19.4218 30.1198C19.6171 30.1198 20.3671 29.401 24.7811 24.9791C29.4921 20.276 29.9218 19.8229 29.9218 19.5885C29.9218 19.3698 29.8124 19.2213 29.2421 18.6276L28.5702 17.9244L30.6014 15.8776C31.7186 14.7526 32.7499 13.651 32.8983 13.4401C33.0389 13.2213 33.328 12.6432 33.5233 12.151L33.8905 11.2604L34.4296 11.2526C35.4452 11.2526 36.1014 10.6354 36.1561 9.64319C36.203 8.92444 36.0389 8.61194 35.1561 7.73694L34.453 7.03381L37.2264 4.26038C40.2343 1.24475 40.2186 1.26819 39.8046 0.861938C39.3983 0.447876 39.4218 0.432251 36.4061 3.44006ZM33.2186 7.44788C34.8436 9.07288 34.9999 9.25256 34.9999 9.49475C34.9999 9.8385 34.7421 10.1198 34.4218 10.1198C34.2186 10.1198 33.9452 9.87756 32.3671 8.29944C30.828 6.76038 30.5468 6.44788 30.5468 6.25256C30.5468 5.93225 30.8202 5.66663 31.1639 5.66663C31.4139 5.66663 31.5702 5.79944 33.2186 7.44788ZM31.5546 9.13538L32.9139 10.4948L32.7343 10.9948C32.5233 11.5807 32.0858 12.5494 31.9374 12.7682C31.8358 12.9166 31.7108 12.8073 29.7733 10.8698L27.7264 8.82288L28.1249 8.60413C28.5311 8.38538 29.9686 7.79163 30.1171 7.78381C30.1639 7.776 30.8124 8.38538 31.5546 9.13538ZM29.3749 15.4713L27.7343 17.1119L27.2733 16.651C26.8202 16.2057 26.8124 16.1901 26.8905 15.9166C27.1874 14.8307 26.328 13.7135 25.203 13.7135C24.4139 13.7213 23.6952 14.2838 23.5155 15.0494C23.2108 16.3073 24.3983 17.4791 25.6249 17.151L25.9608 17.0573L26.4218 17.5182L26.8749 17.9713L25.6483 19.1979L24.4139 20.4323L23.9686 19.9791L23.5155 19.5338L23.6014 19.1041C23.9374 17.4635 22.0077 16.3619 20.7499 17.4713C20.0936 18.0494 19.9686 18.9479 20.4374 19.7057C20.8358 20.3385 21.7811 20.6901 22.4452 20.4401C22.6093 20.3776 22.6874 20.4166 23.0936 20.8307L23.5546 21.2916L22.3202 22.5182L21.0936 23.7526L20.6327 23.2916C20.1952 22.8619 20.1718 22.8229 20.2499 22.6041C20.3905 22.2135 20.2889 21.5026 20.0546 21.1432C19.6171 20.4869 18.7499 20.1901 18.0077 20.4323C17.1561 20.7135 16.6561 21.6901 16.9061 22.5729C17.1639 23.4557 18.0468 23.9791 18.953 23.7916L19.3983 23.6979L19.8358 24.1354L20.2733 24.5729L19.5468 25.2994C19.0233 25.8229 18.828 26.0729 18.828 26.2135C18.828 26.6432 19.2733 26.9401 19.6327 26.7526C19.7264 26.7057 20.0936 26.3776 20.453 26.0338L21.0936 25.3932L21.4999 25.8073L21.9139 26.2135L20.6639 27.4635L19.4139 28.7135L18.1405 27.4479C17.1249 26.4323 16.8749 26.1432 16.9139 26.0182C17.1327 25.276 16.9999 24.6901 16.4921 24.1823C15.7577 23.4557 14.7968 23.4557 14.0546 24.1823C13.328 24.8854 13.3358 25.9557 14.0702 26.6588C14.5468 27.1119 15.1483 27.2526 15.7811 27.0729C16.0389 26.9948 16.0624 27.0104 16.4608 27.401C16.6874 27.6276 16.8749 27.8463 16.8749 27.8854C16.8749 27.9948 15.3749 29.4948 15.2733 29.4948C15.1718 29.4948 11.1718 25.4948 11.1718 25.3932C11.1718 25.2916 25.0936 11.3698 25.1952 11.3698C25.2343 11.3698 25.9452 12.0416 26.7733 12.8698C28.078 14.1744 28.3046 14.3619 28.5155 14.3619C28.8358 14.3619 29.0858 14.1119 29.0858 13.7916C29.0858 13.5807 28.8983 13.3541 27.5936 12.0494C26.7655 11.2213 26.0936 10.5182 26.0936 10.4713C26.0936 10.4323 26.2577 10.2291 26.4608 10.026L26.8358 9.651L28.9218 11.7369L31.0155 13.8307L29.3749 15.4713ZM20.6483 14.1979L19.4139 15.4323L19.0077 15.026L18.5936 14.6119L19.8202 13.3854L21.0546 12.151L21.4608 12.5573L21.8749 12.9713L20.6483 14.1979ZM25.6014 15.0573C25.8436 15.2838 25.8358 15.6198 25.5858 15.8619C25.3749 16.0807 25.2577 16.0963 24.9764 15.9713C24.7811 15.8854 24.6093 15.6041 24.6093 15.3854C24.6093 15.1901 24.9764 14.8854 25.203 14.8854C25.3202 14.8854 25.4999 14.9635 25.6014 15.0573ZM18.1639 15.901L18.5546 16.2916L17.3202 17.526L16.0936 18.7526L15.6874 18.3385L15.2733 17.9323L16.4843 16.7213C17.1483 16.0573 17.7108 15.5104 17.7343 15.5104C17.7577 15.5104 17.953 15.6901 18.1639 15.901ZM22.1327 18.2526C22.328 18.3385 22.4999 18.6198 22.4999 18.8385C22.4999 19.0338 22.1327 19.3385 21.9061 19.3385C21.3905 19.3385 21.1561 18.7213 21.5233 18.3619C21.7343 18.1432 21.8514 18.1276 22.1327 18.2526ZM25.6249 22.5026L22.7343 25.3932L22.328 24.9791L21.9139 24.5729L24.8046 21.6823L27.6952 18.7916L28.1014 19.1979L28.5155 19.6119L25.6249 22.5026ZM18.9843 21.6823C19.078 21.776 19.1405 21.9401 19.1405 22.0963C19.1405 22.6354 18.5077 22.8463 18.1483 22.4244C17.9374 22.1901 17.953 21.9166 18.1796 21.6588C18.3514 21.4791 18.7889 21.4869 18.9843 21.6823ZM15.6639 25.0026C15.7733 25.1041 15.8593 25.2838 15.8593 25.3932C15.8593 25.5026 15.7733 25.6823 15.6639 25.7838C15.5624 25.8932 15.3827 25.9791 15.2733 25.9791C15.1639 25.9791 14.9843 25.8932 14.8827 25.7838C14.7733 25.6823 14.6874 25.5026 14.6874 25.3932C14.6874 25.2838 14.7733 25.1041 14.8827 25.0026C14.9843 24.8932 15.1639 24.8073 15.2733 24.8073C15.3827 24.8073 15.5624 24.8932 15.6639 25.0026ZM12.3593 28.2994C13.4686 29.4088 14.3749 30.3463 14.3749 30.3932C14.3749 30.4948 13.7343 31.1354 13.6327 31.1354C13.5311 31.1354 9.53113 27.1432 9.53113 27.0338C9.53113 26.9323 10.1718 26.2916 10.2733 26.2916C10.3124 26.2916 11.2577 27.1979 12.3593 28.2994ZM10.7186 29.9401C11.828 31.0494 12.7343 31.9869 12.7343 32.026C12.7343 32.0651 12.3749 32.4713 11.9296 32.9244C11.4921 33.3776 10.9999 33.9479 10.8358 34.1979C10.453 34.7838 9.97644 35.776 9.79676 36.3698L9.65613 36.8463L6.74207 33.9323L3.83582 31.026L4.45301 30.8151C5.77332 30.3698 6.82019 29.6901 7.92957 28.5651C8.27332 28.2135 8.58582 27.9323 8.63269 27.9323C8.67176 27.9323 9.61707 28.8385 10.7186 29.9401ZM5.91394 34.7526C9.49207 38.3307 9.76551 38.6198 9.76551 38.8698C9.76551 39.2135 9.50769 39.4948 9.18738 39.4948C8.97644 39.4948 8.49988 39.0494 5.06238 35.6041C1.62488 32.1744 1.17176 31.6901 1.17176 31.4791C1.17176 31.1432 1.42176 30.901 1.78113 30.901C2.05457 30.901 2.22644 31.0573 5.91394 34.7526Z" fill="#FF8E7C"/>
</g>
<defs>
<clipPath id="clip0_198_2297">
<rect width="40" height="40" fill="white" transform="translate(0 0.666626)"/>
</clipPath>
</defs>
</svg>
