<svg width="34" height="23" viewBox="0 0 34 23" fill="none" xmlns="http://www.w3.org/2000/svg">
<path d="M31.5014 3.81672C30.5718 3.35194 29.4759 3.44957 28.6453 4.07523C28.5917 4.11511 28.5408 4.16049 28.4941 4.20724L26.0781 6.64527C25.7879 3.11818 22.859 0.328125 19.259 0.328125H6.88324C3.09213 0.32675 0.0078125 3.41107 0.0078125 7.20218V15.4527C0.0078125 19.2438 3.09213 22.3281 6.88324 22.3281H19.259C22.8741 22.3281 25.8154 19.5133 26.0822 15.9656L28.4968 18.3775C28.5436 18.4229 28.5917 18.4641 28.644 18.504C29.128 18.867 29.7 19.0513 30.2776 19.0513C30.6942 19.0513 31.1109 18.9564 31.5014 18.7612C32.4323 18.2964 33.0099 17.3599 33.0099 16.3218V6.25887C33.0099 5.21793 32.4323 4.2815 31.5014 3.81672ZM19.259 19.578H6.88324C4.60885 19.578 2.75798 17.7271 2.75798 15.4527V7.20218C2.75798 4.92779 4.60885 3.07692 6.88324 3.07692H19.259C21.5334 3.07692 23.3843 4.92779 23.3843 7.20218V15.4527C23.3843 17.7271 21.5334 19.578 19.259 19.578ZM26.1344 12.1291V10.4941L30.2597 6.33038L30.2941 16.2832L26.1344 12.1277V12.1291Z" fill="white"/>
</svg>
