<svg width="20" height="26" viewBox="0 0 20 26" fill="none" xmlns="http://www.w3.org/2000/svg">
<path d="M19.25 25.4059H17.1667H15.9058C15.9058 25.4059 14.9031 25.4068 14.0865 25.4059C14.0865 25.4059 6.97462 25.4051 6.15795 25.4059H3.58692H2.89984H2.58333H0.5V20.1528C0.501654 18.7839 1.0462 17.4714 2.01419 16.5035C2.98219 15.5355 4.29459 14.9909 5.66354 14.9893H14.0865C15.4554 14.9909 16.7678 15.5355 17.7358 16.5035C18.7038 17.4714 19.2483 18.7839 19.25 20.1528V25.4059Z" fill="#161C3D"/>
<path d="M9.875 12.906C8.63887 12.906 7.4305 12.5395 6.40269 11.8527C5.37488 11.1659 4.5738 10.1898 4.10076 9.04778C3.62771 7.90574 3.50394 6.64908 3.74509 5.43669C3.98625 4.22431 4.58151 3.11067 5.45559 2.23659C6.32966 1.36251 7.44331 0.767258 8.65569 0.526101C9.86807 0.284943 11.1247 0.408714 12.2668 0.881762C13.4088 1.35481 14.3849 2.15589 15.0717 3.18369C15.7584 4.2115 16.125 5.41988 16.125 6.65601C16.1233 8.3131 15.4643 9.90185 14.2926 11.0736C13.1208 12.2453 11.5321 12.9044 9.875 12.906Z" fill="#161C3D"/>
</svg>
