<svg width="22" height="23" viewBox="0 0 22 23" fill="none" xmlns="http://www.w3.org/2000/svg">
<path d="M12.2265 0.94676C11.8898 0.643743 11.4529 0.476074 11 0.476074C10.5471 0.476074 10.1102 0.643743 9.7735 0.94676L0 9.74309V19.2764C0 20.0544 0.309047 20.8005 0.859153 21.3506C1.40926 21.9007 2.15536 22.2098 2.93333 22.2098H19.0667C19.8446 22.2098 20.5907 21.9007 21.1408 21.3506C21.691 20.8005 22 20.0544 22 19.2764V9.74309L12.2265 0.94676ZM13.75 20.3737H8.25V15.7665C8.25 15.0372 8.53973 14.3377 9.05546 13.822C9.57118 13.3062 10.2707 13.0165 11 13.0165C11.7293 13.0165 12.4288 13.3062 12.9445 13.822C13.4603 14.3377 13.75 15.0372 13.75 15.7665V20.3737Z" fill="#161C3D"/>
</svg>
