<svg width="22" height="19" viewBox="0 0 22 19" fill="none" xmlns="http://www.w3.org/2000/svg">
<path d="M20.8688 2.25963C20.5339 2.1201 20.165 2.08342 19.8091 2.15427C19.4532 2.22512 19.1265 2.40029 18.8705 2.65746L16.5 5.02796L12.2962 0.824129C11.9524 0.480432 11.4861 0.287354 11 0.287354C10.5139 0.287354 10.0476 0.480432 9.70383 0.824129L5.5 5.02796L3.1295 2.65746C2.87311 2.40114 2.54647 2.2266 2.19089 2.15589C1.83531 2.08519 1.46675 2.12149 1.1318 2.26022C0.79685 2.39895 0.510552 2.63387 0.309097 2.93529C0.107642 3.23671 7.74113e-05 3.59109 0 3.95363L0 13.6575C0.00145554 14.8726 0.484808 16.0375 1.34403 16.8968C2.20326 17.756 3.3682 18.2393 4.58333 18.2408H17.4167C18.6318 18.2393 19.7967 17.756 20.656 16.8968C21.5152 16.0375 21.9985 14.8726 22 13.6575V3.95363C22.0001 3.59106 21.8927 3.2366 21.6913 2.93507C21.49 2.63355 21.2038 2.39849 20.8688 2.25963ZM20.1667 13.6575C20.1667 14.3868 19.8769 15.0863 19.3612 15.602C18.8455 16.1177 18.146 16.4075 17.4167 16.4075H4.58333C3.85399 16.4075 3.15451 16.1177 2.63879 15.602C2.12306 15.0863 1.83333 14.3868 1.83333 13.6575V3.95363L4.85192 6.97221C5.02382 7.14406 5.25693 7.2406 5.5 7.2406C5.74307 7.2406 5.97618 7.14406 6.14808 6.97221L11 2.1203L15.8519 6.97221C16.0238 7.14406 16.2569 7.2406 16.5 7.2406C16.7431 7.2406 16.9762 7.14406 17.1481 6.97221L20.1667 3.95363V13.6575Z" fill="black"/>
</svg>
