<svg width="20" height="26" viewBox="0 0 20 26" fill="none" xmlns="http://www.w3.org/2000/svg">
<path d="M15.3357 25.406H4.92426C4.32188 25.4057 3.72668 25.2752 3.17941 25.0235C2.63213 24.7718 2.14571 24.4048 1.75342 23.9477C1.36667 23.5005 1.08108 22.9751 0.916218 22.4073C0.751354 21.8395 0.711102 21.2429 0.798217 20.6581C1.3575 17.6117 2.98256 14.8638 5.38259 12.906C2.98252 10.9475 1.35781 8.1988 0.799258 5.15184C0.712314 4.56748 0.752555 3.97124 0.917231 3.40386C1.08191 2.83648 1.36714 2.31135 1.75342 1.86434C2.14571 1.4072 2.63213 1.04022 3.17941 0.788516C3.72668 0.536813 4.32188 0.406333 4.92426 0.406006L15.3357 0.406006C15.9381 0.406539 16.5332 0.537112 17.0804 0.788801C17.6277 1.04049 18.1141 1.40736 18.5065 1.86434C18.8929 2.31116 19.1783 2.83605 19.3433 3.40321C19.5083 3.97037 19.5491 4.56645 19.4628 5.1508C18.8985 8.19866 17.2702 10.9471 14.868 12.906C17.2688 14.8666 18.8953 17.6161 19.4576 20.6643C19.544 21.2488 19.5033 21.8451 19.3382 22.4124C19.1732 22.9798 18.8878 23.5049 18.5013 23.9518C18.1091 24.4074 17.6233 24.7731 17.0771 25.024C16.5308 25.275 15.9369 25.4052 15.3357 25.406ZM15.3357 2.48934H4.92426C4.6221 2.48915 4.32347 2.55421 4.04877 2.68005C3.77407 2.80589 3.52978 2.98956 3.33259 3.21851C3.14004 3.43771 2.99775 3.69636 2.9157 3.97635C2.83365 4.25634 2.81382 4.55088 2.85759 4.83934C3.24926 7.44351 4.86176 9.88101 7.64926 12.0862C7.77243 12.1837 7.87194 12.3079 7.94035 12.4493C8.00876 12.5907 8.0443 12.7458 8.0443 12.9029C8.0443 13.06 8.00876 13.2151 7.94035 13.3565C7.87194 13.4979 7.77243 13.622 7.64926 13.7195C4.86176 15.9268 3.25238 18.3664 2.85759 20.9695C2.81334 21.2585 2.83294 21.5536 2.915 21.8342C2.99707 22.1148 3.13961 22.3739 3.33259 22.5935C3.52978 22.8224 3.77407 23.0061 4.04877 23.132C4.32347 23.2578 4.6221 23.3229 4.92426 23.3227H15.3357C15.6379 23.3229 15.9365 23.2579 16.2112 23.1321C16.486 23.0062 16.7302 22.8225 16.9274 22.5935C17.1199 22.3747 17.2622 22.1164 17.3442 21.8368C17.4263 21.5571 17.4461 21.2629 17.4024 20.9748C17.0138 18.3841 15.4024 15.9445 12.6107 13.7227C12.4883 13.6251 12.3895 13.5012 12.3215 13.3602C12.2536 13.2192 12.2183 13.0646 12.2183 12.9081C12.2183 12.7516 12.2536 12.597 12.3215 12.456C12.3895 12.315 12.4883 12.1911 12.6107 12.0935C15.4034 9.87163 17.0149 7.43205 17.4024 4.84038C17.446 4.55137 17.4256 4.25631 17.3426 3.97606C17.2596 3.6958 17.1161 3.43719 16.9222 3.21851C16.7256 2.99018 16.4822 2.80686 16.2084 2.68104C15.9346 2.55522 15.637 2.48983 15.3357 2.48934ZM13.9618 21.2393H6.29197C6.12153 21.2393 5.95371 21.1974 5.80324 21.1173C5.65276 21.0373 5.52422 20.9216 5.4289 20.7803C5.33357 20.639 5.27438 20.4765 5.25649 20.307C5.23861 20.1375 5.2626 19.9662 5.32634 19.8081C6.14205 18.0467 7.38489 16.5171 8.94197 15.3581L9.48155 14.9289C9.66588 14.7823 9.89446 14.7025 10.13 14.7025C10.3655 14.7025 10.5941 14.7823 10.7784 14.9289L11.3086 15.3518C12.8635 16.5154 14.1063 18.0456 14.9263 19.806C14.9905 19.9641 15.0148 20.1355 14.9972 20.3052C14.9796 20.4749 14.9206 20.6377 14.8253 20.7792C14.7301 20.9208 14.6015 21.0368 14.4509 21.117C14.3003 21.1972 14.1324 21.2392 13.9618 21.2393ZM8.07947 19.156H12.1711C11.5768 18.3813 10.8905 17.6818 10.1274 17.0727C9.36088 17.6794 8.67295 18.3792 8.07947 19.156Z" fill="#FFFFFF"/>
</svg>
