<svg width="22" height="23" viewBox="0 0 22 23" fill="none" xmlns="http://www.w3.org/2000/svg">
<path d="M22 11.4761C22 13.6517 21.3549 15.7784 20.1462 17.5873C18.9375 19.3963 17.2195 20.8062 15.2095 21.6387C13.1995 22.4713 10.9878 22.6891 8.85401 22.2647C6.72022 21.8403 4.76021 20.7926 3.22183 19.2542C1.68345 17.7159 0.635804 15.7559 0.211367 13.6221C-0.213071 11.4883 0.00476615 9.27654 0.83733 7.26656C1.66989 5.25657 3.07979 3.5386 4.88873 2.32991C6.69767 1.12121 8.82441 0.476074 11 0.476074C13.9164 0.479229 16.7125 1.63917 18.7747 3.70138C20.8369 5.7636 21.9968 8.55966 22 11.4761ZM1.83334 11.4761C1.83334 13.2891 2.37095 15.0613 3.3782 16.5688C4.38545 18.0762 5.81708 19.2512 7.49207 19.945C9.16706 20.6388 11.0102 20.8203 12.7883 20.4666C14.5665 20.1129 16.1998 19.2399 17.4818 17.9579C18.7638 16.6759 19.6368 15.0426 19.9905 13.2644C20.3442 11.4862 20.1627 9.64313 19.4689 7.96814C18.7751 6.29315 17.6002 4.86152 16.0927 3.85427C14.5853 2.84702 12.813 2.30941 11 2.30941C8.56967 2.31208 6.23964 3.2787 4.52114 4.99721C2.80263 6.71571 1.83601 9.04574 1.83334 11.4761ZM14.1295 10.1799L9.80834 5.86057L8.51492 7.15674L12.8333 11.4761L8.54975 15.7597L9.84592 17.0558L14.1295 12.7722C14.4732 12.4284 14.6663 11.9622 14.6663 11.4761C14.6663 10.9899 14.4732 10.5237 14.1295 10.1799Z" fill="white"/>
</svg>
