<svg width="40" height="41" viewBox="0 0 40 41" fill="none" xmlns="http://www.w3.org/2000/svg">
<g clip-path="url(#clip0_198_2268)">
<path d="M28.8679 0.752583C27.7195 0.916646 26.2742 1.51821 25.3132 2.22915C25.032 2.44008 24.2351 3.19008 23.5476 3.8854C22.1726 5.29946 21.7351 5.92446 21.282 7.1354C20.907 8.1354 20.7664 8.92446 20.7585 10.0026V10.9401L20.321 10.9479C20.0554 10.9479 19.7351 11.0182 19.5085 11.1198C19.0398 11.3307 18.2273 12.0963 18.0398 12.5026C17.8445 12.9245 17.8523 13.487 18.0554 13.8854L18.2195 14.2057L11.7351 20.6979C5.48511 26.9635 5.24292 27.2135 4.96948 27.776C4.26636 29.2213 4.32104 30.7838 5.11792 32.112C5.33667 32.4713 5.38354 32.612 5.32104 32.6979C5.05542 33.0807 4.74292 33.6823 4.61011 34.0573C3.92261 36.0729 4.61011 38.3932 6.27417 39.6276C7.87573 40.8151 9.76636 40.987 11.5632 40.112C12.2195 39.7916 12.282 39.7291 16.2507 35.7838C19.9148 32.1432 20.321 31.7604 20.782 31.5416C22.782 30.612 24.9773 31.3854 25.9148 33.3698C26.1648 33.8932 26.2039 34.0495 26.2351 34.7291C26.2664 35.3541 26.2429 35.5885 26.1101 36.026C25.8679 36.8307 25.571 37.2213 24.2117 38.6041C22.8601 39.9713 22.7898 40.1041 23.1648 40.4713C23.532 40.8463 23.6726 40.776 24.9851 39.4713C26.2898 38.1823 26.5945 37.8151 26.9539 37.0885C27.2664 36.4479 27.4226 35.7682 27.4226 34.9557C27.4226 32.5729 25.7976 30.5573 23.5007 30.0885C22.3367 29.8463 21.3367 29.9791 20.2351 30.5182C19.5789 30.8385 19.5164 30.901 15.5476 34.8385C11.2429 39.1198 11.2585 39.1041 10.196 39.3776C8.75854 39.7448 7.17261 39.1666 6.25854 37.9479C5.32886 36.7135 5.27417 34.8932 6.13354 33.5807L6.25073 33.4088L6.69604 33.6823C7.98511 34.4557 9.58667 34.5104 11.0007 33.8229C11.571 33.5416 11.7664 33.3698 14.907 30.2448C17.8289 27.3307 18.2039 26.9245 18.2039 26.7135C18.2039 26.4088 17.9226 26.1354 17.6101 26.1354C17.4148 26.1354 17.0398 26.4791 14.9617 28.5573L12.5398 30.9791L10.1726 28.612L7.81323 26.2526L13.4382 20.6276L19.0632 15.0026L21.4226 17.3698L23.7898 19.7291L21.3445 22.1745C19.1492 24.3698 18.907 24.6354 18.907 24.8698C18.907 25.1979 19.1414 25.4323 19.4695 25.4323C19.696 25.4323 19.9695 25.1823 22.1492 23.0104L24.5789 20.5807L24.9304 20.737C25.6414 21.0651 26.4148 20.8385 27.0789 20.0963C27.5789 19.5416 27.8132 19.026 27.8132 18.4557V18.0104H28.7039C30.5164 18.0104 32.1414 17.487 33.5789 16.4323C34.2039 15.9791 36.1414 14.0104 36.5867 13.3932C37.8757 11.5729 38.3679 9.24477 37.9226 7.06508C37.0789 2.91665 33.1023 0.151021 28.8679 0.752583ZM31.8289 2.06508C33.1414 2.40883 34.407 3.21352 35.2976 4.26821C37.032 6.33071 37.3992 9.18227 36.2507 11.6432C35.8757 12.4401 36.0007 12.4791 34.7039 11.1901C33.7507 10.2526 33.5007 10.0416 33.321 10.0416C33.0164 10.0416 32.7351 10.3229 32.7351 10.6198C32.7351 10.8151 32.9226 11.0416 33.946 12.0729L35.157 13.2916L34.2585 14.1823L33.3601 15.0729L32.157 13.8854C30.9929 12.7213 30.946 12.6901 30.6648 12.7135C30.2976 12.7448 30.032 13.0495 30.1101 13.3463C30.1335 13.4557 30.6492 14.0573 31.2585 14.6823C31.8679 15.3151 32.3523 15.8463 32.3367 15.862C32.2117 15.9791 31.0867 16.4713 30.6101 16.612C29.8914 16.8151 28.3835 16.8932 27.6101 16.7682L27.0632 16.6745L24.5945 14.1979C23.2351 12.8385 22.1023 11.651 22.0789 11.5651C22.0554 11.4791 22.0007 11.0963 21.9539 10.7057C21.8679 9.94008 21.946 9.0104 22.1492 8.20571C22.2742 7.73696 22.8757 6.36977 22.9617 6.36977C22.9929 6.36977 23.5164 6.87758 24.1414 7.50258C25.1335 8.49477 25.3054 8.6354 25.5242 8.6354C25.8523 8.6354 26.0945 8.40102 26.0945 8.0729C26.0945 7.86196 25.9382 7.66665 24.8835 6.60415L23.6726 5.3854L24.571 4.49477L25.4695 3.60415L26.7039 4.83071C27.3835 5.50258 28.0007 6.05727 28.071 6.05727C28.4226 6.05727 28.7507 5.72915 28.7507 5.37758C28.7507 5.30727 28.2195 4.71352 27.5789 4.06508L26.3992 2.8854L26.7898 2.67446C27.3601 2.36196 28.1414 2.08071 28.8132 1.95571C29.6257 1.79946 31.0164 1.85415 31.8289 2.06508ZM20.7585 12.151C21.0085 12.2448 26.3601 17.5416 26.532 17.8698C26.5945 17.987 26.6414 18.2448 26.6414 18.4401C26.6414 18.776 26.6023 18.8385 26.196 19.2682C25.9382 19.5416 25.696 19.7291 25.5945 19.7291C25.4851 19.7291 24.4148 18.7135 22.2507 16.5495C19.657 13.9557 19.0632 13.3229 19.0632 13.1588C19.0632 13.0026 19.1804 12.8385 19.4929 12.5573C20.0007 12.0885 20.3132 11.987 20.7585 12.151ZM11.3132 32.1823C10.5242 32.9166 9.43823 33.2604 8.46167 33.0885C7.04761 32.8463 6.03198 31.8698 5.72729 30.4791C5.49292 29.401 5.78979 28.362 6.57886 27.4948L6.97729 27.0573L9.35229 29.4323L11.7273 31.7995L11.3132 32.1823Z" fill="#FF8E7C"/>
<path d="M9.31333 3.72134L5.53208 4.97134L5.4227 5.23697C5.33677 5.45572 5.31333 6.08072 5.31333 8.47915V11.4479H4.76645C3.78208 11.4479 2.86802 11.862 2.13364 12.6432C1.6102 13.1979 1.38364 13.6979 1.34458 14.362C1.2977 15.0807 1.43833 15.5182 1.84458 15.9713C2.88364 17.1276 4.99302 16.9479 6.28989 15.5807C7.30552 14.5182 7.46958 13.2135 6.71177 12.2604L6.4852 11.9713L6.50083 8.93228L6.52427 5.90103L9.57114 4.8854C11.2508 4.3229 12.6649 3.86978 12.7196 3.86978C12.7899 3.86978 12.8133 4.33072 12.8133 5.90103V7.93228H12.368C10.2274 7.94009 8.4227 9.92447 8.93052 11.6901C9.47739 13.5495 12.2821 13.776 13.8446 12.0807C14.8836 10.9557 15.0165 9.64322 14.1883 8.65884L13.993 8.42447L13.9696 5.61197C13.9461 2.96353 13.9383 2.78384 13.7977 2.62759C13.6961 2.51822 13.5633 2.46353 13.368 2.47134C13.2118 2.47134 11.3915 3.04165 9.31333 3.72134ZM12.9149 9.21353C13.3446 9.39322 13.5477 9.68228 13.5477 10.112C13.5477 11.3151 11.8368 12.4088 10.6571 11.9557C9.76645 11.6198 9.78208 10.612 10.6961 9.79165C11.368 9.19009 12.2899 8.9479 12.9149 9.21353ZM5.55552 12.7995C6.20395 13.237 6.1727 13.9948 5.47739 14.7448C5.11802 15.1432 4.63364 15.401 4.03989 15.526C3.50864 15.6354 3.0477 15.526 2.71958 15.1979C2.53989 15.0104 2.50083 14.9088 2.50083 14.5729C2.50083 14.0807 2.69614 13.6823 3.11802 13.2995C3.66489 12.8073 4.08677 12.6354 4.81333 12.6276C5.18833 12.6198 5.34458 12.6588 5.55552 12.7995Z" fill="#FF8E7C"/>
<path d="M16.0704 21.5182C14.6329 22.9557 14.6017 22.9947 14.6251 23.2838C14.6564 23.6666 14.9611 23.9166 15.2892 23.8385C15.5548 23.7682 18.172 21.2057 18.3204 20.8697C18.4376 20.5963 18.3439 20.2369 18.1251 20.1197C17.7189 19.901 17.6095 19.9791 16.0704 21.5182Z" fill="#FF8E7C"/>
<path d="M32.7979 21.237C32.6964 21.3385 32.2901 21.9401 31.9151 22.5729C31.5323 23.2135 31.1495 23.7604 31.0636 23.7995C30.9698 23.8385 30.3917 23.9948 29.7667 24.1432C28.3995 24.4791 28.2432 24.5416 28.0479 24.7916C27.712 25.2135 27.8214 25.4401 29.0792 26.9323L29.8604 27.8698L29.7667 29.3698C29.712 30.1901 29.6885 30.9635 29.7198 31.0807C29.7823 31.3541 30.087 31.5495 30.4542 31.5416C30.6261 31.5338 31.2354 31.3229 31.9698 31.026C32.6417 30.737 33.2432 30.5104 33.3057 30.5104C33.3682 30.5104 33.9776 30.7448 34.6495 31.026C36.0245 31.5963 36.3761 31.651 36.6807 31.3698C36.9542 31.112 36.9776 30.8698 36.8448 29.3073L36.7276 27.9088L37.5636 26.901C38.0245 26.3463 38.462 25.7995 38.5323 25.6823C38.7276 25.3932 38.712 24.9245 38.5167 24.7291C38.2979 24.5104 38.1573 24.4635 36.6807 24.0963L35.4229 23.7838L34.7042 22.5807C34.3057 21.9166 33.8917 21.3073 33.7745 21.2213C33.4932 20.9948 33.0479 21.0026 32.7979 21.237ZM34.6417 24.6354C34.7901 24.7916 35.1104 24.901 35.9854 25.1276C36.6104 25.2916 37.1417 25.4401 37.1651 25.4635C37.1886 25.4791 36.8995 25.862 36.5245 26.3073C36.1495 26.7526 35.7901 27.2135 35.7276 27.3463C35.5792 27.6198 35.5636 28.0338 35.6573 29.276L35.7198 30.1901L34.6807 29.7682C33.3292 29.2135 33.2276 29.2135 31.9229 29.7682C31.3604 30.0026 30.8995 30.1823 30.8839 30.1666C30.8761 30.1588 30.8995 29.7995 30.9386 29.3698C31.0479 28.2135 31.0323 27.651 30.8839 27.362C30.7823 27.151 30.5089 26.8073 29.4776 25.5807C29.3839 25.4635 29.4854 25.4245 30.5636 25.151C31.5011 24.9245 31.7979 24.8151 31.962 24.6588C32.0714 24.5495 32.4151 24.0182 32.7276 23.487L33.2979 22.526L33.8682 23.4791C34.1886 24.0104 34.5323 24.526 34.6417 24.6354Z" fill="#FF8E7C"/>
</g>
<defs>
<clipPath id="clip0_198_2268">
<rect width="40" height="40" fill="white" transform="translate(0 0.666626)"/>
</clipPath>
</defs>
</svg>
