<svg width="26" height="27" viewBox="0 0 26 27" fill="none" xmlns="http://www.w3.org/2000/svg">
<g clip-path="url(#clip0_618_2950)">
<path d="M22.625 12.4648H14.375V4.21484C14.375 3.45546 13.7594 2.83984 13 2.83984C12.2406 2.83984 11.625 3.45546 11.625 4.21484V12.4648H3.375C2.61561 12.4648 2 13.0805 2 13.8398C2 14.5992 2.61561 15.2148 3.375 15.2148H11.625V23.4648C11.625 24.2242 12.2406 24.8398 13 24.8398C13.7594 24.8398 14.375 24.2242 14.375 23.4648V15.2148H22.625C23.3844 15.2148 24 14.5992 24 13.8398C24 13.0805 23.3844 12.4648 22.625 12.4648Z" fill="#FF715A"/>
</g>
<defs>
<clipPath id="clip0_618_2950">
<rect width="22" height="22" fill="white" transform="translate(2 2.83984)"/>
</clipPath>
</defs>
</svg>
