<svg width="22" height="23" viewBox="0 0 22 23" fill="none" xmlns="http://www.w3.org/2000/svg">
<path d="M22 20.1838L15.3725 2.20304C15.1193 1.51313 14.6128 0.962675 13.945 0.654418C13.278 0.344326 12.5303 0.314051 11.8404 0.568179L10.9789 0.884693C10.7193 0.980106 10.4798 1.11038 10.2651 1.27277C9.76239 0.736069 9.04862 0.399372 8.25688 0.399372H2.75229C1.23486 0.398455 0 1.63332 0 3.15075V22.4168H11.0092V8.93515L15.9706 22.3957L22 20.1838ZM17.0578 20.0425L16.1725 17.6397L18.756 16.692L19.6413 19.0948L17.0578 20.0425ZM15.5376 15.9186L12.3367 7.23423L14.9202 6.28561L18.1211 14.97L15.5376 15.9186ZM11.0945 3.08194C11.1972 2.85992 11.3807 2.6902 11.611 2.60579L12.4725 2.28928C12.5752 2.25167 12.6826 2.2324 12.789 2.2324C12.9202 2.2324 13.0505 2.26084 13.1734 2.31772C13.3963 2.42047 13.5651 2.60396 13.6505 2.83515L14.2872 4.56359L11.7037 5.51222L11.0661 3.78286C10.9817 3.55258 10.9917 3.30488 11.0945 3.08194ZM9.17431 3.15075V4.98561H6.42202V2.23332H8.25688C8.76239 2.23332 9.17431 2.64433 9.17431 3.15075ZM6.42202 6.82047H9.17431V15.9948H6.42202V6.82047ZM4.58716 15.9948H1.83486V6.82047H4.58716V15.9948ZM2.75229 2.23332H4.58716V4.98561H1.83486V3.15075C1.83486 2.64433 2.24679 2.23332 2.75229 2.23332ZM1.83486 17.8296H4.58716V20.5819H1.83486V17.8296ZM6.42202 20.5819V17.8296H9.17431V20.5819H6.42202Z" fill="white"/>
</svg>
