<svg width="26" height="27" viewBox="0 0 26 27" fill="none" xmlns="http://www.w3.org/2000/svg">
<g clip-path="url(#clip0_618_2974)">
<path d="M13 11.8398C11.07 11.8398 9.5 13.4098 9.5 15.3398C9.5 17.2698 11.07 18.8398 13 18.8398C14.93 18.8398 16.5 17.2698 16.5 15.3398C16.5 13.4098 14.93 11.8398 13 11.8398ZM13 16.8398C12.173 16.8398 11.5 16.1668 11.5 15.3398C11.5 14.5128 12.173 13.8398 13 13.8398C13.827 13.8398 14.5 14.5128 14.5 15.3398C14.5 16.1668 13.827 16.8398 13 16.8398ZM20.949 7.37584L17.465 3.88984C16.142 2.56784 14.384 1.83984 12.515 1.83984H8C5.243 1.83984 3 4.08284 3 6.83984V20.8398C3 23.5968 5.243 25.8398 8 25.8398H18C20.757 25.8398 23 23.5968 23 20.8398V12.3248C23 10.4538 22.271 8.69784 20.949 7.37584ZM19.535 8.79084C19.853 9.10784 20.122 9.46084 20.34 9.84084H15.999C15.447 9.84084 14.999 9.39184 14.999 8.84084V4.49884C15.379 4.71684 15.732 4.98584 16.05 5.30384L19.534 8.78984L19.535 8.79084ZM10.172 23.8408C10.585 22.6768 11.696 21.8408 13 21.8408C14.304 21.8408 15.415 22.6768 15.828 23.8408H10.172ZM21 20.8408C21 22.4948 19.654 23.8408 18 23.8408H17.899C17.434 21.5618 15.414 19.8408 13 19.8408C10.586 19.8408 8.565 21.5618 8.101 23.8408H8C6.346 23.8408 5 22.4948 5 20.8408V6.83984C5 5.18584 6.346 3.83984 8 3.83984H12.515C12.678 3.83984 12.84 3.84784 13 3.86284V8.83984C13 10.4938 14.346 11.8398 16 11.8398H20.977C20.992 11.9998 21 12.1618 21 12.3248V20.8408Z" fill="#55648B"/>
</g>
<defs>
<clipPath id="clip0_618_2974">
<rect width="24" height="24" fill="white" transform="translate(1 1.83984)"/>
</clipPath>
</defs>
</svg>
