<svg width="19" height="23" viewBox="0 0 19 23" fill="none" xmlns="http://www.w3.org/2000/svg">
<path d="M16.7803 7.51271L8.03426 1.09525C7.35116 0.595037 6.54286 0.293791 5.699 0.224913C4.85515 0.156034 4.0087 0.322214 3.25352 0.705025C2.49834 1.08784 1.86394 1.67232 1.42066 2.39367C0.977378 3.11502 0.742541 3.94504 0.742188 4.79171V17.6266C0.742339 18.4737 0.977189 19.3041 1.42067 20.0258C1.86416 20.7475 2.49893 21.3321 3.25455 21.7149C4.01017 22.0977 4.85707 22.2637 5.70128 22.1943C6.54548 22.125 7.35397 21.8231 8.03701 21.3222L16.7831 14.9047C17.3637 14.479 17.8358 13.9224 18.1612 13.2802C18.4866 12.638 18.6562 11.9282 18.6562 11.2083C18.6562 10.4883 18.4866 9.77848 18.1612 9.13627C17.8358 8.49407 17.3637 7.93755 16.7831 7.51179L16.7803 7.51271Z" fill="#161C3D"/>
</svg>
