<svg width="17" height="23" viewBox="0 0 17 23" fill="none" xmlns="http://www.w3.org/2000/svg">
<path d="M3.70833 0.209717C2.85743 0.209717 2.04138 0.547737 1.4397 1.14942C0.83802 1.7511 0.5 2.56715 0.5 3.41805V19.0014C0.5 19.8523 0.83802 20.6683 1.4397 21.27C2.04138 21.8717 2.85743 22.2097 3.70833 22.2097C4.55924 22.2097 5.37529 21.8717 5.97697 21.27C6.57865 20.6683 6.91667 19.8523 6.91667 19.0014V3.41805C6.91667 2.56715 6.57865 1.7511 5.97697 1.14942C5.37529 0.547737 4.55924 0.209717 3.70833 0.209717ZM5.08333 19.0014C5.08333 19.3661 4.93847 19.7158 4.68061 19.9737C4.42274 20.2315 4.07301 20.3764 3.70833 20.3764C3.34366 20.3764 2.99392 20.2315 2.73606 19.9737C2.4782 19.7158 2.33333 19.3661 2.33333 19.0014V3.41805C2.33333 3.05338 2.4782 2.70364 2.73606 2.44578C2.99392 2.18792 3.34366 2.04305 3.70833 2.04305C4.07301 2.04305 4.42274 2.18792 4.68061 2.44578C4.93847 2.70364 5.08333 3.05338 5.08333 3.41805V19.0014Z" fill="#55648B"/>
<path d="M13.7918 0.209717C12.9409 0.209717 12.1249 0.547737 11.5232 1.14942C10.9215 1.7511 10.5835 2.56715 10.5835 3.41805V19.0014C10.5835 19.8523 10.9215 20.6683 11.5232 21.27C12.1249 21.8717 12.9409 22.2097 13.7918 22.2097C14.6427 22.2097 15.4588 21.8717 16.0605 21.27C16.6621 20.6683 17.0002 19.8523 17.0002 19.0014V3.41805C17.0002 2.56715 16.6621 1.7511 16.0605 1.14942C15.4588 0.547737 14.6427 0.209717 13.7918 0.209717ZM15.1668 19.0014C15.1668 19.3661 15.022 19.7158 14.7641 19.9737C14.5062 20.2315 14.1565 20.3764 13.7918 20.3764C13.4272 20.3764 13.0774 20.2315 12.8196 19.9737C12.5617 19.7158 12.4168 19.3661 12.4168 19.0014V3.41805C12.4168 3.05338 12.5617 2.70364 12.8196 2.44578C13.0774 2.18792 13.4272 2.04305 13.7918 2.04305C14.1565 2.04305 14.5062 2.18792 14.7641 2.44578C15.022 2.70364 15.1668 3.05338 15.1668 3.41805V19.0014Z" fill="#55648B"/>
</svg>
