<svg width="22" height="17" viewBox="0 0 22 17" fill="none" xmlns="http://www.w3.org/2000/svg">
<path d="M3.47209 16.1113C2.55154 16.1108 1.66883 15.745 1.01781 15.0942C0.366801 14.4433 0.000728854 13.5607 1.23443e-07 12.6401V3.71008C-0.000170896 3.06895 0.177361 2.44033 0.512882 1.89401C0.848403 1.34769 1.32878 0.905057 1.90067 0.615265C2.47256 0.325472 3.11358 0.199862 3.75255 0.252381C4.39152 0.304901 5.00343 0.533496 5.52033 0.91278L8.98508 3.45611C9.03038 2.83835 9.24028 2.244 9.59297 1.73481C9.94567 1.22561 10.4283 0.820159 10.9907 0.560578C11.5531 0.300996 12.1747 0.196757 12.791 0.258694C13.4073 0.32063 13.9958 0.546482 14.4953 0.91278L20.5841 5.37782C21.023 5.70011 21.3799 6.12119 21.6258 6.60699C21.8718 7.09279 22 7.62967 22 8.17419C22 8.71872 21.8718 9.2556 21.6258 9.7414C21.3799 10.2272 21.023 10.6483 20.5841 10.9706L14.4953 15.4356C13.996 15.8019 13.4076 16.0277 12.7915 16.0897C12.1753 16.1518 11.5538 16.0477 10.9914 15.7883C10.4291 15.5289 9.94643 15.1237 9.59361 14.6148C9.2408 14.1058 9.03068 13.5117 8.98508 12.8941L5.52033 15.4374C4.92675 15.8744 4.20918 16.1105 3.47209 16.1113ZM9.89551 10.1748C10.1387 10.1748 10.3719 10.2713 10.5438 10.4433C10.7158 10.6152 10.8124 10.8484 10.8124 11.0916V12.6401C10.8126 12.9422 10.8965 13.2383 11.0547 13.4956C11.2129 13.7529 11.4393 13.9614 11.7087 14.098C11.9782 14.2345 12.2802 14.2937 12.5812 14.2691C12.8823 14.2445 13.1707 14.137 13.4144 13.9586L19.5022 9.49354C19.7093 9.34171 19.8778 9.14322 19.9939 8.91416C20.11 8.6851 20.1705 8.43191 20.1705 8.17511C20.1705 7.91831 20.11 7.66512 19.9939 7.43606C19.8778 7.207 19.7093 7.00852 19.5022 6.85669L13.4144 2.39165C13.1707 2.21319 12.8823 2.1057 12.5812 2.0811C12.2802 2.0565 11.9782 2.11574 11.7087 2.25227C11.4393 2.3888 11.2129 2.59728 11.0547 2.85459C10.8965 3.11191 10.8126 3.40801 10.8124 3.71008V5.25863C10.8122 5.42797 10.7652 5.59398 10.6765 5.73823C10.5878 5.88249 10.4609 5.99936 10.3099 6.07589C10.1588 6.15242 9.98948 6.18562 9.8207 6.1718C9.65192 6.15798 9.49026 6.09769 9.35366 5.9976L4.4357 2.39165C4.19199 2.21319 3.90362 2.1057 3.60256 2.0811C3.3015 2.0565 2.9995 2.11574 2.73005 2.25227C2.4606 2.3888 2.23422 2.59728 2.07601 2.85459C1.91779 3.11191 1.83392 3.40801 1.83369 3.71008V12.6401C1.83392 12.9422 1.91779 13.2383 2.07601 13.4956C2.23422 13.7529 2.4606 13.9614 2.73005 14.098C2.9995 14.2345 3.3015 14.2937 3.60256 14.2691C3.90362 14.2445 4.19199 14.137 4.4357 13.9586L9.35182 10.3526C9.50944 10.2369 9.69995 10.1745 9.89551 10.1748Z" fill="black"/>
</svg>
