<svg width="22" height="17" viewBox="0 0 22 17" fill="none" xmlns="http://www.w3.org/2000/svg">
<path d="M18.5279 0.416752C19.4485 0.417238 20.3312 0.783077 20.9822 1.43392C21.6332 2.08476 21.9993 2.96738 22 3.88793L22 12.818C22.0002 13.4591 21.8226 14.0877 21.4871 14.6341C21.1516 15.1804 20.6712 15.623 20.0993 15.9128C19.5274 16.2026 18.8864 16.3282 18.2474 16.2757C17.6085 16.2232 16.9966 15.9946 16.4797 15.6153L13.0149 13.072C12.9696 13.6897 12.7597 14.2841 12.407 14.7933C12.0543 15.3025 11.5717 15.7079 11.0093 15.9675C10.4469 16.2271 9.82527 16.3313 9.20896 16.2694C8.59265 16.2074 8.00417 15.9816 7.50468 15.6153L1.41591 11.1503C0.977006 10.828 0.620132 10.4069 0.374153 9.92109C0.128175 9.43529 1.26139e-06 8.89841 1.21378e-06 8.35388C1.16618e-06 7.80936 0.128175 7.27248 0.374152 6.78668C0.620132 6.30088 0.977006 5.8798 1.41591 5.55751L7.50467 1.09247C8.00405 0.726226 8.59237 0.500365 9.20853 0.438343C9.8247 0.376321 10.4462 0.480401 11.0086 0.739772C11.5709 0.999144 12.0536 1.40435 12.4064 1.91329C12.7592 2.42224 12.9693 3.01637 13.0149 3.63396L16.4797 1.09063C17.0732 0.653639 17.7908 0.41755 18.5279 0.416752ZM12.1045 6.35333C11.8613 6.35333 11.6281 6.25673 11.4562 6.08479C11.2842 5.91285 11.1876 5.67964 11.1876 5.43648L11.1876 3.88793C11.1874 3.58586 11.1035 3.28976 10.9453 3.03245C10.7871 2.77513 10.5607 2.56666 10.2913 2.43013C10.0218 2.2936 9.71984 2.23435 9.41878 2.25895C9.11771 2.28355 8.82935 2.39104 8.58564 2.56951L2.49778 7.03454C2.29067 7.18637 2.12224 7.38486 2.00614 7.61392C1.89005 7.84298 1.82955 8.09617 1.82955 8.35297C1.82955 8.60977 1.89005 8.86296 2.00614 9.09202C2.12224 9.32108 2.29067 9.51956 2.49778 9.67139L8.58564 14.1364C8.82935 14.3149 9.11772 14.4224 9.41878 14.447C9.71984 14.4716 10.0218 14.4123 10.2913 14.2758C10.5607 14.1393 10.7871 13.9308 10.9453 13.6735C11.1035 13.4162 11.1874 13.1201 11.1876 12.818L11.1876 11.2695C11.1878 11.1001 11.2348 10.9341 11.3235 10.7898C11.4122 10.6456 11.5391 10.5287 11.6901 10.4522C11.8412 10.3757 12.0105 10.3425 12.1793 10.3563C12.3481 10.3701 12.5097 10.4304 12.6463 10.5305L17.5643 14.1364C17.808 14.3149 18.0964 14.4224 18.3974 14.447C18.6985 14.4716 19.0005 14.4123 19.2699 14.2758C19.5394 14.1393 19.7658 13.9308 19.924 13.6735C20.0822 13.4162 20.1661 13.1201 20.1663 12.818L20.1663 3.88793C20.1661 3.58586 20.0822 3.28976 19.924 3.03245C19.7658 2.77513 19.5394 2.56666 19.2699 2.43013C19.0005 2.2936 18.6985 2.23435 18.3974 2.25895C18.0964 2.28355 17.808 2.39104 17.5643 2.56951L12.6482 6.17546C12.4906 6.29121 12.3 6.35354 12.1045 6.35333Z" fill="#fff"/>
</svg>
