<svg width="17" height="23" viewBox="0 0 17 23" fill="none" xmlns="http://www.w3.org/2000/svg">
<path d="M3.20833 0.209717C2.35743 0.209717 1.54138 0.547737 0.939699 1.14942C0.33802 1.7511 0 2.56715 0 3.41805V19.0014C1.79314e-08 19.8523 0.33802 20.6683 0.939699 21.27C1.54138 21.8717 2.35743 22.2097 3.20833 22.2097C4.05924 22.2097 4.87529 21.8717 5.47697 21.27C6.07865 20.6683 6.41667 19.8523 6.41667 19.0014V3.41805C6.41667 2.56715 6.07865 1.7511 5.47697 1.14942C4.87529 0.547737 4.05924 0.209717 3.20833 0.209717ZM4.58333 19.0014C4.58333 19.3661 4.43847 19.7158 4.18061 19.9737C3.92274 20.2315 3.57301 20.3764 3.20833 20.3764C2.84366 20.3764 2.49392 20.2315 2.23606 19.9737C1.9782 19.7158 1.83333 19.3661 1.83333 19.0014V3.41805C1.83333 3.05338 1.9782 2.70364 2.23606 2.44578C2.49392 2.18792 2.84366 2.04305 3.20833 2.04305C3.57301 2.04305 3.92274 2.18792 4.18061 2.44578C4.43847 2.70364 4.58333 3.05338 4.58333 3.41805V19.0014Z" fill="white"/>
<path d="M13.2918 0.209717C12.4409 0.209717 11.6249 0.547737 11.0232 1.14942C10.4215 1.7511 10.0835 2.56715 10.0835 3.41805V19.0014C10.0835 19.8523 10.4215 20.6683 11.0232 21.27C11.6249 21.8717 12.4409 22.2097 13.2918 22.2097C14.1427 22.2097 14.9588 21.8717 15.5605 21.27C16.1621 20.6683 16.5002 19.8523 16.5002 19.0014V3.41805C16.5002 2.56715 16.1621 1.7511 15.5605 1.14942C14.9588 0.547737 14.1427 0.209717 13.2918 0.209717ZM14.6668 19.0014C14.6668 19.3661 14.522 19.7158 14.2641 19.9737C14.0062 20.2315 13.6565 20.3764 13.2918 20.3764C12.9272 20.3764 12.5774 20.2315 12.3196 19.9737C12.0617 19.7158 11.9168 19.3661 11.9168 19.0014V3.41805C11.9168 3.05338 12.0617 2.70364 12.3196 2.44578C12.5774 2.18792 12.9272 2.04305 13.2918 2.04305C13.6565 2.04305 14.0062 2.18792 14.2641 2.44578C14.522 2.70364 14.6668 3.05338 14.6668 3.41805V19.0014Z" fill="white"/>
</svg>
