<svg width="20" height="26" viewBox="0 0 20 26" fill="none" xmlns="http://www.w3.org/2000/svg">
<path d="M19.5 25.4059H17.4167V20.1528C17.4158 19.3361 17.0911 18.5531 16.5136 17.9757C15.9361 17.3982 15.1531 17.0734 14.3365 17.0726H5.91354C5.09687 17.0734 4.31389 17.3982 3.73642 17.9757C3.15895 18.5531 2.83416 19.3361 2.83333 20.1528V25.4059H0.75V20.1528C0.751654 18.7839 1.2962 17.4714 2.26419 16.5035C3.23219 15.5355 4.54459 14.9909 5.91354 14.9893H14.3365C15.7054 14.9909 17.0178 15.5355 17.9858 16.5035C18.9538 17.4714 19.4983 18.7839 19.5 20.1528V25.4059Z" fill="#55648B"/>
<path d="M10.125 12.906C8.88887 12.906 7.6805 12.5395 6.65269 11.8527C5.62488 11.1659 4.8238 10.1898 4.35076 9.04778C3.87771 7.90574 3.75394 6.64908 3.99509 5.43669C4.23625 4.22431 4.83151 3.11067 5.70559 2.23659C6.57966 1.36251 7.69331 0.767258 8.90569 0.526101C10.1181 0.284943 11.3747 0.408714 12.5168 0.881762C13.6588 1.35481 14.6349 2.15589 15.3217 3.18369C16.0084 4.2115 16.375 5.41988 16.375 6.65601C16.3733 8.3131 15.7143 9.90185 14.5426 11.0736C13.3708 12.2453 11.7821 12.9044 10.125 12.906ZM10.125 2.48934C9.30091 2.48934 8.49533 2.73371 7.81013 3.19155C7.12492 3.64939 6.59087 4.30014 6.2755 5.06149C5.96014 5.82285 5.87763 6.66063 6.0384 7.46888C6.19917 8.27714 6.59601 9.01957 7.17872 9.60229C7.76144 10.185 8.50387 10.5818 9.31213 10.7426C10.1204 10.9034 10.9582 10.8209 11.7195 10.5055C12.4809 10.1901 13.1316 9.65609 13.5895 8.97088C14.0473 8.28568 14.2917 7.4801 14.2917 6.65601C14.2917 5.55094 13.8527 4.49113 13.0713 3.70973C12.2899 2.92833 11.2301 2.48934 10.125 2.48934Z" fill="#55648B"/>
</svg>
