<svg width="26" height="27" viewBox="0 0 26 27" fill="none" xmlns="http://www.w3.org/2000/svg">
<g clip-path="url(#clip0_618_3004)">
<path d="M20.95 7.37582L17.465 3.89082C16.143 2.56882 14.385 1.84082 12.515 1.84082H8C5.243 1.83982 3 4.08282 3 6.83982V20.8398C3 23.5968 5.243 25.8398 8 25.8398H18C20.757 25.8398 23 23.5968 23 20.8398V12.3248C23 10.4548 22.272 8.69882 20.95 7.37582ZM19.536 8.78982C19.854 9.10782 20.123 9.46082 20.341 9.83982H16C15.449 9.83982 15 9.39082 15 8.83982V4.49882C15.379 4.71682 15.733 4.98582 16.05 5.30382L19.535 8.78882L19.536 8.78982ZM21 20.8398C21 22.4938 19.654 23.8398 18 23.8398H8C6.346 23.8398 5 22.4938 5 20.8398V6.83982C5 5.18582 6.346 3.83982 8 3.83982H12.515C12.678 3.83982 12.84 3.84782 13 3.86282V8.83982C13 10.4938 14.346 11.8398 16 11.8398H20.977C20.992 11.9998 21 12.1618 21 12.3248V20.8398ZM16.5 14.8398H9.5C8.122 14.8398 7 15.9618 7 17.3398V19.3398C7 20.7178 8.122 21.8398 9.5 21.8398H16.5C17.878 21.8398 19 20.7178 19 19.3398V17.3398C19 15.9618 17.878 14.8398 16.5 14.8398ZM17 19.3398C17 19.6158 16.776 19.8398 16.5 19.8398H9.5C9.224 19.8398 9 19.6158 9 19.3398V17.3398C9 17.0638 9.224 16.8398 9.5 16.8398H16.5C16.776 16.8398 17 17.0638 17 17.3398V19.3398ZM7 11.8398C7 11.2878 7.448 10.8398 8 10.8398H10C10.552 10.8398 11 11.2878 11 11.8398C11 12.3918 10.552 12.8398 10 12.8398H8C7.448 12.8398 7 12.3918 7 11.8398ZM7 7.83982C7 7.28782 7.448 6.83982 8 6.83982H10C10.552 6.83982 11 7.28782 11 7.83982C11 8.39182 10.552 8.83982 10 8.83982H8C7.448 8.83982 7 8.39182 7 7.83982Z" fill="#55648B"/>
</g>
<defs>
<clipPath id="clip0_618_3004">
<rect width="24" height="24" fill="white" transform="translate(1 1.83984)"/>
</clipPath>
</defs>
</svg>
