<svg width="22" height="23" viewBox="0 0 22 23" fill="none" xmlns="http://www.w3.org/2000/svg">
<path d="M11 16.0001C8.47 16.0001 6.41667 13.9467 6.41667 11.4167C6.41667 8.88675 8.47 6.83342 11 6.83342C13.53 6.83342 15.5833 8.88675 15.5833 11.4167C15.5833 13.9467 13.53 16.0001 11 16.0001ZM11 8.66675C9.4875 8.66675 8.25 9.90425 8.25 11.4167C8.25 12.9292 9.4875 14.1667 11 14.1667C12.5125 14.1667 13.75 12.9292 13.75 11.4167C13.75 9.90425 12.5125 8.66675 11 8.66675ZM11.9167 4.08341V1.33341C11.9167 0.829248 11.5042 0.416748 11 0.416748C10.4958 0.416748 10.0833 0.829248 10.0833 1.33341V4.08341C10.0833 4.58758 10.4958 5.00008 11 5.00008C11.5042 5.00008 11.9167 4.58758 11.9167 4.08341ZM11.9167 21.5001V18.7501C11.9167 18.2459 11.5042 17.8334 11 17.8334C10.4958 17.8334 10.0833 18.2459 10.0833 18.7501V21.5001C10.0833 22.0042 10.4958 22.4167 11 22.4167C11.5042 22.4167 11.9167 22.0042 11.9167 21.5001ZM4.58333 11.4167C4.58333 10.9126 4.17083 10.5001 3.66667 10.5001H0.916667C0.4125 10.5001 0 10.9126 0 11.4167C0 11.9209 0.4125 12.3334 0.916667 12.3334H3.66667C4.17083 12.3334 4.58333 11.9209 4.58333 11.4167ZM22 11.4167C22 10.9126 21.5875 10.5001 21.0833 10.5001H18.3333C17.8292 10.5001 17.4167 10.9126 17.4167 11.4167C17.4167 11.9209 17.8292 12.3334 18.3333 12.3334H21.0833C21.5875 12.3334 22 11.9209 22 11.4167ZM6.15083 6.56758C6.50833 6.21008 6.50833 5.63258 6.15083 5.27508L4.3175 3.44175C3.96 3.08425 3.3825 3.08425 3.025 3.44175C2.6675 3.79925 2.6675 4.37675 3.025 4.73425L4.85833 6.56758C5.04167 6.75092 5.27083 6.83342 5.50917 6.83342C5.7475 6.83342 5.97667 6.74175 6.16 6.56758H6.15083ZM18.9842 19.4009C19.3417 19.0434 19.3417 18.4659 18.9842 18.1084L17.1508 16.2751C16.7933 15.9176 16.2158 15.9176 15.8583 16.2751C15.5008 16.6326 15.5008 17.2101 15.8583 17.5676L17.6917 19.4009C17.875 19.5842 18.1042 19.6667 18.3425 19.6667C18.5808 19.6667 18.81 19.5751 18.9933 19.4009H18.9842ZM4.3175 19.4009L6.15083 17.5676C6.50833 17.2101 6.50833 16.6326 6.15083 16.2751C5.79333 15.9176 5.21583 15.9176 4.85833 16.2751L3.025 18.1084C2.6675 18.4659 2.6675 19.0434 3.025 19.4009C3.20833 19.5842 3.4375 19.6667 3.67583 19.6667C3.91417 19.6667 4.14333 19.5751 4.32667 19.4009H4.3175ZM17.1508 6.56758L18.9842 4.73425C19.3417 4.37675 19.3417 3.79925 18.9842 3.44175C18.6267 3.08425 18.0492 3.08425 17.6917 3.44175L15.8583 5.27508C15.5008 5.63258 15.5008 6.21008 15.8583 6.56758C16.0417 6.75092 16.2708 6.83342 16.5092 6.83342C16.7475 6.83342 16.9767 6.74175 17.16 6.56758H17.1508Z" fill="black"/>
</svg>
