<svg width="22" height="23" viewBox="0 0 22 23" fill="none" xmlns="http://www.w3.org/2000/svg">
<path d="M21.0063 0.744161C20.6955 0.485965 20.3314 0.299653 19.9401 0.198551C19.5489 0.0974494 19.1401 0.0840557 18.7431 0.159328L7.744 2.21908C7.11305 2.33719 6.5433 2.6723 6.13346 3.16635C5.72362 3.6604 5.49953 4.28225 5.5 4.92416V15.2871C4.9451 14.9571 4.31223 14.7812 3.66667 14.7774C2.94147 14.7774 2.23256 14.9925 1.62958 15.3954C1.0266 15.7983 0.556631 16.3709 0.27911 17.0409C0.0015887 17.7109 -0.0710235 18.4481 0.0704556 19.1594C0.211935 19.8707 0.561151 20.524 1.07394 21.0368C1.58674 21.5496 2.24007 21.8988 2.95134 22.0403C3.6626 22.1818 4.39984 22.1092 5.06984 21.8316C5.73984 21.5541 6.31249 21.0841 6.71539 20.4812C7.11829 19.8782 7.33333 19.1693 7.33333 18.4441V8.74574L20.1667 6.34408V12.5417C19.6122 12.2101 18.9793 12.0326 18.3333 12.0274C17.6081 12.0274 16.8992 12.2425 16.2962 12.6454C15.6933 13.0483 15.2233 13.6209 14.9458 14.2909C14.6683 14.9609 14.5956 15.6981 14.7371 16.4094C14.8786 17.1207 15.2278 17.774 15.7406 18.2868C16.2534 18.7996 16.9067 19.1488 17.618 19.2903C18.3293 19.4318 19.0665 19.3592 19.7365 19.0816C20.4065 18.8041 20.9792 18.3341 21.3821 17.7312C21.785 17.1282 22 16.4193 22 15.6941V2.86074C22.0001 2.4566 21.9111 2.05742 21.7393 1.69158C21.5676 1.32575 21.3173 1.00227 21.0063 0.744161ZM3.66667 20.2774C3.30407 20.2774 2.94961 20.1699 2.64812 19.9684C2.34663 19.767 2.11165 19.4807 1.97289 19.1457C1.83413 18.8107 1.79782 18.442 1.86856 18.0864C1.9393 17.7308 2.11391 17.4041 2.37031 17.1477C2.6267 16.8913 2.95337 16.7167 3.309 16.646C3.66463 16.5752 4.03326 16.6115 4.36825 16.7503C4.70325 16.8891 4.98958 17.124 5.19103 17.4255C5.39248 17.727 5.5 18.0815 5.5 18.4441C5.5 18.9303 5.30685 19.3966 4.96303 19.7404C4.61921 20.0843 4.1529 20.2774 3.66667 20.2774ZM7.33333 6.88124V4.92416C7.33328 4.71043 7.40791 4.50339 7.54433 4.33885C7.68075 4.17431 7.87037 4.06262 8.08042 4.02308L19.0804 1.96058C19.2128 1.93566 19.349 1.94022 19.4794 1.97393C19.6098 2.00764 19.7312 2.06967 19.8349 2.15561C19.9386 2.24155 20.0221 2.34929 20.0794 2.47117C20.1368 2.59304 20.1666 2.72605 20.1667 2.86074V4.47408L7.33333 6.88124ZM18.3333 17.5274C17.9707 17.5274 17.6163 17.4199 17.3148 17.2184C17.0133 17.017 16.7783 16.7307 16.6396 16.3957C16.5008 16.0607 16.4645 15.692 16.5352 15.3364C16.606 14.9808 16.7806 14.6541 17.037 14.3977C17.2934 14.1413 17.62 13.9667 17.9757 13.896C18.3313 13.8252 18.6999 13.8615 19.0349 14.0003C19.3699 14.1391 19.6562 14.374 19.8577 14.6755C20.0591 14.977 20.1667 15.3315 20.1667 15.6941C20.1667 16.1803 19.9735 16.6466 19.6297 16.9904C19.2859 17.3343 18.8196 17.5274 18.3333 17.5274Z" fill="#FF715A"/>
<path d="M19.9401 0.0872232C20.3314 0.188325 20.6955 0.374637 21.0063 0.632833C21.3173 0.890944 21.5676 1.21442 21.7393 1.58026C21.9111 1.94609 22.0001 2.34528 22 2.74942V15.5827C22 16.3079 21.785 17.0169 21.3821 17.6198C20.9792 18.2228 20.4065 18.6928 19.7365 18.9703C19.0665 19.2478 18.3293 19.3204 17.618 19.179C16.9067 19.0375 16.2534 18.6883 15.7406 18.1755C15.2278 17.6627 14.8786 17.0093 14.7371 16.2981C14.5956 15.5868 14.6683 14.8496 14.9458 14.1796C15.2233 13.5096 15.6933 12.9369 16.2962 12.534C16.8992 12.1311 17.6081 11.9161 18.3333 11.9161C18.9793 11.9213 19.6122 12.0988 20.1667 12.4303V6.23275L7.33333 8.63442V18.3327C7.33333 19.0579 7.11829 19.7669 6.71539 20.3698C6.31249 20.9728 5.73984 21.4428 5.06984 21.7203C4.39984 21.9978 3.6626 22.0704 2.95134 21.929C2.24007 21.7875 1.58674 21.4383 1.07394 20.9255C0.561151 20.4127 0.211935 19.7593 0.0704556 19.0481C-0.0710235 18.3368 0.0015887 17.5996 0.27911 16.9296C0.556631 16.2596 1.0266 15.6869 1.62958 15.284C2.23256 14.8811 2.94147 14.6661 3.66667 14.6661C4.31223 14.6699 4.9451 14.8458 5.5 15.1757V4.81283C5.49953 4.17092 5.72362 3.54907 6.13346 3.05502C6.5433 2.56097 7.11305 2.22586 7.744 2.10775L18.7431 0.048C19.1401 -0.0272725 19.5489 -0.0138788 19.9401 0.0872232Z" fill="#FF715A"/>
</svg>
