<svg width="22" height="23" viewBox="0 0 22 23" fill="none" xmlns="http://www.w3.org/2000/svg">
<path d="M21.0063 0.744161C20.6955 0.485965 20.3314 0.299653 19.9401 0.198551C19.5489 0.0974494 19.1401 0.0840557 18.7431 0.159328L7.744 2.21908C7.11305 2.33719 6.5433 2.6723 6.13346 3.16635C5.72362 3.6604 5.49953 4.28225 5.5 4.92416V15.2871C4.9451 14.9571 4.31223 14.7812 3.66667 14.7774C2.94147 14.7774 2.23256 14.9925 1.62958 15.3954C1.0266 15.7983 0.556631 16.3709 0.27911 17.0409C0.0015887 17.7109 -0.0710235 18.4481 0.0704556 19.1594C0.211935 19.8707 0.561151 20.524 1.07394 21.0368C1.58674 21.5496 2.24007 21.8988 2.95134 22.0403C3.6626 22.1818 4.39984 22.1092 5.06984 21.8316C5.73984 21.5541 6.31249 21.0841 6.71539 20.4812C7.11829 19.8782 7.33333 19.1693 7.33333 18.4441V8.74574L20.1667 6.34408V12.5417C19.6122 12.2101 18.9793 12.0326 18.3333 12.0274C17.6081 12.0274 16.8992 12.2425 16.2962 12.6454C15.6933 13.0483 15.2233 13.6209 14.9458 14.2909C14.6683 14.9609 14.5956 15.6981 14.7371 16.4094C14.8786 17.1207 15.2278 17.774 15.7406 18.2868C16.2534 18.7996 16.9067 19.1488 17.618 19.2903C18.3293 19.4318 19.0665 19.3592 19.7365 19.0816C20.4065 18.8041 20.9792 18.3341 21.3821 17.7312C21.785 17.1282 22 16.4193 22 15.6941V2.86074C22.0001 2.4566 21.9111 2.05742 21.7393 1.69158C21.5676 1.32575 21.3173 1.00227 21.0063 0.744161Z" fill="#161C3D"/>
</svg>
