<svg width="19" height="26" viewBox="0 0 19 26" fill="none" xmlns="http://www.w3.org/2000/svg">
<path d="M14.5823 25.406H4.17084C3.56846 25.4057 2.97326 25.2752 2.42599 25.0235C1.87872 24.7718 1.39229 24.4048 1.00001 23.9477C0.613248 23.5005 0.327664 22.9751 0.1628 22.4073C-0.00206418 21.8395 -0.0423162 21.2429 0.0447986 20.6581C0.604081 17.6117 2.22914 14.8638 4.62917 12.906C2.2291 10.9475 0.604387 8.1988 0.0458404 5.15184C-0.0411039 4.56748 -0.000863103 3.97124 0.163813 3.40386C0.328489 2.83648 0.613718 2.31135 1.00001 1.86434C1.39229 1.4072 1.87872 1.04022 2.42599 0.788516C2.97326 0.536813 3.56846 0.406333 4.17084 0.406006L14.5823 0.406006C15.1846 0.406539 15.7798 0.537112 16.327 0.788801C16.8743 1.04049 17.3607 1.40736 17.7531 1.86434C18.1395 2.31116 18.4249 2.83605 18.5899 3.40321C18.7549 3.97037 18.7957 4.56645 18.7094 5.1508C18.1451 8.19866 16.5168 10.9471 14.1146 12.906C16.5154 14.8666 18.1419 17.6161 18.7042 20.6643C18.7906 21.2488 18.7498 21.8451 18.5848 22.4124C18.4198 22.9798 18.1343 23.5049 17.7479 23.9518C17.3557 24.4074 16.8699 24.7731 16.3236 25.024C15.7774 25.275 15.1834 25.4052 14.5823 25.406ZM14.5823 2.48934H4.17084C3.86869 2.48915 3.57005 2.55421 3.29535 2.68005C3.02065 2.80589 2.77636 2.98956 2.57917 3.21851C2.38662 3.43771 2.24434 3.69636 2.16228 3.97635C2.08023 4.25634 2.0604 4.55088 2.10417 4.83934C2.49584 7.44351 4.10834 9.88101 6.89584 12.0862C7.01901 12.1837 7.11852 12.3079 7.18693 12.4493C7.25535 12.5907 7.29088 12.7458 7.29088 12.9029C7.29088 13.06 7.25535 13.2151 7.18693 13.3565C7.11852 13.4979 7.01901 13.622 6.89584 13.7195C4.10834 15.9268 2.49897 18.3664 2.10417 20.9695C2.05993 21.2585 2.07952 21.5536 2.16159 21.8342C2.24365 22.1148 2.38619 22.3739 2.57917 22.5935C2.77636 22.8224 3.02065 23.0061 3.29535 23.132C3.57005 23.2578 3.86869 23.3229 4.17084 23.3227H14.5823C14.8845 23.3229 15.1831 23.2579 15.4578 23.1321C15.7325 23.0062 15.9768 22.8225 16.174 22.5935C16.3665 22.3747 16.5087 22.1164 16.5908 21.8368C16.6729 21.5571 16.6927 21.2629 16.649 20.9748C16.2604 18.3841 14.649 15.9445 11.8573 13.7227C11.7349 13.6251 11.636 13.5012 11.5681 13.3602C11.5002 13.2192 11.4649 13.0646 11.4649 12.9081C11.4649 12.7516 11.5002 12.597 11.5681 12.456C11.636 12.315 11.7349 12.1911 11.8573 12.0935C14.65 9.87163 16.2615 7.43205 16.649 4.84038C16.6926 4.55137 16.6721 4.25631 16.5892 3.97606C16.5062 3.6958 16.3627 3.43719 16.1688 3.21851C15.9722 2.99018 15.7287 2.80686 15.455 2.68104C15.1812 2.55522 14.8836 2.48983 14.5823 2.48934ZM13.2083 21.2393H5.53855C5.36811 21.2393 5.20029 21.1974 5.04982 21.1173C4.89934 21.0373 4.7708 20.9216 4.67548 20.7803C4.58016 20.639 4.52096 20.4765 4.50308 20.307C4.4852 20.1375 4.50918 19.9662 4.57292 19.8081C5.38863 18.0467 6.63147 16.5171 8.18855 15.3581L8.72813 14.9289C8.91246 14.7823 9.14104 14.7025 9.37657 14.7025C9.6121 14.7025 9.84068 14.7823 10.025 14.9289L10.5552 15.3518C12.1101 16.5154 13.3529 18.0456 14.1729 19.806C14.2371 19.9641 14.2614 20.1355 14.2438 20.3052C14.2262 20.4749 14.1671 20.6377 14.0719 20.7792C13.9766 20.9208 13.8481 21.0368 13.6975 21.117C13.5469 21.1972 13.379 21.2392 13.2083 21.2393ZM7.32605 19.156H11.4177C10.8234 18.3813 10.1371 17.6818 9.37396 17.0727C8.60746 17.6794 7.91953 18.3792 7.32605 19.156Z" fill="black"/>
</svg>
