<svg width="22" height="23" viewBox="0 0 22 23" fill="none" xmlns="http://www.w3.org/2000/svg">
<path d="M10.0201 3.29964C9.82333 2.57571 9.39384 1.93665 8.79787 1.48103C8.20189 1.02541 7.47256 0.778564 6.72237 0.778564C5.97219 0.778564 5.24286 1.02541 4.64688 1.48103C4.05091 1.93665 3.62142 2.57571 3.42467 3.29964H0V5.13297H3.42467C3.62142 5.85689 4.05091 6.49595 4.64688 6.95157C5.24286 7.40719 5.97219 7.65404 6.72237 7.65404C7.47256 7.65404 8.20189 7.40719 8.79787 6.95157C9.39384 6.49595 9.82333 5.85689 10.0201 5.13297H22V3.29964H10.0201ZM6.72192 5.82047C6.40464 5.82047 6.09449 5.72639 5.83069 5.55012C5.56689 5.37385 5.36128 5.12331 5.23986 4.83019C5.11844 4.53707 5.08668 4.21452 5.14857 3.90334C5.21047 3.59217 5.36325 3.30633 5.5876 3.08198C5.81195 2.85764 6.09778 2.70486 6.40896 2.64296C6.72014 2.58106 7.04268 2.61283 7.3358 2.73425C7.62893 2.85566 7.87946 3.06127 8.05573 3.32507C8.232 3.58888 8.32608 3.89903 8.32608 4.2163C8.32536 4.64153 8.15611 5.04913 7.85543 5.34982C7.55475 5.6505 7.14715 5.81974 6.72192 5.82047Z" fill="white"/>
<path d="M15.2781 8.34131C14.5287 8.34399 13.8007 8.59183 13.2054 9.047C12.61 9.50217 12.1799 10.1397 11.9808 10.8621H0V12.6955H11.9808C12.1773 13.4196 12.6066 14.0589 13.2025 14.5147C13.7984 14.9705 14.5278 15.2174 15.2781 15.2174C16.0283 15.2174 16.7577 14.9705 17.3537 14.5147C17.9496 14.0589 18.3789 13.4196 18.5753 12.6955H22V10.8621H18.5753C18.3762 10.1397 17.9462 9.50217 17.3508 9.047C16.7554 8.59183 16.0275 8.34399 15.2781 8.34131ZM15.2781 13.383C14.9608 13.383 14.6507 13.2889 14.3869 13.1126C14.1231 12.9364 13.9174 12.6858 13.796 12.3927C13.6746 12.0996 13.6428 11.777 13.7047 11.4659C13.7666 11.1547 13.9194 10.8688 14.1438 10.6445C14.3681 10.4201 14.6539 10.2674 14.9651 10.2055C15.2763 10.1436 15.5988 10.1753 15.892 10.2968C16.1851 10.4182 16.4356 10.6238 16.6119 10.8876C16.7882 11.1514 16.8822 11.4615 16.8822 11.7788C16.8818 12.2041 16.7126 12.6119 16.4119 12.9126C16.1111 13.2133 15.7034 13.3825 15.2781 13.383Z" fill="white"/>
<path d="M6.72192 15.9038C5.97203 15.9059 5.24345 16.1535 4.64754 16.6087C4.05162 17.0639 3.62115 17.7017 3.42192 18.4246H0V20.258H3.42467C3.62142 20.9819 4.05091 21.621 4.64688 22.0766C5.24286 22.5322 5.97219 22.779 6.72237 22.779C7.47256 22.779 8.20189 22.5322 8.79787 22.0766C9.39384 21.621 9.82333 20.9819 10.0201 20.258H22V18.4246H10.0201C9.82093 17.702 9.39074 17.0644 8.79519 16.6092C8.19965 16.154 7.47149 15.9063 6.72192 15.9038ZM6.72192 20.9455C6.40464 20.9455 6.09449 20.8514 5.83069 20.6751C5.56689 20.4989 5.36128 20.2483 5.23986 19.9552C5.11844 19.6621 5.08668 19.3395 5.14857 19.0284C5.21047 18.7172 5.36325 18.4313 5.5876 18.207C5.81195 17.9826 6.09778 17.8299 6.40896 17.768C6.72014 17.7061 7.04268 17.7378 7.3358 17.8593C7.62893 17.9807 7.87946 18.1863 8.05573 18.4501C8.232 18.7139 8.32608 19.024 8.32608 19.3413C8.32536 19.7665 8.15611 20.1741 7.85543 20.4748C7.55475 20.7755 7.14715 20.9447 6.72192 20.9455Z" fill="white"/>
</svg>
