<svg width="22" height="24" viewBox="0 0 22 24" fill="none" xmlns="http://www.w3.org/2000/svg">
<path d="M21.7197 10.0821C21.5414 9.90382 21.2996 9.80368 21.0474 9.80368C20.7953 9.80368 20.5535 9.90382 20.3752 10.0821L10.0185 20.4834C9.57705 20.925 9.05293 21.2752 8.4761 21.5142C7.89927 21.7532 7.28101 21.8762 6.65664 21.8763C5.39565 21.8763 4.18628 21.3755 3.29457 20.4839C2.40285 19.5923 1.90184 18.383 1.90175 17.122C1.90166 15.8611 2.4025 14.6517 3.29409 13.76L13.3246 3.68855C13.861 3.16072 14.5842 2.86623 15.3367 2.8692C16.0892 2.87218 16.8101 3.17238 17.3423 3.70443C17.8744 4.23648 18.1748 4.95727 18.178 5.70978C18.1811 6.4623 17.8868 7.18557 17.3591 7.72206L7.32855 17.7935C7.14766 17.9668 6.90682 18.0635 6.6563 18.0635C6.40579 18.0635 6.16495 17.9668 5.98405 17.7935C5.80579 17.6152 5.70565 17.3734 5.70565 17.1212C5.70565 16.8691 5.80579 16.6273 5.98405 16.449L14.9145 7.47769C15.0877 7.29836 15.1835 7.05818 15.1813 6.80886C15.1792 6.55955 15.0792 6.32107 14.9029 6.14477C14.7266 5.96848 14.4881 5.86848 14.2388 5.86631C13.9895 5.86414 13.7493 5.95999 13.5699 6.13319L4.63955 15.1045C4.37461 15.3694 4.16445 15.6839 4.02106 16.03C3.87768 16.3761 3.80388 16.7471 3.80388 17.1217C3.80388 17.4964 3.87768 17.8673 4.02106 18.2134C4.16445 18.5596 4.37461 18.8741 4.63955 19.1389C5.18307 19.6576 5.90549 19.947 6.65678 19.947C7.40806 19.947 8.13048 19.6576 8.67401 19.1389L18.7036 9.06657C19.5765 8.17115 20.0614 6.9679 20.0534 5.71745C20.0454 4.467 19.5451 3.27006 18.6608 2.38591C17.7765 1.50175 16.5795 1.00158 15.329 0.993746C14.0786 0.985911 12.8754 1.47104 11.9801 2.34405L1.94959 12.4155C0.701287 13.6638 -1.86011e-08 15.3568 0 17.1222C1.86011e-08 18.8875 0.701287 20.5806 1.94959 21.8289C3.19788 23.0772 4.89094 23.7785 6.6563 23.7785C8.42166 23.7785 10.1147 23.0772 11.363 21.8289L21.7197 11.4304C21.8085 11.342 21.879 11.237 21.9271 11.1213C21.9752 11.0056 22 10.8815 22 10.7562C22 10.6309 21.9752 10.5069 21.9271 10.3912C21.879 10.2755 21.8085 10.1704 21.7197 10.0821Z" fill="#161C3D"/>
</svg>
