<svg width="22" height="23" viewBox="0 0 22 23" fill="none" xmlns="http://www.w3.org/2000/svg">
<path d="M6.41667 11.4167C6.41667 13.9467 8.47 16.0001 11 16.0001C13.53 16.0001 15.5833 13.9467 15.5833 11.4167C15.5833 8.88675 13.53 6.83342 11 6.83342C8.47 6.83342 6.41667 8.88675 6.41667 11.4167Z" fill="#161C3D"/>
<path d="M11.9167 1.33341V4.08341C11.9167 4.58758 11.5042 5.00008 11 5.00008C10.4958 5.00008 10.0833 4.58758 10.0833 4.08341V1.33341C10.0833 0.829248 10.4958 0.416748 11 0.416748C11.5042 0.416748 11.9167 0.829248 11.9167 1.33341Z" fill="#161C3D"/>
<path d="M11.9167 18.7501V21.5001C11.9167 22.0042 11.5042 22.4167 11 22.4167C10.4958 22.4167 10.0833 22.0042 10.0833 21.5001V18.7501C10.0833 18.2459 10.4958 17.8334 11 17.8334C11.5042 17.8334 11.9167 18.2459 11.9167 18.7501Z" fill="#161C3D"/>
<path d="M3.66667 10.5001C4.17083 10.5001 4.58333 10.9126 4.58333 11.4167C4.58333 11.9209 4.17083 12.3334 3.66667 12.3334H0.916667C0.4125 12.3334 0 11.9209 0 11.4167C0 10.9126 0.4125 10.5001 0.916667 10.5001H3.66667Z" fill="#161C3D"/>
<path d="M21.0833 10.5001C21.5875 10.5001 22 10.9126 22 11.4167C22 11.9209 21.5875 12.3334 21.0833 12.3334H18.3333C17.8292 12.3334 17.4167 11.9209 17.4167 11.4167C17.4167 10.9126 17.8292 10.5001 18.3333 10.5001H21.0833Z" fill="#161C3D"/>
<path d="M6.15083 5.27508C6.50833 5.63258 6.50833 6.21008 6.15083 6.56758H6.16C5.97667 6.74175 5.7475 6.83342 5.50917 6.83342C5.27083 6.83342 5.04167 6.75092 4.85833 6.56758L3.025 4.73425C2.6675 4.37675 2.6675 3.79925 3.025 3.44175C3.3825 3.08425 3.96 3.08425 4.3175 3.44175L6.15083 5.27508Z" fill="#161C3D"/>
<path d="M18.9842 18.1084C19.3417 18.4659 19.3417 19.0434 18.9842 19.4009H18.9933C18.81 19.5751 18.5808 19.6667 18.3425 19.6667C18.1042 19.6667 17.875 19.5842 17.6917 19.4009L15.8583 17.5676C15.5008 17.2101 15.5008 16.6326 15.8583 16.2751C16.2158 15.9176 16.7933 15.9176 17.1508 16.2751L18.9842 18.1084Z" fill="#161C3D"/>
<path d="M6.15083 17.5676L4.3175 19.4009H4.32667C4.14333 19.5751 3.91417 19.6667 3.67583 19.6667C3.4375 19.6667 3.20833 19.5842 3.025 19.4009C2.6675 19.0434 2.6675 18.4659 3.025 18.1084L4.85833 16.2751C5.21583 15.9176 5.79333 15.9176 6.15083 16.2751C6.50833 16.6326 6.50833 17.2101 6.15083 17.5676Z" fill="#161C3D"/>
<path d="M18.9842 4.73425L17.1508 6.56758H17.16C16.9767 6.74175 16.7475 6.83342 16.5092 6.83342C16.2708 6.83342 16.0417 6.75092 15.8583 6.56758C15.5008 6.21008 15.5008 5.63258 15.8583 5.27508L17.6917 3.44175C18.0492 3.08425 18.6267 3.08425 18.9842 3.44175C19.3417 3.79925 19.3417 4.37675 18.9842 4.73425Z" fill="#161C3D"/>
</svg>
