<svg width="22" height="23" viewBox="0 0 22 23" fill="none" xmlns="http://www.w3.org/2000/svg">
<path d="M11 0.406006C8.82441 0.406006 6.69767 1.05114 4.88873 2.25984C3.07979 3.46854 1.66989 5.1865 0.83733 7.19649C0.00476615 9.20647 -0.213071 11.4182 0.211367 13.552C0.635804 15.6858 1.68345 17.6458 3.22183 19.1842C4.76021 20.7226 6.72022 21.7702 8.85401 22.1946C10.9878 22.6191 13.1995 22.4012 15.2095 21.5687C17.2195 20.7361 18.9375 19.3262 20.1462 17.5173C21.3549 15.7083 22 13.5816 22 11.406C21.9968 8.48959 20.8369 5.69353 18.7747 3.63131C16.7125 1.5691 13.9164 0.40916 11 0.406006ZM11 20.5727C9.18701 20.5727 7.41473 20.0351 5.90728 19.0278C4.39983 18.0206 3.22491 16.5889 2.53111 14.9139C1.83731 13.2389 1.65578 11.3958 2.00947 9.61768C2.36317 7.83952 3.23621 6.20617 4.51819 4.92419C5.80017 3.64221 7.43352 2.76917 9.21168 2.41547C10.9898 2.06178 12.8329 2.24331 14.5079 2.93711C16.1829 3.63091 17.6146 4.80583 18.6218 6.31328C19.6291 7.82073 20.1667 9.59301 20.1667 11.406C20.164 13.8363 19.1974 16.1664 17.4789 17.8849C15.7604 19.6034 13.4303 20.57 11 20.5727Z" fill="#161C3D"/>
<path d="M10.9998 9.57275H10.0832C9.84006 9.57275 9.6069 9.66933 9.43499 9.84124C9.26308 10.0131 9.1665 10.2463 9.1665 10.4894C9.1665 10.7325 9.26308 10.9657 9.43499 11.1376C9.6069 11.3095 9.84006 11.4061 10.0832 11.4061H10.9998V16.9061C10.9998 17.1492 11.0964 17.3824 11.2683 17.5543C11.4402 17.7262 11.6734 17.8228 11.9165 17.8228C12.1596 17.8228 12.3928 17.7262 12.5647 17.5543C12.7366 17.3824 12.8332 17.1492 12.8332 16.9061V11.4061C12.8332 10.9199 12.64 10.4535 12.2962 10.1097C11.9524 9.76591 11.4861 9.57275 10.9998 9.57275Z" fill="#161C3D"/>
<path d="M11 7.73926C11.7594 7.73926 12.375 7.12365 12.375 6.36426C12.375 5.60487 11.7594 4.98926 11 4.98926C10.2406 4.98926 9.625 5.60487 9.625 6.36426C9.625 7.12365 10.2406 7.73926 11 7.73926Z" fill="#161C3D"/>
</svg>
