<svg width="22" height="26" viewBox="0 0 22 26" fill="none" xmlns="http://www.w3.org/2000/svg">
<path d="M21.5001 4.57292H16.2917V2.48958C16.2917 1.93705 16.0723 1.40715 15.6816 1.01644C15.2909 0.625743 14.761 0.40625 14.2084 0.40625L7.95842 0.40625C7.40588 0.40625 6.87598 0.625743 6.48528 1.01644C6.09457 1.40715 5.87508 1.93705 5.87508 2.48958V4.57292H0.666748V6.65625H2.75008V22.2812C2.75008 23.1101 3.07932 23.9049 3.66537 24.491C4.25142 25.077 5.04628 25.4062 5.87508 25.4062H16.2917C17.1206 25.4062 17.9154 25.077 18.5015 24.491C19.0875 23.9049 19.4167 23.1101 19.4167 22.2812V6.65625H21.5001V4.57292ZM7.95842 2.48958H14.2084V4.57292H7.95842V2.48958ZM17.3334 22.2812C17.3334 22.5575 17.2237 22.8225 17.0283 23.0178C16.833 23.2132 16.568 23.3229 16.2917 23.3229H5.87508C5.59881 23.3229 5.33386 23.2132 5.13851 23.0178C4.94316 22.8225 4.83342 22.5575 4.83342 22.2812V6.65625H17.3334V22.2812Z" fill="#161C3D"/>
<path d="M10.0418 10.8228H7.9585V19.1561H10.0418V10.8228Z" fill="#161C3D"/>
<path d="M14.2083 10.8228H12.125V19.1561H14.2083V10.8228Z" fill="#161C3D"/>
</svg>
