<svg width="34" height="23" viewBox="0 0 34 23" fill="none" xmlns="http://www.w3.org/2000/svg">
<path d="M31.4936 3.81672C30.564 3.35194 29.4681 3.44957 28.6375 4.07523C28.5839 4.11511 28.533 4.16049 28.4863 4.20724L26.0703 6.64527C25.7801 3.11818 22.8512 0.328125 19.2512 0.328125H6.87543C3.08432 0.32675 0 3.41107 0 7.20218V15.4527C0 19.2438 3.08432 22.3281 6.87543 22.3281H19.2512C22.8663 22.3281 25.8076 19.5133 26.0744 15.9656L28.489 18.3775C28.5358 18.4229 28.5839 18.4641 28.6362 18.504C29.1202 18.867 29.6922 19.0513 30.2698 19.0513C30.6864 19.0513 31.1031 18.9564 31.4936 18.7612C32.4245 18.2964 33.0021 17.3599 33.0021 16.3218V6.25887C33.0021 5.21793 32.4245 4.2815 31.4936 3.81672ZM19.2512 19.578H6.87543C4.60104 19.578 2.75017 17.7271 2.75017 15.4527V7.20218C2.75017 4.92779 4.60104 3.07692 6.87543 3.07692H19.2512C21.5256 3.07692 23.3765 4.92779 23.3765 7.20218V15.4527C23.3765 17.7271 21.5256 19.578 19.2512 19.578ZM26.1266 12.1291V10.4941L30.2519 6.33038L30.2863 16.2832L26.1266 12.1277V12.1291Z" fill="black"/>
</svg>
