<svg width="34" height="23" viewBox="0 0 34 23" fill="none" xmlns="http://www.w3.org/2000/svg">
<path d="M31.5034 3.81672C30.5738 3.35194 29.4779 3.44957 28.6473 4.07523C28.5937 4.11511 28.5428 4.16049 28.496 4.20724L26.08 6.64527C25.7899 3.11818 22.8609 0.328125 19.261 0.328125H6.88519C3.09408 0.32675 0.00976562 3.41107 0.00976562 7.20218V15.4527C0.00976562 19.2438 3.09408 22.3281 6.88519 22.3281H19.261C22.8761 22.3281 25.8174 19.5133 26.0841 15.9656L28.4988 18.3775C28.5455 18.4229 28.5937 18.4641 28.6459 18.504C29.13 18.867 29.702 19.0513 30.2795 19.0513C30.6962 19.0513 31.1128 18.9564 31.5034 18.7612C32.4343 18.2964 33.0118 17.3599 33.0118 16.3218V6.25887C33.0118 5.21793 32.4343 4.2815 31.5034 3.81672ZM19.261 19.578H6.88519C4.6108 19.578 2.75994 17.7271 2.75994 15.4527V7.20218C2.75994 4.92779 4.6108 3.07692 6.88519 3.07692H19.261C21.5354 3.07692 23.3862 4.92779 23.3862 7.20218V15.4527C23.3862 17.7271 21.5354 19.578 19.261 19.578ZM26.1364 12.1291V10.4941L30.2617 6.33038L30.296 16.2832L26.1364 12.1277V12.1291Z" fill="#FF715A"/>
</svg>
