<svg width="22" height="23" viewBox="0 0 22 23" fill="none" xmlns="http://www.w3.org/2000/svg">
<path d="M22 20.8821L16.2675 15.1496C17.7566 13.3284 18.4887 11.0045 18.3124 8.65864C18.1362 6.31278 17.065 4.12441 15.3205 2.54617C13.576 0.967934 11.2917 0.120581 8.93992 0.179381C6.58819 0.238182 4.34902 1.19864 2.68557 2.86209C1.02212 4.52553 0.0616685 6.7647 0.00286772 9.11644C-0.055933 11.4682 0.79142 13.7525 2.36966 15.497C3.9479 17.2415 6.13627 18.3127 8.48213 18.489C10.828 18.6652 13.1518 17.9331 14.973 16.444L20.7056 22.1765L22 20.8821ZM9.18376 16.6838C7.73529 16.6838 6.31936 16.2543 5.115 15.4496C3.91065 14.6449 2.97197 13.5011 2.41767 12.1629C1.86336 10.8247 1.71833 9.35215 2.00091 7.93152C2.28349 6.51088 2.981 5.20595 4.00522 4.18173C5.02944 3.15751 6.33437 2.46001 7.755 2.17743C9.17564 1.89485 10.6482 2.03988 11.9864 2.59418C13.3246 3.14848 14.4684 4.08716 15.2731 5.29152C16.0778 6.49587 16.5073 7.91181 16.5073 9.36027C16.5051 11.3019 15.7329 13.1634 14.3599 14.5364C12.9869 15.9094 11.1254 16.6817 9.18376 16.6838Z" fill="white"/>
</svg>
