<svg width="20" height="26" viewBox="0 0 20 26" fill="none" xmlns="http://www.w3.org/2000/svg">
<path d="M15.0891 25.406H4.67768C4.0753 25.4057 3.4801 25.2752 2.93282 25.0235C2.38555 24.7718 1.89913 24.4048 1.50684 23.9477C1.12008 23.5005 0.8345 22.9751 0.669636 22.4073C0.504772 21.8395 0.46452 21.2429 0.551634 20.6581C1.11092 17.6117 2.73597 14.8638 5.13601 12.906C2.73594 10.9475 1.11122 8.1988 0.552676 5.15184C0.465732 4.56748 0.505973 3.97124 0.670649 3.40386C0.835325 2.83648 1.12055 2.31135 1.50684 1.86434C1.89913 1.4072 2.38555 1.04022 2.93282 0.788516C3.4801 0.536813 4.0753 0.406333 4.67768 0.406006L15.0891 0.406006C15.6915 0.406539 16.2866 0.537112 16.8339 0.788801C17.3811 1.04049 17.8676 1.40736 18.26 1.86434C18.6463 2.31116 18.9317 2.83605 19.0967 3.40321C19.2618 3.97037 19.3025 4.56646 19.2162 5.1508C18.652 8.19866 17.0236 10.9471 14.6214 12.906C17.0222 14.8666 18.6487 17.6161 19.211 20.6643C19.2974 21.2488 19.2567 21.8451 19.0917 22.4124C18.9266 22.9798 18.6412 23.5049 18.2548 23.9518C17.8625 24.4074 17.3767 24.7731 16.8305 25.024C16.2842 25.275 15.6903 25.4052 15.0891 25.406ZM13.7152 21.2393H6.04538C5.87495 21.2393 5.70713 21.1974 5.55665 21.1173C5.40618 21.0373 5.27764 20.9216 5.18232 20.7803C5.08699 20.639 5.02779 20.4765 5.00991 20.307C4.99203 20.1375 5.01602 19.9662 5.07976 19.8081C5.89546 18.0467 7.13831 16.5171 8.69538 15.3581L9.23497 14.9289C9.4193 14.7823 9.64788 14.7025 9.8834 14.7025C10.1189 14.7025 10.3475 14.7823 10.5318 14.9289L11.0621 15.3518C12.6169 16.5154 13.8598 18.0456 14.6798 19.806C14.7439 19.9641 14.7682 20.1355 14.7506 20.3052C14.733 20.4749 14.674 20.6377 14.5787 20.7792C14.4835 20.9208 14.3549 21.0368 14.2043 21.117C14.0538 21.1972 13.8858 21.2392 13.7152 21.2393ZM7.83288 19.156H11.9246C11.3302 18.3813 10.6439 17.6818 9.8808 17.0727C9.1143 17.6794 8.42637 18.3792 7.83288 19.156Z" fill="#161C3D"/>
</svg>
