<svg width="22" height="23" viewBox="0 0 22 23" fill="none" xmlns="http://www.w3.org/2000/svg">
<g clip-path="url(#clip0_453_2989)">
<path d="M20.8662 10.2191L16.3287 5.68164L15.0334 6.98147L18.9751 10.9231H6.06567V12.7565H18.9751L15.0334 16.6981L16.3296 17.9943L20.8671 13.4568C21.08 13.244 21.2488 12.9913 21.364 12.7133C21.4792 12.4352 21.5385 12.1371 21.5385 11.8361C21.5385 11.5351 21.4792 11.2371 21.364 10.959C21.2488 10.6809 21.08 10.4283 20.8671 10.2155L20.8662 10.2191Z" fill="#FF715A"/>
<path d="M9.603 20.0898C9.603 20.333 9.50642 20.5661 9.33451 20.738C9.16261 20.9099 8.92945 21.0065 8.68633 21.0065H2.75C2.50688 21.0065 2.27373 20.9099 2.10182 20.738C1.92991 20.5661 1.83333 20.333 1.83333 20.0898V3.58984C1.83333 3.34673 1.92991 3.11357 2.10182 2.94166C2.27373 2.76975 2.50688 2.67318 2.75 2.67318H8.68633C8.92945 2.67318 9.16261 2.76975 9.33451 2.94166C9.50642 3.11357 9.603 3.34673 9.603 3.58984V8.47843H11.4363V3.58984C11.4363 2.8605 11.1466 2.16103 10.6309 1.6453C10.1152 1.12958 9.41568 0.839844 8.68633 0.839844L2.75 0.839844C2.02065 0.839844 1.32118 1.12958 0.805456 1.6453C0.289731 2.16103 0 2.8605 0 3.58984L0 20.0898C0 20.8192 0.289731 21.5187 0.805456 22.0344C1.32118 22.5501 2.02065 22.8398 2.75 22.8398H8.68633C9.41568 22.8398 10.1152 22.5501 10.6309 22.0344C11.1466 21.5187 11.4363 20.8192 11.4363 20.0898V15.2013H9.603V20.0898Z" fill="#FF715A"/>
</g>
<defs>
<clipPath id="clip0_453_2989">
<rect width="22" height="22" fill="white" transform="translate(0 0.839844)"/>
</clipPath>
</defs>
</svg>
