<svg width="40" height="41" viewBox="0 0 40 41" fill="none" xmlns="http://www.w3.org/2000/svg">
<g clip-path="url(#clip0_198_2237)">
<path opacity="0.943" fill-rule="evenodd" clip-rule="evenodd" d="M11.0547 0.627563C11.9922 0.627563 12.9297 0.627563 13.8672 0.627563C17.8611 1.19831 20.947 3.17748 23.125 6.56506C24.1346 8.55819 25.1241 10.5634 26.0938 12.5807C27.5716 14.8887 29.6939 15.9694 32.4609 15.8229C32.756 16.0537 32.8471 16.3532 32.7344 16.7213C32.6395 16.8423 32.5223 16.9334 32.3828 16.9948C29.2148 17.2271 26.7799 16.0162 25.0781 13.3619C24.1098 11.3471 23.1202 9.34186 22.1094 7.34631C19.0707 2.8167 14.865 1.11097 9.49219 2.22913C5.85211 3.36954 3.31305 5.70027 1.875 9.22131C1.62328 9.93303 1.44099 10.6622 1.32812 11.4088C1.21213 20.756 1.17306 30.1049 1.21094 39.4557C1.86198 39.4557 2.51302 39.4557 3.16406 39.4557C3.15105 38.7261 3.16408 37.9969 3.20312 37.2682C3.40167 36.9112 3.70115 36.794 4.10156 36.9166C4.22256 37.0115 4.31371 37.1287 4.375 37.2682C4.41405 37.9969 4.42707 38.7261 4.41406 39.4557C5.40365 39.4557 6.39323 39.4557 7.38281 39.4557C7.38281 37.5026 7.38281 35.5494 7.38281 33.5963C6.61683 33.6891 6.10902 33.3766 5.85938 32.6588C5.82031 30.3412 5.8073 28.0236 5.82031 25.7057C5.35156 25.7057 4.88281 25.7057 4.41406 25.7057C4.42709 28.8829 4.41406 32.06 4.375 35.2369C4.14199 35.6329 3.81647 35.724 3.39844 35.5104C3.30458 35.4398 3.23947 35.3487 3.20312 35.2369C3.15104 31.7734 3.15104 28.3098 3.20312 24.8463C3.26823 24.677 3.38541 24.5598 3.55469 24.4948C14.4662 24.4426 25.3776 24.4426 36.2891 24.4948C36.3802 24.5859 36.4713 24.677 36.5625 24.7682C36.6146 25.6015 36.6146 26.4348 36.5625 27.2682C36.143 27.8087 35.7523 27.7826 35.3906 27.1901C35.3516 26.6959 35.3386 26.2012 35.3516 25.7057C34.9088 25.7057 34.4662 25.7057 34.0234 25.7057C34.0365 28.0496 34.0234 30.3933 33.9844 32.7369C33.7219 33.4351 33.2141 33.7215 32.4609 33.5963C32.4609 35.5494 32.4609 37.5026 32.4609 39.4557C33.4245 39.4557 34.388 39.4557 35.3516 39.4557C35.3385 36.0962 35.3516 32.7369 35.3906 29.3776C35.4676 29.0521 35.6759 28.8958 36.0156 28.9088C36.2714 28.8933 36.4537 28.9974 36.5625 29.2213C36.6016 32.6326 36.6146 36.0441 36.6016 39.4557C37.3047 39.4557 38.0078 39.4557 38.7109 39.4557C38.724 32.815 38.7109 26.1744 38.6719 19.5338C38.3724 18.1926 37.5521 17.3723 36.2109 17.0729C35.638 17.0469 35.0651 17.0208 34.4922 16.9948C33.901 16.6369 33.8749 16.2463 34.4141 15.8229C36.2027 15.5078 37.7261 15.9896 38.9844 17.2682C39.4823 17.899 39.8079 18.6022 39.9609 19.3776C39.9609 26.2265 39.9609 33.0755 39.9609 39.9244C39.8047 40.2369 39.5703 40.4713 39.2578 40.6276C26.3932 40.6276 13.5287 40.6276 0.664062 40.6276C0.351562 40.4713 0.117188 40.2369 -0.0390625 39.9244C-0.0390625 30.6015 -0.0390625 21.2786 -0.0390625 11.9557C0.727351 6.45311 3.74819 2.8203 9.02344 1.05725C9.70602 0.88701 10.383 0.743781 11.0547 0.627563ZM7.07031 25.7057C7.69531 25.7057 8.32031 25.7057 8.94531 25.7057C8.94531 27.9192 8.94531 30.1328 8.94531 32.3463C8.32031 32.3463 7.69531 32.3463 7.07031 32.3463C7.07031 30.1328 7.07031 27.9192 7.07031 25.7057ZM10.1953 25.7057C10.5599 25.7057 10.9245 25.7057 11.2891 25.7057C11.2891 30.289 11.2891 34.8723 11.2891 39.4557C10.4037 39.4557 9.5182 39.4557 8.63281 39.4557C8.63281 37.5026 8.63281 35.5494 8.63281 33.5963C9.34273 33.7167 9.85055 33.4562 10.1562 32.8151C10.1953 30.4454 10.2084 28.0756 10.1953 25.7057ZM12.5391 25.7057C12.8776 25.7057 13.2162 25.7057 13.5547 25.7057C13.5416 27.9975 13.5547 30.2892 13.5938 32.5807C13.8248 33.3805 14.3587 33.7191 15.1953 33.5963C15.1953 35.5494 15.1953 37.5026 15.1953 39.4557C14.3099 39.4557 13.4245 39.4557 12.5391 39.4557C12.5391 34.8723 12.5391 30.289 12.5391 25.7057ZM14.8047 25.7057C15.4557 25.7057 16.1068 25.7057 16.7578 25.7057C16.7578 27.9192 16.7578 30.1328 16.7578 32.3463C16.1068 32.3463 15.4557 32.3463 14.8047 32.3463C14.8047 30.1328 14.8047 27.9192 14.8047 25.7057ZM18.0078 25.7057C18.4505 25.7057 18.8932 25.7057 19.3359 25.7057C19.3359 30.289 19.3359 34.8723 19.3359 39.4557C18.3724 39.4557 17.4088 39.4557 16.4453 39.4557C16.4453 37.5026 16.4453 35.5494 16.4453 33.5963C17.2519 33.695 17.7597 33.3564 17.9688 32.5807C18.0078 30.2892 18.0209 27.9975 18.0078 25.7057ZM20.5859 25.7057C21.0287 25.7057 21.4713 25.7057 21.9141 25.7057C21.901 28.0756 21.9141 30.4454 21.9531 32.8151C22.2588 33.4562 22.7666 33.7167 23.4766 33.5963C23.4766 35.5494 23.4766 37.5026 23.4766 39.4557C22.513 39.4557 21.5495 39.4557 20.5859 39.4557C20.5859 34.8723 20.5859 30.289 20.5859 25.7057ZM23.1641 25.7057C23.7891 25.7057 24.4141 25.7057 25.0391 25.7057C25.0391 27.9192 25.0391 30.1328 25.0391 32.3463C24.4141 32.3463 23.7891 32.3463 23.1641 32.3463C23.1641 30.1328 23.1641 27.9192 23.1641 25.7057ZM26.2891 25.7057C26.6276 25.7057 26.9662 25.7057 27.3047 25.7057C27.3047 30.289 27.3047 34.8723 27.3047 39.4557C26.4453 39.4557 25.5859 39.4557 24.7266 39.4557C24.7266 37.5026 24.7266 35.5494 24.7266 33.5963C25.4509 33.6836 25.9587 33.3972 26.25 32.7369C26.2891 30.3933 26.3021 28.0496 26.2891 25.7057ZM28.5547 25.7057C28.9193 25.7057 29.2838 25.7057 29.6484 25.7057C29.6354 28.0496 29.6484 30.3933 29.6875 32.7369C29.9555 33.4323 30.4633 33.7188 31.2109 33.5963C31.2109 35.5494 31.2109 37.5026 31.2109 39.4557C30.3255 39.4557 29.4401 39.4557 28.5547 39.4557C28.5547 34.8723 28.5547 30.289 28.5547 25.7057ZM30.8984 25.7057C31.5234 25.7057 32.1484 25.7057 32.7734 25.7057C32.7734 27.9192 32.7734 30.1328 32.7734 32.3463C32.1484 32.3463 31.5234 32.3463 30.8984 32.3463C30.8984 30.1328 30.8984 27.9192 30.8984 25.7057Z" fill="#FF8E7C"/>
</g>
<defs>
<clipPath id="clip0_198_2237">
<rect width="40" height="40" fill="white" transform="translate(0 0.666626)"/>
</clipPath>
</defs>
</svg>
