<svg width="22" height="24" viewBox="0 0 22 24" fill="none" xmlns="http://www.w3.org/2000/svg">
<path d="M21.8946 15.8189L19.394 6.80635C18.86 4.87844 17.6966 3.18453 16.0887 1.99421C14.4809 0.803891 12.5211 0.185572 10.5213 0.23766C8.52151 0.289748 6.59658 1.00925 5.0529 2.28165C3.50922 3.55406 2.4355 5.30624 2.00262 7.25934L0.0685375 15.9632C-0.0250481 16.3849 -0.0227653 16.8222 0.0752172 17.2429C0.1732 17.6635 0.364382 18.0568 0.634658 18.3938C0.904935 18.7307 1.24741 19.0026 1.63681 19.1895C2.02622 19.3764 2.45262 19.4735 2.88455 19.4736H6.35359C6.57433 20.5607 7.16409 21.538 8.02295 22.24C8.8818 22.942 9.95694 23.3254 11.0662 23.3254C12.1754 23.3254 13.2506 22.942 14.1094 22.24C14.9683 21.538 15.558 20.5607 15.7788 19.4736H19.1161C19.5605 19.4734 19.9989 19.3705 20.397 19.173C20.7951 18.9755 21.1423 18.6887 21.4113 18.3349C21.6803 17.9812 21.864 17.5701 21.948 17.1336C22.032 16.6972 22.0131 16.2473 21.8946 15.8189ZM11.0662 21.3971C10.4716 21.3946 9.89224 21.2085 9.40745 20.8642C8.92266 20.5199 8.55609 20.0342 8.35789 19.4736H13.7745C13.5763 20.0342 13.2097 20.5199 12.7249 20.8642C12.2401 21.2085 11.6608 21.3946 11.0662 21.3971Z" fill="#161C3D"/>
</svg>
