<svg width="19" height="23" viewBox="0 0 19 23" fill="none" xmlns="http://www.w3.org/2000/svg">
<path d="M16.8663 7.51271L8.1202 1.09525C7.43709 0.595037 6.6288 0.293791 5.78494 0.224913C4.94108 0.156034 4.09464 0.322214 3.33946 0.705025C2.58428 1.08784 1.94988 1.67232 1.5066 2.39367C1.06332 3.11502 0.828479 3.94504 0.828125 4.7917V17.6266C0.828276 18.4737 1.06313 19.3041 1.50661 20.0258C1.9501 20.7475 2.58487 21.3321 3.34049 21.7149C4.09611 22.0977 4.94301 22.2637 5.78722 22.1943C6.63142 22.125 7.43991 21.8231 8.12295 21.3222L16.869 14.9047C17.4496 14.479 17.9217 13.9224 18.2471 13.2802C18.5726 12.638 18.7421 11.9282 18.7421 11.2083C18.7421 10.4883 18.5726 9.77848 18.2471 9.13627C17.9217 8.49407 17.4496 7.93755 16.869 7.51179L16.8663 7.51271ZM15.7808 13.4259L7.03473 19.8434C6.62494 20.1429 6.14029 20.3231 5.63441 20.3641C5.12854 20.4051 4.62117 20.3054 4.16848 20.0759C3.71578 19.8464 3.33541 19.4962 3.06947 19.0639C2.80353 18.6316 2.6624 18.1342 2.66169 17.6266V4.7917C2.6566 4.28321 2.79507 3.7836 3.0612 3.35027C3.32732 2.91695 3.7103 2.5675 4.16612 2.34207C4.55382 2.14486 4.98255 2.04184 5.41753 2.04136C6.0005 2.04359 6.56737 2.23287 7.03473 2.58135L15.7808 8.99881C16.1287 9.25431 16.4116 9.58812 16.6066 9.97323C16.8016 10.3583 16.9032 10.7839 16.9032 11.2156C16.9032 11.6472 16.8016 12.0728 16.6066 12.4579C16.4116 12.8431 16.1287 13.1769 15.7808 13.4324V13.4259Z" fill="white"/>
</svg>
