<svg width="22" height="22" viewBox="0 0 22 22" fill="none" xmlns="http://www.w3.org/2000/svg">
<path d="M19.0768 4.09046C18.9916 4.00528 18.8904 3.93771 18.7792 3.89161C18.6679 3.84551 18.5486 3.82178 18.4281 3.82178C18.3076 3.82178 18.1883 3.84551 18.077 3.89161C17.9657 3.93771 17.8646 4.00528 17.7794 4.09046C17.6942 4.17565 17.6267 4.27678 17.5806 4.38807C17.5345 4.49937 17.5107 4.61866 17.5107 4.73913C17.5107 4.8596 17.5345 4.97889 17.5806 5.09018C17.6267 5.20148 17.6942 5.30261 17.7794 5.38779C19.3078 6.91975 20.1661 8.99536 20.1661 11.1593C20.1661 13.3233 19.3078 15.3989 17.7794 16.9308C17.6074 17.1029 17.5107 17.3362 17.5107 17.5795C17.5107 17.8228 17.6074 18.0561 17.7794 18.2282C17.9515 18.4002 18.1848 18.4969 18.4281 18.4969C18.6714 18.4969 18.9047 18.4002 19.0768 18.2282C20.9488 16.3519 22.0001 13.8097 22.0001 11.1593C22.0001 8.5089 20.9488 5.96672 19.0768 4.09046Z" fill="#55648B"/>
<path d="M16.5948 6.84184C16.5097 6.75636 16.4085 6.68849 16.297 6.64211C16.1856 6.59573 16.0662 6.57175 15.9455 6.57153C15.8248 6.57132 15.7053 6.59488 15.5937 6.64087C15.4821 6.68685 15.3807 6.75437 15.2952 6.83955C15.2097 6.92473 15.1419 7.02592 15.0955 7.13733C15.0491 7.24875 15.0251 7.36821 15.0249 7.48889C15.0247 7.60957 15.0482 7.72911 15.0942 7.84069C15.1402 7.95226 15.2077 8.05369 15.2929 8.13917C16.0931 8.94057 16.5425 10.0268 16.5425 11.1593C16.5425 12.2917 16.0931 13.3779 15.2929 14.1793C15.2077 14.2648 15.1402 14.3662 15.0942 14.4778C15.0482 14.5894 15.0247 14.7089 15.0249 14.8296C15.0251 14.9503 15.0491 15.0698 15.0955 15.1812C15.1419 15.2926 15.2097 15.3938 15.2952 15.479C15.4679 15.651 15.7018 15.7474 15.9455 15.747C16.0662 15.7468 16.1856 15.7228 16.297 15.6764C16.4085 15.63 16.5097 15.5621 16.5948 15.4767C17.7384 14.3308 18.3807 12.7781 18.3807 11.1593C18.3807 9.54039 17.7384 7.98766 16.5948 6.84184Z" fill="#55648B"/>
<path d="M12.6708 0.340583C9.88292 0.864346 7.40321 2.44001 5.74493 4.74143H4.58421C3.369 4.74336 2.20411 5.22697 1.34483 6.08625C0.48554 6.94554 0.00193969 8.11042 0 9.32564L0 12.993C0.00193969 14.2082 0.48554 15.3731 1.34483 16.2324C2.20411 17.0917 3.369 17.5753 4.58421 17.5772H5.74493C7.40354 19.8783 9.88309 21.4538 12.6708 21.9781C12.7254 21.9887 12.781 21.994 12.8367 21.9936C13.0799 21.9936 13.3131 21.897 13.485 21.7251C13.657 21.5532 13.7535 21.32 13.7535 21.0768V1.24459C13.7539 1.10994 13.7246 0.976862 13.6677 0.854824C13.6108 0.732785 13.5277 0.624779 13.4243 0.538482C13.3209 0.452184 13.1998 0.389714 13.0696 0.35551C12.9394 0.321307 12.8032 0.316211 12.6708 0.340583ZM11.9189 19.9014C9.89675 19.2568 8.15795 17.9359 6.99459 16.1607C6.91147 16.0328 6.79776 15.9277 6.66376 15.8549C6.52976 15.782 6.37971 15.7437 6.22719 15.7435H4.58421C3.85473 15.7435 3.15512 15.4537 2.63929 14.9379C2.12347 14.4221 1.83368 13.7225 1.83368 12.993V9.32564C1.83368 8.59615 2.12347 7.89654 2.63929 7.38072C3.15512 6.8649 3.85473 6.57511 4.58421 6.57511H6.23453C6.38687 6.57509 6.53682 6.53711 6.6708 6.46459C6.80479 6.39208 6.91859 6.28732 7.00192 6.15978C8.16291 4.38499 9.89904 3.06355 11.9189 2.41723V19.9014Z" fill="#55648B"/>
</svg>
