<svg width="19" height="10" viewBox="0 0 19 10" fill="none" xmlns="http://www.w3.org/2000/svg">
<path d="M0.660046 6.57243L3.56286 9.45854C3.63259 9.52773 3.71555 9.58264 3.80696 9.62011C3.89836 9.65759 3.9964 9.67688 4.09542 9.67688C4.19444 9.67688 4.29248 9.65759 4.38389 9.62011C4.47529 9.58264 4.55825 9.52773 4.62798 9.45854C4.69829 9.38992 4.75409 9.30828 4.79217 9.21833C4.83025 9.12839 4.84986 9.03191 4.84986 8.93447C4.84986 8.83702 4.83025 8.74054 4.79217 8.6506C4.75409 8.56065 4.69829 8.47901 4.62798 8.41039L1.95769 5.76786H17.2519C17.4508 5.76786 17.6416 5.69009 17.7823 5.55167C17.9229 5.41324 18.002 5.22549 18.002 5.02972C18.002 4.83396 17.9229 4.64621 17.7823 4.50778C17.6416 4.36936 17.4508 4.29159 17.2519 4.29159H1.91268L4.62798 1.61954C4.76096 1.48226 4.83515 1.29988 4.83515 1.11022C4.83515 0.920564 4.76096 0.738184 4.62798 0.600908C4.55825 0.531723 4.47529 0.47681 4.38389 0.439336C4.29248 0.401862 4.19444 0.382568 4.09542 0.382568C3.9964 0.382568 3.89836 0.401862 3.80696 0.439336C3.71555 0.47681 3.63259 0.531723 3.56286 0.600908L0.660046 3.44273C0.238648 3.85793 0.00195313 4.42076 0.00195312 5.00758C0.00195312 5.5944 0.238648 6.15723 0.660046 6.57243Z" fill="#55648B"/>
</svg>
