<svg width="40" height="41" viewBox="0 0 40 41" fill="none" xmlns="http://www.w3.org/2000/svg">
<g clip-path="url(#clip0_198_2223)">
<g clip-path="url(#clip1_198_2223)">
<path d="M36.5547 1.09372C36.4688 1.14059 35.6328 1.78903 34.6953 2.53903L32.9922 3.89841L32.7891 3.65622C32.3672 3.14841 31.6797 2.95309 31.0312 3.14059C30.2734 3.35934 29.7891 4.00778 29.7891 4.79684C29.7891 5.37497 30.0312 5.87497 30.4844 6.18747C31.1406 6.64841 31.1094 6.60153 30.8906 6.75778C30.7812 6.83591 30.6719 6.89841 30.6328 6.89841C30.6016 6.89841 30.4453 6.72653 30.2812 6.50778C29.7656 5.82809 29.0859 5.57809 28.3438 5.80466C27.3125 6.10934 26.8203 7.26559 27.3047 8.24216C27.4453 8.53122 27.625 8.71091 28.0547 9.00778C28.3672 9.21872 28.6328 9.45309 28.6484 9.52341C28.6719 9.60934 27.9922 10.3437 26.5625 11.7734L24.4453 13.8906L24.1406 13.6875C23.75 13.4218 22.8047 12.9843 22.1016 12.7422C20.2578 12.1172 18.2656 12.2187 16.6797 13.0312L16.3438 13.2031L15.1562 12.0234C14.1562 11.0312 13.9297 10.8437 13.7344 10.8437C13.4141 10.8437 13.1562 11.1015 13.1562 11.414C13.1562 11.6328 13.3047 11.8047 14.2656 12.7734L15.3828 13.8906L15.0703 14.2031L14.7578 14.5156L12.0234 11.7812L9.29688 9.04684L9.5625 8.77341C9.71094 8.62497 9.86719 8.49997 9.91406 8.49997C9.96094 8.49997 10.3828 8.88278 10.8516 9.35934C11.7969 10.3047 11.9766 10.3906 12.3359 10.0234C12.5625 9.80466 12.5781 9.67184 12.4219 9.37497C12.3594 9.25778 10.8906 7.74997 9.15625 6.01559C5.77344 2.64841 5.82812 2.69528 5.39062 3.03903C5.25 3.14841 5.1875 3.27341 5.1875 3.44528C5.1875 3.66403 5.30469 3.82028 6.00781 4.51559C6.46094 4.96872 6.82812 5.36716 6.82812 5.41403C6.82812 5.46091 6.70312 5.61716 6.55469 5.76559L6.28125 6.03122L6.07031 5.82809C5.78906 5.57028 5.55469 5.49997 5.32812 5.61716C5.07812 5.74216 3.86719 6.93747 3.73438 7.18747C3.67188 7.30466 3.625 7.46091 3.625 7.53903C3.625 7.61716 5.66406 9.71872 8.40625 12.4609L13.1953 17.25L13.1875 18.0547C13.1797 19.1328 13 19.6015 12.3203 20.289C12.0469 20.5625 11.8047 20.875 11.7812 20.9765C11.7031 21.2656 11.9688 21.5781 12.3203 21.6093C12.5625 21.6328 12.6562 21.5781 13.1094 21.1562C14.0078 20.3125 14.4688 19.0703 14.3828 17.7265C14.3438 17.1015 14.3516 17.0312 14.5391 16.7031C14.6562 16.5078 14.9688 16.0781 15.2422 15.75C16.0938 14.7265 16.9062 14.1328 17.9844 13.75C18.5234 13.5625 18.6953 13.539 19.6016 13.5468C20.6328 13.5468 21.1172 13.6328 22.0391 13.9687C22.5781 14.164 23.5469 14.6562 23.5469 14.7343C23.5469 14.7656 21.8359 16.5 19.7422 18.5937C16.3359 22 15.9453 22.4218 15.9453 22.6406C15.9453 22.8515 16.1094 23.0547 17.2266 24.1797C17.9297 24.8828 18.5859 25.5 18.6797 25.539C18.7891 25.5781 18.9453 25.5781 19.0703 25.5234C19.1953 25.4843 21 23.7343 23.0859 21.6484L26.8828 17.8593L27.3594 18.8203C27.9531 20.039 28.1094 20.625 28.1094 21.7422C28.1172 22.7265 27.9453 23.3906 27.4688 24.3203C27.125 24.9843 25.9062 26.2422 25.0625 26.7968L24.5156 27.164L23.8125 27.1172C22.4531 27.0312 21.3047 27.4453 20.4219 28.3437C19.5938 29.1875 19.25 30.0781 19.25 31.3906C19.25 32.1797 19.3828 32.8906 19.6562 33.5625C19.8203 33.9765 19.8203 33.9922 19.6875 34.414C18.9062 36.8906 16.9922 38.75 14.4609 39.4687C12.8516 39.9375 10.8516 39.914 9.35156 39.4297L9.10156 39.3515L9.63281 38.3203C10.4688 36.6953 10.7344 35.875 10.7422 34.9062C10.75 34.4922 10.7031 34.2031 10.5938 33.9062L10.4375 33.4922L11.6797 32.4765C12.9062 31.4687 13.0703 31.2734 12.9688 30.9453C12.9453 30.8593 12.3984 30.2812 11.7656 29.6484C10.5938 28.4922 10.4531 28.3984 10.1172 28.5781C10.0391 28.6172 9.61719 29.0937 9.17188 29.6328C8.73438 30.1718 8.35938 30.6093 8.34375 30.6093C8.28906 30.6093 8.09375 30.164 7.92969 29.6718C7.71094 29.0234 7.57031 28.2265 7.45312 27.0547C7.27344 25.2422 6.66406 23.9609 5.53125 23.0312C5.34375 22.8828 5.19531 22.7422 5.19531 22.7187C5.17969 22.6328 6.25 22.1093 6.83594 21.8984L7.4375 21.6875L8.125 21.9297C8.99219 22.2265 9.85938 22.3359 10.1797 22.2031C10.4375 22.0937 10.5469 21.8281 10.4688 21.5078C10.4062 21.2578 10.2344 21.1718 9.57031 21.0781C9.27344 21.039 8.73438 20.8984 8.38281 20.7656C8.02344 20.6406 7.63281 20.5312 7.50781 20.5312C7.38281 20.5312 6.96875 20.6328 6.58594 20.7656C3.46875 21.8047 1.35938 24.2343 0.679688 27.5781C0.492188 28.4843 0.492188 30.4843 0.679688 31.414C1.30469 34.5156 3.16406 37.2578 5.875 39.0703C9.09375 41.2265 13.1484 41.5859 16.3203 40C18.5781 38.875 20.2969 36.789 20.8984 34.4531L21.0391 33.8906L20.8125 33.3125C20.4844 32.4922 20.3984 32.0234 20.4375 31.164C20.4766 30.25 20.6953 29.7031 21.2578 29.1406C21.8906 28.5156 22.7188 28.2265 23.7109 28.2812L24.2578 28.3125L25.9141 29.9609C26.8203 30.8672 27.6484 31.6328 27.7344 31.6562C28.1094 31.7656 28.5312 31.3437 28.4219 30.9687C28.3984 30.8828 27.7344 30.164 26.9609 29.375L25.5391 27.9453L25.7734 27.75C25.9062 27.6484 26.0391 27.5625 26.0859 27.5625C26.125 27.5625 28.3359 29.7343 30.9844 32.3828L35.8125 37.2109L35.5625 37.4609L35.3125 37.7187L32.6016 35.0156C30.1875 32.6015 29.8594 32.3047 29.6406 32.3047C29.3125 32.3047 29.0703 32.5547 29.0781 32.8828C29.0859 33.1172 29.3984 33.4531 32.0781 36.1328C34.6562 38.7031 35.1094 39.125 35.3047 39.125C35.4922 39.125 35.6797 38.9687 36.3672 38.2812L37.1953 37.4453L37.2969 36.7578C37.4766 35.4765 37.1172 34.289 36.2031 33.1484C35.9922 32.8906 34.1406 31 32.0781 28.9453L28.3359 25.2031L28.5938 24.7265C28.9453 24.0703 29.2188 23.0547 29.2891 22.2109C29.3984 20.7812 28.9219 19.0234 28.0156 17.5547L27.7031 17.039L29.7969 14.9453C31.125 13.6172 31.9297 12.8672 32.0078 12.8828C32.0781 12.8984 32.3047 13.1562 32.5078 13.4609C32.9844 14.1562 33.3828 14.3984 34.0547 14.3906C35.6016 14.3828 36.3984 12.5547 35.3125 11.5078C35.1406 11.3359 34.8906 11.1172 34.7578 11.0234L34.5234 10.8593L34.7344 10.6406L34.9375 10.4297L35.2188 10.8672C35.6016 11.4609 36.0547 11.7265 36.7031 11.7343C38.2969 11.7422 39.0859 9.79684 37.9062 8.76559L37.625 8.52341L39.0234 6.74216C39.7969 5.75778 40.4453 4.87497 40.4766 4.76559C40.5859 4.32028 40.3906 4.05466 38.9219 2.58591C37.3203 0.999969 37.0391 0.820282 36.5547 1.09372ZM39.1875 4.63278C39.1562 4.68747 38.5156 5.49997 37.7656 6.45309L36.3984 8.18747L34.8984 6.68747C34.0703 5.85934 33.3906 5.15622 33.3906 5.13278C33.3906 5.10153 34.1875 4.43747 35.1641 3.65622L36.9375 2.24216L38.0859 3.39059C38.7812 4.08591 39.2188 4.57809 39.1875 4.63278ZM31.9453 4.48434C32.0625 4.61716 32.1016 4.74997 32.0781 4.97653C32.0625 5.14059 32.0859 5.35153 32.1328 5.43747C32.1953 5.55466 32.1875 5.61716 32.1094 5.67966C31.9531 5.81247 31.0781 5.25778 30.9766 4.97653C30.8906 4.71872 31.0156 4.43747 31.2812 4.30466C31.5234 4.17966 31.7422 4.24216 31.9453 4.48434ZM8.78125 7.91403L8.46875 8.22653L7.78906 7.54684L7.10938 6.85934L7.41406 6.54684L7.71875 6.23434L8.40625 6.91403L9.09375 7.60153L8.78125 7.91403ZM33.7031 10.0312C32.9609 10.8906 32.3281 11.5937 32.3047 11.6093C32.2812 11.6172 31.7188 11.0859 31.0547 10.4218L29.8594 9.22653L31.4453 7.84372L33.0312 6.46091L34.0391 7.46872L35.0469 8.48434L33.7031 10.0312ZM29.0938 6.93747C29.125 6.93747 29.2891 7.11716 29.4453 7.33591L29.7344 7.73434L29.4766 7.99997C29.3359 8.14841 29.1875 8.26559 29.1484 8.26559C29.1016 8.26559 28.9219 8.17184 28.7344 8.05466C28.3438 7.80466 28.2031 7.51559 28.3438 7.24216C28.4453 7.03122 28.7656 6.84372 28.9219 6.89841C28.9844 6.92184 29.0547 6.93747 29.0938 6.93747ZM9.8125 11.2109L14.0078 15.4062L13.7969 15.6953L13.5859 15.9922L9.3125 11.7187L5.03906 7.45309L5.24219 7.23434C5.35938 7.11716 5.49219 7.01559 5.53125 7.01559C5.57812 7.01559 7.50781 8.90622 9.8125 11.2109ZM36.5703 9.45309C37.1484 9.43747 37.4766 9.92184 37.1797 10.3515C37.0391 10.5547 36.7188 10.6406 36.5156 10.5312C36.4297 10.4843 36.2188 10.2343 36.0391 9.97653C35.7891 9.60153 35.7422 9.48434 35.8125 9.39841C35.8828 9.31247 35.9453 9.30466 36.0703 9.36716C36.1562 9.42184 36.3828 9.45309 36.5703 9.45309ZM30.2656 11.2734L31.0078 12.0156L30.3828 12.6406L29.7578 13.2656L29 12.5078L28.2344 11.7422L28.8359 11.1406C29.1719 10.8047 29.4609 10.5312 29.4844 10.5312C29.5078 10.5312 29.8594 10.8672 30.2656 11.2734ZM34.1719 12.0625C34.3906 12.2187 34.5859 12.4297 34.6094 12.539C34.7188 12.9765 34.2812 13.3593 33.8672 13.1875C33.75 13.1406 33.5625 12.9453 33.4375 12.7578C33.25 12.4531 33.2344 12.3828 33.3203 12.2656C33.4766 12.0625 33.7266 11.7812 33.7578 11.7812C33.7656 11.7812 33.9531 11.9062 34.1719 12.0625ZM28.2422 14.7812L27.5469 15.4765L26.7578 14.7422L25.9688 14.0156L26.6875 13.289L27.4141 12.5625L28.1719 13.3203L28.9375 14.0859L28.2422 14.7812ZM25.9688 17.0547L25.2656 17.7578L24.5078 17L23.7422 16.2343L24.4453 15.5312L25.1484 14.8281L25.9062 15.5859L26.6719 16.3515L25.9688 17.0547ZM23.7031 17.8359L24.4453 18.5781L23.7188 19.2968L23 20.0234L22.2422 19.2656L21.4766 18.5L22.1797 17.7968C22.5625 17.414 22.8984 17.0937 22.9219 17.0937C22.9453 17.0937 23.2969 17.4297 23.7031 17.8359ZM21.4375 20.1015L22.1797 20.8437L20.5156 22.5078L18.8594 24.164L18.1016 23.3984L17.3359 22.6406L18.9766 21C19.875 20.1015 20.6328 19.3593 20.6562 19.3593C20.6797 19.3593 21.0312 19.6953 21.4375 20.1015ZM4.50781 23.7265C4.92969 24.0156 5.42188 24.5468 5.67969 24.9922C6.00781 25.5547 6.17969 26.2109 6.3125 27.3906C6.52344 29.2265 6.71094 29.9843 7.23438 31.0234L7.53906 31.6328L6.49219 32.9062C4.97656 34.7422 4.95312 34.7734 4.95312 35.2578C4.95312 36.2109 5.9375 36.8359 6.77344 36.4297C6.91406 36.3593 7.57031 35.8515 8.23438 35.3047C9 34.664 9.46875 34.3359 9.5 34.3906C9.61719 34.5625 9.5625 35.4375 9.39844 35.9297C9.21094 36.5312 8.07812 38.8906 7.98438 38.8906C7.75 38.8906 6.72656 38.2656 5.85156 37.5937C1.57031 34.3047 0.390625 28.3906 3.25 24.5156C3.55469 24.1093 4.09375 23.5 4.15625 23.5C4.17188 23.5 4.32812 23.6015 4.50781 23.7265ZM31.4453 29.9609C33.5312 32.0625 35.3516 33.9375 35.4922 34.1406C35.7969 34.6015 36.0391 35.1562 36.125 35.6015C36.1875 35.9375 36.0781 35.8359 31.625 31.3828C29.1172 28.875 27.0625 26.789 27.0625 26.75C27.0625 26.664 27.5312 26.1562 27.6094 26.1562C27.6328 26.1562 29.3594 27.8672 31.4453 29.9609ZM11.0078 30.5312C11.3047 30.8281 11.5312 31.0859 11.5078 31.1015C10.3047 32.125 6.26562 35.375 6.20312 35.375C6.15625 35.375 6.125 35.3281 6.14062 35.2656C6.16406 35.1484 10.3516 29.9922 10.4219 29.9843C10.4453 29.9843 10.7109 30.2265 11.0078 30.5312Z" fill="#FF8E7C"/>
<path d="M12.9691 23.2344C12.5394 23.3906 12.2191 23.6562 11.6644 24.3047C10.7504 25.3672 10.18 25.5547 9.61754 24.9687C9.27379 24.6094 8.53161 25.0078 8.65661 25.4844C8.78161 25.9844 9.60973 26.4688 10.3363 26.4688C11.1019 26.4609 11.68 26.1016 12.4691 25.1641C13.0941 24.4141 13.3519 24.25 13.7894 24.3203C14.0472 24.3672 14.1175 24.3437 14.2894 24.1719C14.9222 23.5391 13.9847 22.8594 12.9691 23.2344Z" fill="#FF8E7C"/>
<path d="M12.8507 26.0469C12.6554 26.289 12.6476 26.4062 12.796 26.6875C12.9835 27.039 14.8116 28.7969 15.0538 28.8594C15.3819 28.9375 15.6866 28.6875 15.7179 28.3047C15.7413 28.0234 15.7101 27.9765 14.6554 26.9297C13.6632 25.9375 13.546 25.8437 13.2882 25.8437C13.0772 25.8437 12.9679 25.8984 12.8507 26.0469Z" fill="#FF8E7C"/>
<path d="M17.3671 27.164C17.2109 27.289 17.1796 27.3828 17.1952 27.6875C17.2109 28.2031 17.0859 28.4062 16.328 29.039C15.164 30.0234 14.8359 30.789 15.1405 31.8047C15.328 32.4297 15.8359 32.9219 16.203 32.8281C16.7187 32.7109 16.8202 32.2265 16.4374 31.7422C15.9921 31.1797 16.1874 30.7031 17.1952 29.8359C18.0702 29.0937 18.3827 28.5937 18.3905 27.9297C18.3984 27.2109 17.828 26.789 17.3671 27.164Z" fill="#FF8E7C"/>
</g>
</g>
<defs>
<clipPath id="clip0_198_2223">
<rect width="40" height="40" fill="white" transform="translate(0 0.666626)"/>
</clipPath>
<clipPath id="clip1_198_2223">
<rect width="40" height="40" fill="white" transform="translate(0.5 1)"/>
</clipPath>
</defs>
</svg>
