<svg width="21" height="26" viewBox="0 0 21 26" fill="none" xmlns="http://www.w3.org/2000/svg">
<path d="M20.8333 4.57292H15.625V2.48958C15.625 1.93705 15.4055 1.40715 15.0148 1.01644C14.6241 0.625743 14.0942 0.40625 13.5417 0.40625L7.29167 0.40625C6.73913 0.40625 6.20923 0.625743 5.81853 1.01644C5.42783 1.40715 5.20833 1.93705 5.20833 2.48958V4.57292H0V6.65625H2.08333V22.2812C2.08333 23.1101 2.41257 23.9049 2.99863 24.491C3.58468 25.077 4.37953 25.4062 5.20833 25.4062H15.625C16.4538 25.4062 17.2487 25.077 17.8347 24.491C18.4208 23.9049 18.75 23.1101 18.75 22.2812V6.65625H20.8333V4.57292ZM7.29167 2.48958H13.5417V4.57292H7.29167V2.48958ZM16.6667 22.2812C16.6667 22.5575 16.5569 22.8225 16.3616 23.0178C16.1662 23.2132 15.9013 23.3229 15.625 23.3229H5.20833C4.93207 23.3229 4.66711 23.2132 4.47176 23.0178C4.27641 22.8225 4.16667 22.5575 4.16667 22.2812V6.65625H16.6667V22.2812Z" fill="black"/>
<path d="M9.37508 10.8228H7.29175V19.1561H9.37508V10.8228Z" fill="black"/>
<path d="M13.5416 10.8228H11.4583V19.1561H13.5416V10.8228Z" fill="black"/>
</svg>
