<svg width="34" height="23" viewBox="0 0 34 23" fill="none" xmlns="http://www.w3.org/2000/svg">
<path d="M31.4955 3.81672C30.566 3.35194 29.47 3.44957 28.6395 4.07523C28.5859 4.11511 28.535 4.16049 28.4882 4.20724L26.0722 6.64527C25.7821 3.11818 22.8531 0.328125 19.2532 0.328125H6.87738C3.08627 0.32675 0.00195312 3.41107 0.00195312 7.20218V15.4527C0.00195312 19.2438 3.08627 22.3281 6.87738 22.3281H19.2532C22.8683 22.3281 25.8096 19.5133 26.0763 15.9656L28.491 18.3775C28.5377 18.4229 28.5859 18.4641 28.6381 18.504C29.1221 18.867 29.6942 19.0513 30.2717 19.0513C30.6884 19.0513 31.105 18.9564 31.4955 18.7612C32.4265 18.2964 33.004 17.3599 33.004 16.3218V6.25887C33.004 5.21793 32.4265 4.2815 31.4955 3.81672ZM19.2532 19.578H6.87738C4.60299 19.578 2.75212 17.7271 2.75212 15.4527V7.20218C2.75212 4.92779 4.60299 3.07692 6.87738 3.07692H19.2532C21.5275 3.07692 23.3784 4.92779 23.3784 7.20218V15.4527C23.3784 17.7271 21.5275 19.578 19.2532 19.578ZM26.1286 12.1291V10.4941L30.2538 6.33038L30.2882 16.2832L26.1286 12.1277V12.1291Z" fill="#55648B"/>
</svg>
