<svg width="40" height="41" viewBox="0 0 40 41" fill="none" xmlns="http://www.w3.org/2000/svg">
<g clip-path="url(#clip0_198_2287)">
<path opacity="0.932" fill-rule="evenodd" clip-rule="evenodd" d="M39.9609 12.2682C39.9609 12.8411 39.9609 13.4141 39.9609 13.987C39.7813 14.8154 39.4297 15.5706 38.9062 16.2526C32.1484 23.0104 25.3906 29.7682 18.6328 36.526C19.0684 36.976 19.0424 37.3927 18.5547 37.776C18.3098 37.8377 18.0755 37.8117 17.8516 37.6979C16.7969 36.6432 15.7422 35.5885 14.6875 34.5338C14.4687 33.9655 14.651 33.6009 15.2344 33.4401C15.4742 33.4851 15.6826 33.5892 15.8594 33.7526C17.3307 32.2812 18.8021 30.8098 20.2734 29.3385C19.8166 28.8686 19.3478 28.4129 18.8672 27.9713C16.4312 30.3943 13.9833 32.8032 11.5234 35.1979C8.6675 37.1678 5.77688 37.2198 2.85156 35.3541C1.27521 34.1146 0.311673 32.513 -0.0390625 30.5495C-0.0390625 29.8723 -0.0390625 29.1953 -0.0390625 28.5182C0.234645 27.0852 0.846625 25.8091 1.79688 24.6901C5.49479 20.9922 9.19273 17.2942 12.8906 13.5963C15.1603 10.8034 15.8505 7.65235 14.9609 4.1432C15.0955 3.42531 15.4862 3.25604 16.1328 3.63539C19.3229 6.82549 22.513 10.0156 25.7031 13.2057C25.9852 13.8069 25.8159 14.1975 25.1953 14.3776C21.743 13.4612 18.618 14.0992 15.8203 16.2916C11.9531 20.0547 8.13805 23.8698 4.375 27.737C3.49064 29.4062 3.73803 30.8777 5.11719 32.151C6.32012 32.9798 7.54408 33.0189 8.78906 32.2682C7.72245 31.1625 6.64173 30.0687 5.54688 28.987C5.31192 28.4152 5.49421 28.0506 6.09375 27.8932C6.26914 27.943 6.43841 28.008 6.60156 28.0885C7.68338 29.1834 8.77711 30.2641 9.88281 31.3307C10.7682 30.4973 11.6276 29.638 12.4609 28.7526C11.3943 27.6469 10.3136 26.5531 9.21875 25.4713C8.92422 24.8841 9.09352 24.4935 9.72656 24.2995C9.88602 24.357 10.0423 24.422 10.1953 24.4948C11.263 25.5625 12.3307 26.6302 13.3984 27.6979C13.4505 27.75 13.5026 27.75 13.5547 27.6979C19.5724 21.7062 25.562 15.6905 31.5234 9.65101C33.1851 8.16741 35.0601 7.82887 37.1484 8.63539C38.6796 9.39578 39.6171 10.6067 39.9609 12.2682ZM16.6797 6.17445C18.8515 8.30715 21.0129 10.4555 23.1641 12.6198C19.9673 12.4354 17.1548 13.3729 14.7266 15.4323C11.0916 19.0933 7.43274 22.7261 3.75 26.3307C2.16159 28.2829 2.05743 30.3141 3.4375 32.4245C5.02301 34.148 6.91102 34.5777 9.10156 33.7135C9.36195 33.5573 9.62242 33.401 9.88281 33.2448C17.4349 25.6927 24.987 18.1406 32.5391 10.5885C34.0283 9.34758 35.5908 9.24336 37.2266 10.276C38.8355 11.773 39.0569 13.4527 37.8906 15.3151C31.1459 22.0598 24.401 28.8047 17.6562 35.5495C17.3828 35.276 17.1094 35.0026 16.8359 34.7291C23.5416 28.0234 30.2474 21.3177 36.9531 14.612C37.5951 13.6674 37.6211 12.7039 37.0312 11.7213C36.3655 10.9264 35.5191 10.627 34.4922 10.8229C34.1767 10.8931 33.8902 11.0234 33.6328 11.2135C25.9745 18.898 18.2921 26.5542 10.5859 34.1823C8.34211 35.6866 6.07651 35.7387 3.78906 34.3385C1.17503 32.2016 0.615133 29.6105 2.10938 26.5651C2.29859 26.2648 2.50693 25.9784 2.73438 25.7057C6.40625 22.0338 10.0781 18.362 13.75 14.6901C15.8631 12.2579 16.8397 9.41937 16.6797 6.17445ZM34.8047 12.112C35.8804 12.156 36.258 12.6769 35.9375 13.6745C31.6406 17.9713 27.3438 22.2682 23.0469 26.5651C22.6041 26.1223 22.1615 25.6797 21.7188 25.237C21.6666 25.1848 21.6666 25.1328 21.7188 25.0807C26.0505 20.7098 30.4125 16.3868 34.8047 12.112ZM20.6641 26.0963C21.1572 26.5374 21.6259 27.0062 22.0703 27.5026C21.8111 27.8009 21.5377 28.0873 21.25 28.362C20.7801 27.9051 20.3244 27.4363 19.8828 26.9557C20.1449 26.6677 20.4054 26.3812 20.6641 26.0963Z" fill="#FF8E7C"/>
</g>
<defs>
<clipPath id="clip0_198_2287">
<rect width="40" height="40" fill="white" transform="translate(0 0.666626)"/>
</clipPath>
</defs>
</svg>
