<svg width="40" height="41" viewBox="0 0 40 41" fill="none" xmlns="http://www.w3.org/2000/svg">
<g clip-path="url(#clip0_197_2192)">
<path opacity="0.925" fill-rule="evenodd" clip-rule="evenodd" d="M37.0703 0.627563C37.3568 0.627563 37.6432 0.627563 37.9297 0.627563C38.6849 1.22652 39.362 1.9036 39.9609 2.65881C39.9609 2.94527 39.9609 3.23173 39.9609 3.51819C39.3543 4.56027 38.6772 5.56288 37.9297 6.526C37.5279 6.78615 37.0982 6.85125 36.6406 6.72131C36.5579 6.73148 36.4928 6.77054 36.4453 6.8385C36.7736 7.14058 37.073 7.46609 37.3438 7.81506C37.372 8.52389 37.0464 8.77124 36.3672 8.55725C36.1328 8.32288 35.8984 8.0885 35.6641 7.85413C35.4881 7.858 35.358 7.94915 35.2734 8.12756C35.5355 8.40249 35.7828 8.68897 36.0156 8.98694C36.2016 9.63475 35.9542 9.9342 35.2734 9.88538C34.9416 9.71014 34.6552 9.47577 34.4141 9.18225C34.362 9.13014 34.3099 9.13014 34.2578 9.18225C33.1614 10.3046 32.0938 11.4504 31.0547 12.6198C33.0515 14.5644 34.9916 16.5565 36.875 18.5963C37.6962 19.9287 37.9696 21.361 37.6953 22.8932C38.189 23.4259 38.6968 23.9468 39.2188 24.4557C39.4209 24.8395 39.3557 25.1651 39.0234 25.4323C38.7786 25.494 38.5442 25.468 38.3203 25.3541C35.0391 22.0729 31.7578 18.7916 28.4766 15.5104C28.4245 15.4583 28.3724 15.4583 28.3203 15.5104C27.8541 16.0548 27.3593 16.5757 26.8359 17.0729C28.0644 19.1615 28.3899 21.388 27.8125 23.7526C27.3695 25.3682 26.6013 26.8005 25.5078 28.0494C25.386 28.1234 25.2558 28.1755 25.1172 28.2057C22.8869 27.9476 21.2592 28.8331 20.2344 30.8619C19.8168 32.1266 19.9209 33.3505 20.5469 34.5338C20.599 34.7161 20.599 34.8984 20.5469 35.0807C19.2052 37.3337 17.3432 39.0133 14.9609 40.1198C14.3623 40.3277 13.7634 40.4969 13.1641 40.6276C12.4349 40.6276 11.7057 40.6276 10.9766 40.6276C8.82539 40.2226 6.93739 39.2851 5.3125 37.8151C4.59635 38.4791 3.88021 39.1432 3.16406 39.8073C2.89407 40.0769 2.58157 40.2852 2.22656 40.4323C0.567306 40.59 -0.122798 39.8478 0.15625 38.2057C0.208334 38.1015 0.260416 37.9973 0.3125 37.8932C1.15019 37.0427 1.94445 36.1573 2.69531 35.2369C1.28029 33.6048 0.368828 31.7298 -0.0390625 29.6119C-0.0390625 28.8828 -0.0390625 28.1536 -0.0390625 27.4244C0.200652 26.1365 0.682423 24.9386 1.40625 23.8307C1.60164 23.5548 1.82299 23.3074 2.07031 23.0885C2.7961 22.9618 3.06954 23.2612 2.89062 23.9869C0.824234 26.7631 0.667987 29.6537 2.42188 32.6588C2.79333 33.2194 3.18395 33.7663 3.59375 34.2994C5.19263 32.5181 6.82024 30.7603 8.47656 29.026C8.71094 28.8698 8.94531 28.8698 9.17969 29.026C9.94789 29.7942 10.7162 30.5625 11.4844 31.3307C11.6516 31.6292 11.6386 31.9157 11.4453 32.1901C10.7566 32.7876 10.0795 33.3996 9.41406 34.026C8.88727 34.1665 8.57477 33.9712 8.47656 33.4401C8.51984 33.2752 8.585 33.119 8.67188 32.9713C9.14133 32.5669 9.59703 32.1501 10.0391 31.7213C9.64961 31.2928 9.24594 30.8761 8.82812 30.4713C6.48438 33.0234 4.14062 35.5755 1.79688 38.1276C1.59591 38.3544 1.42664 38.6017 1.28906 38.8698C1.39289 39.1818 1.60123 39.2859 1.91406 39.1823C3.57814 37.7006 5.21877 36.1901 6.83594 34.651C7.18416 34.3248 7.53573 34.3118 7.89062 34.6119C8.00445 34.8358 8.03047 35.0702 7.96875 35.3151C7.42284 35.874 6.86295 36.4208 6.28906 36.9557C10.5556 40.4481 14.553 40.1617 18.2812 36.0963C18.6219 35.6646 18.9473 35.2219 19.2578 34.7682C18.0305 31.3796 19.0201 28.8666 22.2266 27.2291C23.0868 26.9412 23.9723 26.7979 24.8828 26.7994C26.6113 24.6512 27.1711 22.2294 26.5625 19.5338C26.4188 19.012 26.2105 18.5173 25.9375 18.0494C25.1432 18.8958 24.349 19.7422 23.5547 20.5885C23.0108 20.789 22.6722 20.6068 22.5391 20.0416C22.5959 19.9323 22.6349 19.8151 22.6562 19.6901C26.1354 16.0287 29.5859 12.3438 33.0078 8.63538C32.6562 8.28381 32.3047 7.93225 31.9531 7.58069C26.9791 12.2422 22.0052 16.9036 17.0312 21.5651C16.9791 21.6172 16.9791 21.6692 17.0312 21.7213C17.6573 22.3605 18.2954 22.9855 18.9453 23.5963C19.7124 22.7901 20.4937 21.9958 21.2891 21.2135C22.1414 21.1337 22.3888 21.4852 22.0312 22.2682C21.1309 23.2466 20.2064 24.1972 19.2578 25.1198C19.013 25.1815 18.7786 25.1555 18.5547 25.0416C17.5521 24.039 16.5495 23.0364 15.5469 22.0338C15.3906 21.7473 15.3906 21.4609 15.5469 21.1744C17.8776 19 20.2084 16.8255 22.5391 14.651C20.3013 13.5122 18.0356 13.4601 15.7422 14.4948C15.0523 14.8264 14.4012 15.217 13.7891 15.6666C13.8223 18.2637 12.7025 20.1907 10.4297 21.4479C8.88023 22.0383 7.34378 21.9992 5.82031 21.3307C5.31441 21.6933 4.81962 22.0709 4.33594 22.4635C3.51562 22.6848 3.21615 22.3854 3.4375 21.5651C4.06509 20.9714 4.7552 20.4636 5.50781 20.0416C5.6901 19.9895 5.8724 19.9895 6.05469 20.0416C8.80359 21.2348 10.8478 20.4926 12.1875 17.8151C12.4628 17.0523 12.528 16.2711 12.3828 15.4713C12.413 15.3327 12.4651 15.2025 12.5391 15.0807C15.392 12.6012 18.6212 11.9372 22.2266 13.0885C22.6845 13.2588 23.1141 13.4801 23.5156 13.7526C24.0128 13.2292 24.5337 12.7344 25.0781 12.2682C25.1302 12.2161 25.1302 12.164 25.0781 12.1119C21.7969 8.83069 18.5156 5.54944 15.2344 2.26819C15.0323 1.88437 15.0974 1.55884 15.4297 1.29163C15.6745 1.2299 15.9089 1.25594 16.1328 1.36975C16.7578 1.99475 17.3828 2.61975 18.0078 3.24475C19.8622 3.00514 21.5289 3.44784 23.0078 4.57288C24.6615 6.22652 26.3151 7.88017 27.9688 9.53381C29.1381 8.49475 30.2839 7.42707 31.4062 6.33069C31.4584 6.2786 31.4584 6.22652 31.4062 6.17444C31.143 5.93733 30.9086 5.67692 30.7031 5.39319C30.6114 4.67733 30.9109 4.40389 31.6016 4.57288C31.8995 4.80567 32.186 5.05307 32.4609 5.31506C32.6394 5.23055 32.7305 5.10034 32.7344 4.92444C32.3509 4.63343 32.0774 4.26884 31.9141 3.83069C32.0155 3.36334 32.302 3.16802 32.7734 3.24475C33.1224 3.51546 33.4479 3.81494 33.75 4.14319C33.818 4.0957 33.857 4.03059 33.8672 3.94788C33.7373 3.49031 33.8023 3.06063 34.0625 2.65881C35.0256 1.9113 36.0282 1.23421 37.0703 0.627563ZM37.3828 1.87756C37.8716 2.23581 38.3142 2.65247 38.7109 3.12756C38.1924 3.94545 37.6586 4.75274 37.1094 5.54944C36.4193 4.85934 35.7291 4.16923 35.0391 3.47913C35.8342 2.95598 36.6155 2.42212 37.3828 1.87756ZM19.2578 4.53381C20.3677 4.50084 21.3573 4.85241 22.2266 5.5885C23.8412 7.20309 25.4557 8.81764 27.0703 10.4323C26.7213 10.703 26.3959 11.0024 26.0938 11.3307C23.8254 9.04928 21.5468 6.7837 19.2578 4.53381ZM34.6484 5.00256C35.0066 5.23019 35.3191 5.51664 35.5859 5.86194C35.026 6.4609 34.4662 7.05985 33.9062 7.65881C33.5807 7.33329 33.2552 7.00777 32.9297 6.68225C33.5235 6.13906 34.0965 5.57916 34.6484 5.00256ZM30.1172 13.5182C31.9113 15.2733 33.6952 17.0441 35.4688 18.8307C36.1809 19.6651 36.5195 20.6287 36.4844 21.7213C34.0755 19.3125 31.6666 16.9036 29.2578 14.4948C29.5914 14.2009 29.8779 13.8754 30.1172 13.5182Z" fill="#FF8E7C"/>
<path opacity="0.1" fill-rule="evenodd" clip-rule="evenodd" d="M11.0312 21.7374C11.4022 21.7199 11.7668 21.7589 12.125 21.8546C12.5114 22.1906 12.5374 22.5552 12.2031 22.9484C12.0752 22.9953 11.9451 23.0344 11.8125 23.0656C11.2659 22.9805 10.7451 23.0716 10.25 23.339C9.36234 23.8348 8.52898 24.4077 7.75 25.0577C6.78883 25.6659 5.79925 25.7181 4.78125 25.214C4.36751 25.0477 4.10709 24.7482 4 24.3156C4.10988 23.8533 4.39634 23.658 4.85937 23.7296C5.16304 23.9727 5.50158 24.1549 5.875 24.2765C6.2691 24.345 6.63368 24.2669 6.96875 24.0421C7.67039 23.483 8.39961 22.9621 9.15625 22.4796C9.75797 22.1451 10.383 21.8977 11.0312 21.7374Z" fill="#FF8E7C"/>
<path opacity="0.909" fill-rule="evenodd" clip-rule="evenodd" d="M11.1325 25.6275C11.3167 25.6148 11.4989 25.6278 11.6794 25.6666C12.7601 26.7473 13.8409 27.8281 14.9216 28.9088C14.9963 29.7607 14.6447 30.0081 13.8669 29.651C12.8903 28.6744 11.9138 27.6978 10.9372 26.7213C10.6556 26.2869 10.7206 25.9223 11.1325 25.6275Z" fill="#FF8E7C"/>
<path opacity="0.918" fill-rule="evenodd" clip-rule="evenodd" d="M17.5393 27.5026C18.2215 27.4821 18.534 27.8206 18.4768 28.5182C18.4091 29.331 18.1617 30.0863 17.7346 30.7838C17.1617 31.6172 16.5887 32.4505 16.0158 33.2838C15.9211 33.5391 15.8951 33.7995 15.9377 34.0651C16.0593 34.4385 16.2415 34.777 16.4846 35.0807C16.5199 35.722 16.2204 35.9694 15.5861 35.8229C14.8623 35.1675 14.5629 34.3472 14.6877 33.362C14.9351 32.4902 15.3779 31.7349 16.0158 31.0963C16.5316 30.3772 16.9222 29.5959 17.1877 28.7526C17.2045 28.4904 17.2045 28.23 17.1877 27.9713C17.2345 27.7562 17.3517 27.5999 17.5393 27.5026Z" fill="#FF8E7C"/>
</g>
<defs>
<clipPath id="clip0_197_2192">
<rect width="40" height="40" fill="white" transform="translate(0 0.666626)"/>
</clipPath>
</defs>
</svg>
