<svg width="40" height="41" viewBox="0 0 40 41" fill="none" xmlns="http://www.w3.org/2000/svg">
<g clip-path="url(#clip0_198_2307)">
<path d="M38.1878 1.73694L37.1878 2.72913L36.8909 2.44788C36.5316 2.09631 36.2425 2.01038 35.9847 2.18225C35.8831 2.24475 34.0394 3.64319 31.8988 5.276L28.0081 8.25256L25.6878 10.6119L23.3675 12.9713L22.8988 12.5104L22.43 12.0494L22.7425 11.6979C23.0863 11.2994 23.1175 11.0963 22.8831 10.7916C22.7659 10.6354 22.6566 10.5885 22.4378 10.5885C22.1644 10.5885 21.9534 10.7838 17.5628 15.1823C13.1644 19.5729 12.9691 19.7838 12.9691 20.0573C12.9691 20.276 13.0159 20.3854 13.1722 20.5026C13.4769 20.7369 13.68 20.7057 14.0784 20.3619L14.43 20.0494L14.8909 20.5182L15.3519 20.9791L14.2191 22.1119L13.0863 23.2448L12.3831 22.5416C12.0003 22.1588 11.5941 21.8151 11.4847 21.776C11.0863 21.6276 10.6331 22.026 10.7425 22.4401C10.7659 22.5573 11.1175 22.9791 11.5081 23.3776L12.2191 24.1119L11.5472 24.7838L10.8675 25.4635L10.0863 24.7057C9.46907 24.1041 9.25813 23.9479 9.07844 23.9479C8.78157 23.9479 8.51594 24.2369 8.51594 24.5729C8.51594 24.7916 8.6175 24.9323 9.25813 25.5807L10.0003 26.3385L9.53157 26.7994L9.06282 27.2604L8.29719 26.5026C7.44563 25.6666 7.21907 25.5729 6.89094 25.9244C6.555 26.276 6.64875 26.4869 7.48469 27.3307L8.2425 28.0963L7.60188 28.7135C6.78157 29.5104 6.50032 29.6041 5.00032 29.5963C3.84407 29.5963 2.96907 29.4713 1.58625 29.1041C0.523753 28.8229 0.437816 28.8151 0.195628 29.0651C-0.234059 29.4869 -0.460622 29.2291 5.4925 35.1823L10.9769 40.6744L11.3284 40.651C11.6097 40.6354 11.6956 40.5885 11.7894 40.4166C11.8988 40.2291 11.8831 40.1198 11.6175 39.0494C11.2269 37.4869 11.1488 36.901 11.1409 35.7057C11.1409 34.9635 11.18 34.5651 11.2816 34.2213C11.4222 33.7526 11.4222 33.7526 16.7972 28.3619C19.7503 25.3932 22.2113 22.8932 22.2581 22.7994C22.4534 22.4166 22.1488 21.9948 21.68 21.9948C21.4769 21.9948 20.8128 22.6354 16.0159 27.4479C10.18 33.2916 10.3363 33.1119 10.0706 34.1823C9.93 34.7369 9.93 36.7604 10.0706 37.526C10.1253 37.8385 10.1566 38.1119 10.1409 38.1276C10.1253 38.1432 8.40657 36.4557 6.32844 34.3619C2.69563 30.7213 2.555 30.5729 2.85188 30.6198C3.96125 30.7838 4.67219 30.8385 5.43 30.7994C6.89875 30.7213 7.4925 30.4791 8.46907 29.5573L9.1175 28.9557L9.6175 29.4635C9.89094 29.7369 10.18 29.9869 10.2581 30.0104C10.6253 30.1276 11.0784 29.6823 10.9691 29.3073C10.9456 29.2213 10.6956 28.9166 10.4222 28.6354L9.92219 28.1198L10.3831 27.6666L10.8519 27.2057L11.4066 27.7213C11.9769 28.2682 12.2269 28.3619 12.5159 28.1354C12.9222 27.8307 12.8128 27.401 12.1566 26.7604L11.7191 26.3385L12.3988 25.651L13.0784 24.9713L13.6097 25.4713C14.055 25.8932 14.1878 25.9791 14.4144 25.9791C14.7581 25.9791 15.0003 25.7526 15.0003 25.4244C15.0003 25.2291 14.8909 25.0729 14.4769 24.6432L13.9534 24.0963L15.0784 22.9713C15.7191 22.3229 16.2347 21.8698 16.2738 21.9088C16.3128 21.9479 16.305 22.0494 16.2581 22.1354C16.1253 22.3932 16.1566 23.1666 16.3206 23.5182C16.6253 24.1744 17.2581 24.5729 18.0081 24.5729C18.7191 24.5729 19.3128 24.2213 19.6175 23.6198C20.3597 22.1666 19.0394 20.5494 17.4769 20.9869C17.305 21.0338 17.1488 21.0494 17.1253 21.0182C17.0706 20.9635 19.7738 18.2369 19.8441 18.2838C19.8753 18.2994 19.8441 18.526 19.7816 18.776C19.68 19.1901 19.6878 19.2838 19.7972 19.6823C20.3284 21.4948 22.9534 21.4166 23.3519 19.5729C23.6409 18.2291 22.43 17.0651 21.1097 17.4088C20.8831 17.4713 20.6878 17.4948 20.6644 17.4635C20.6175 17.3932 23.3441 14.6901 23.4066 14.7448C23.43 14.776 23.4144 14.9088 23.3675 15.0494C22.8675 16.4791 24.4691 17.9323 25.8597 17.2994C26.2894 17.1041 26.4456 16.9713 26.7113 16.5651C26.8831 16.2916 26.9144 16.1666 26.9144 15.6119C26.9144 15.0338 26.8909 14.9479 26.68 14.6432C26.2894 14.0885 25.8675 13.8385 25.2425 13.8073C24.9222 13.7838 24.6409 13.8151 24.5316 13.8698C23.9769 14.1666 24.43 13.6198 26.2503 11.7994L28.2816 9.76819L29.6253 11.1119L30.9769 12.4635L27.0941 16.3463C24.9691 18.4869 23.1956 20.3151 23.1644 20.4166C23.0238 20.8854 23.5003 21.2916 23.9534 21.0963C24.0784 21.0416 26.0159 19.151 28.2581 16.901L32.3284 12.8151L35.5081 8.72131C39.0706 4.12756 38.8909 4.44788 38.305 3.85413L38.0159 3.55725L39.0081 2.55725C40.0941 1.45569 40.1722 1.29944 39.805 0.940063C39.4456 0.572876 39.2894 0.651001 38.1878 1.73694ZM36.7894 3.97913L37.2894 4.47913L37.0628 4.78381C36.9378 4.95569 35.6956 6.55725 34.2972 8.34631L31.7659 11.6119L30.4534 10.2994C29.7347 9.58069 29.1488 8.95569 29.1644 8.92444C29.1878 8.85413 36.18 3.47913 36.2503 3.47913C36.2738 3.47913 36.5159 3.70569 36.7894 3.97913ZM22.055 13.3854L22.5003 13.8307L21.1331 15.1979L19.7659 16.5651L19.2972 16.0963L18.8284 15.6276L20.1722 14.2838C20.9144 13.5416 21.5394 12.9323 21.5628 12.9323C21.5863 12.9323 21.805 13.1354 22.055 13.3854ZM25.5863 15.1588C25.8753 15.4401 25.8519 15.8307 25.5316 16.0963C25.2581 16.3307 24.9144 16.3229 24.6722 16.0729C24.4222 15.8307 24.4144 15.4869 24.6488 15.2135C24.9144 14.8932 25.305 14.8698 25.5863 15.1588ZM17.5784 18.7526L16.2113 20.1198L15.7425 19.651L15.2738 19.1823L16.6409 17.8151L18.0081 16.4479L18.4769 16.9166L18.9456 17.3854L17.5784 18.7526ZM22.0081 18.7291C22.2425 18.9479 22.2503 19.3776 22.0159 19.6276C21.6331 20.0338 20.9066 19.7291 20.9222 19.1744C20.9378 18.6276 21.6097 18.3541 22.0081 18.7291ZM18.4456 22.276C18.7347 22.5416 18.6956 23.0494 18.3675 23.2994C18.1566 23.4635 17.7503 23.4166 17.5394 23.2057C17.0941 22.7682 17.4691 22.0026 18.0784 22.1119C18.2034 22.1354 18.3753 22.2057 18.4456 22.276Z" fill="#FF8E7C"/>
</g>
<defs>
<clipPath id="clip0_198_2307">
<rect width="40" height="40" fill="white" transform="translate(0 0.666626)"/>
</clipPath>
</defs>
</svg>
