<svg width="22" height="26" viewBox="0 0 22 26" fill="none" xmlns="http://www.w3.org/2000/svg">
<path d="M21.6666 4.57292H16.4583V2.48958C16.4583 1.93705 16.2388 1.40715 15.8481 1.01644C15.4574 0.625743 14.9275 0.40625 14.3749 0.40625L8.12492 0.40625C7.57238 0.40625 7.04248 0.625743 6.65178 1.01644C6.26108 1.40715 6.04159 1.93705 6.04159 2.48958V4.57292H0.833252V6.65625H2.91659V22.2812C2.91659 23.1101 3.24583 23.9049 3.83188 24.491C4.41793 25.077 5.21278 25.4062 6.04159 25.4062H16.4583C17.2871 25.4062 18.0819 25.077 18.668 24.491C19.254 23.9049 19.5833 23.1101 19.5833 22.2812V6.65625H21.6666V4.57292ZM8.12492 2.48958H14.3749V4.57292H8.12492V2.48958ZM17.4999 22.2812C17.4999 22.5575 17.3902 22.8225 17.1948 23.0178C16.9995 23.2132 16.7345 23.3229 16.4583 23.3229H6.04159C5.76532 23.3229 5.50037 23.2132 5.30502 23.0178C5.10967 22.8225 4.99992 22.5575 4.99992 22.2812V6.65625H17.4999V22.2812Z" fill="#55648B"/>
<path d="M10.2083 10.8228H8.125V19.1561H10.2083V10.8228Z" fill="#55648B"/>
<path d="M14.3748 10.8228H12.2915V19.1561H14.3748V10.8228Z" fill="#55648B"/>
</svg>
