<svg width="22" height="23" viewBox="0 0 22 23" fill="none" xmlns="http://www.w3.org/2000/svg">
<g clip-path="url(#clip0_588_2950)">
<path d="M17.4167 4.50651H16.4074C15.9812 2.41743 14.1295 0.839844 11.9167 0.839844H4.58333C2.05608 0.839844 0 2.89593 0 5.42318V17.206C0 17.9338 0.39875 18.5993 1.0395 18.9422C1.331 19.0989 1.65092 19.1759 1.96992 19.1759C2.35125 19.1759 2.73167 19.065 3.06075 18.8459L5.76492 17.0428C6.39833 18.8166 8.09417 20.0898 10.0833 20.0898H15.3056L18.9392 22.5135C19.2683 22.7326 19.6488 22.8435 20.0301 22.8435C20.3491 22.8435 20.6681 22.7656 20.9605 22.6088C21.6012 22.2651 22 21.5996 22 20.8727V9.08984C22 6.56259 19.9439 4.50651 17.4167 4.50651ZM2.04417 17.3206C2.02675 17.3316 1.97633 17.3646 1.90483 17.327C1.83242 17.2885 1.83242 17.2271 1.83242 17.2069V5.42318C1.83242 3.90701 3.06625 2.67318 4.58242 2.67318H11.9157C13.4319 2.67318 14.6657 3.90701 14.6657 5.42318V11.8398C14.6657 13.356 13.4319 14.5898 11.9157 14.5898H6.41575C6.13525 14.5898 5.91983 14.7356 5.89783 14.7503L2.04417 17.3206ZM20.1667 20.8736C20.1667 20.8928 20.1667 20.9552 20.0952 20.9937C20.0218 21.0331 19.9723 20.9992 19.9558 20.9873L16.0921 18.4105C15.9418 18.3106 15.7648 18.2565 15.5833 18.2565H10.0833C8.888 18.2565 7.86958 17.4902 7.491 16.4232H11.9167C14.4439 16.4232 16.5 14.3671 16.5 11.8398V6.33984H17.4167C18.9328 6.33984 20.1667 7.57368 20.1667 9.08984V20.8736ZM5.5 7.25651C5.5 6.44159 5.85842 5.67343 6.48267 5.14909C7.10692 4.62476 7.92825 4.40293 8.74042 4.55051C9.84867 4.74393 10.7607 5.65509 10.956 6.76609C11.1604 7.93209 10.6058 9.09718 9.5755 9.66643C9.16575 9.89193 9.16575 9.95793 9.16575 10.0065C9.16575 10.5134 8.75508 10.9232 8.24908 10.9232C7.74308 10.9232 7.33242 10.5134 7.33242 10.0065C7.33242 8.80751 8.28392 8.28409 8.69 8.06043C8.95583 7.91468 9.23542 7.57001 9.15017 7.08326C9.08692 6.72393 8.78167 6.41868 8.42325 6.35634C8.14275 6.30501 7.87142 6.37651 7.66058 6.55434C7.45158 6.72851 7.33242 6.98518 7.33242 7.25743C7.33242 7.76434 6.92175 8.17409 6.41575 8.17409C5.90975 8.17409 5.49908 7.76434 5.49908 7.25743L5.5 7.25651ZM9.16667 12.7565C9.16667 13.2625 8.756 13.6732 8.25 13.6732C7.744 13.6732 7.33333 13.2625 7.33333 12.7565C7.33333 12.2505 7.744 11.8398 8.25 11.8398C8.756 11.8398 9.16667 12.2505 9.16667 12.7565Z" fill="#161C3D"/>
</g>
<defs>
<clipPath id="clip0_588_2950">
<rect width="22" height="22" fill="white" transform="translate(0 0.839844)"/>
</clipPath>
</defs>
</svg>
