<svg width="19" height="23" viewBox="0 0 19 23" fill="none" xmlns="http://www.w3.org/2000/svg">
<path d="M16.9522 7.51271L8.20613 1.09525C7.52303 0.595037 6.71474 0.293791 5.87088 0.224913C5.02702 0.156034 4.18057 0.322214 3.42539 0.705025C2.67022 1.08784 2.03581 1.67232 1.59253 2.39367C1.14925 3.11502 0.914416 3.94504 0.914062 4.79171V17.6266C0.914214 18.4737 1.14906 19.3041 1.59255 20.0258C2.03603 20.7475 2.67081 21.3321 3.42643 21.7149C4.18204 22.0977 5.02895 22.2637 5.87315 22.1943C6.71736 22.125 7.52584 21.8231 8.20888 21.3222L16.955 14.9047C17.5355 14.479 18.0077 13.9224 18.3331 13.2802C18.6585 12.638 18.8281 11.9282 18.8281 11.2083C18.8281 10.4883 18.6585 9.77848 18.3331 9.13627C18.0077 8.49407 17.5355 7.93755 16.955 7.51179L16.9522 7.51271ZM15.8668 13.4259L7.12067 19.8434C6.71088 20.1429 6.22622 20.3231 5.72035 20.3641C5.21447 20.4051 4.70711 20.3054 4.25441 20.0759C3.80172 19.8464 3.42135 19.4962 3.15541 19.0639C2.88947 18.6316 2.74834 18.1342 2.74762 17.6266V4.79171C2.74254 4.28321 2.88101 3.7836 3.14713 3.35027C3.41326 2.91695 3.79624 2.5675 4.25206 2.34207C4.63976 2.14486 5.06849 2.04184 5.50346 2.04136C6.08644 2.04359 6.65331 2.23287 7.12067 2.58135L15.8668 8.99881C16.2147 9.25431 16.4976 9.58812 16.6925 9.97323C16.8875 10.3583 16.9891 10.7839 16.9891 11.2156C16.9891 11.6472 16.8875 12.0728 16.6925 12.4579C16.4976 12.8431 16.2147 13.1769 15.8668 13.4324V13.4259Z" fill="#55648B"/>
</svg>
