<svg width="33" height="34" viewBox="0 0 33 34" fill="none" xmlns="http://www.w3.org/2000/svg">
<path d="M27.5 18.083C27.4924 17.2563 27.1592 16.4659 26.5729 15.883L19.8314 9.12591C19.537 8.83323 19.1387 8.66895 18.7236 8.66895C18.3084 8.66895 17.9101 8.83323 17.6157 9.12591C17.4684 9.27199 17.3515 9.44579 17.2717 9.63729C17.192 9.82878 17.1509 10.0342 17.1509 10.2416C17.1509 10.4491 17.192 10.6545 17.2717 10.846C17.3515 11.0374 17.4684 11.2112 17.6157 11.3573L22.7857 16.5116H7.07143C6.65466 16.5116 6.25496 16.6772 5.96026 16.9719C5.66556 17.2666 5.5 17.6663 5.5 18.083C5.5 18.4998 5.66556 18.8995 5.96026 19.1942C6.25496 19.4889 6.65466 19.6545 7.07143 19.6545H22.7857L17.6157 24.8245C17.3198 25.1183 17.1527 25.5176 17.1513 25.9346C17.1498 26.3516 17.314 26.7521 17.6079 27.0481C17.9017 27.344 18.301 27.511 18.718 27.5125C19.135 27.514 19.5355 27.3497 19.8314 27.0559L26.5729 20.2988C27.1631 19.7121 27.4965 18.9152 27.5 18.083Z" fill="#FF715A"/>
</svg>
