<svg width="22" height="22" viewBox="0 0 22 22" fill="none" xmlns="http://www.w3.org/2000/svg">
<path d="M21.8457 8.0652C21.6582 7.46825 21.2835 6.9475 20.7771 6.57996C20.2707 6.21242 19.6595 6.01761 19.0338 6.02433H15.0282L13.8115 2.23231C13.6202 1.63541 13.2443 1.1147 12.7379 0.745266C12.2315 0.375829 11.6209 0.176758 10.9941 0.176758C10.3673 0.176758 9.75669 0.375829 9.25032 0.745266C8.74396 1.1147 8.36801 1.63541 8.17669 2.23231L6.96005 6.02433H2.95441C2.33072 6.02522 1.72327 6.22318 1.21882 6.58993C0.71437 6.95668 0.338719 7.47347 0.145525 8.06647C-0.0476699 8.65948 -0.048525 9.29837 0.143081 9.89189C0.334688 10.4854 0.708954 11.0032 1.21242 11.3713L4.47268 13.7551L3.23312 17.5938C3.03281 18.1892 3.03027 18.8334 3.22589 19.4303C3.42151 20.0273 3.80481 20.545 4.31865 20.9064C4.82369 21.2793 5.43571 21.4791 6.06353 21.476C6.69134 21.4728 7.30133 21.2669 7.80262 20.8889L10.9941 18.54L14.1865 20.8862C14.6906 21.257 15.2994 21.4584 15.9252 21.4615C16.551 21.4645 17.1616 21.269 17.6694 20.9032C18.1771 20.5373 18.5557 20.0198 18.7508 19.4252C18.9459 18.8306 18.9474 18.1894 18.7551 17.5938L17.5155 13.7551L20.7795 11.3713C21.2887 11.0078 21.6673 10.49 21.8594 9.8946C22.0514 9.29916 22.0466 8.65771 21.8457 8.0652ZM19.6976 9.89061L15.8983 12.6677C15.7422 12.7815 15.6261 12.9418 15.5665 13.1255C15.5069 13.3092 15.5068 13.5071 15.5664 13.6909L17.0104 18.1559C17.0834 18.3823 17.0828 18.6261 17.0086 18.8522C16.9344 19.0783 16.7904 19.275 16.5973 19.4141C16.4042 19.5532 16.172 19.6275 15.934 19.6262C15.6961 19.625 15.4646 19.5484 15.273 19.4073L11.5369 16.6568C11.3795 16.5413 11.1894 16.4789 10.9941 16.4789C10.7989 16.4789 10.6087 16.5413 10.4513 16.6568L6.71525 19.4073C6.52371 19.5503 6.29162 19.6285 6.05263 19.6307C5.81363 19.6328 5.58016 19.5588 5.38606 19.4194C5.19195 19.2799 5.0473 19.0823 4.97308 18.8551C4.89886 18.6279 4.89893 18.383 4.97327 18.1559L6.42187 13.6909C6.48139 13.5071 6.48134 13.3092 6.42174 13.1255C6.36214 12.9418 6.24603 12.7815 6.08997 12.6677L2.29062 9.89061C2.09928 9.75052 1.95711 9.55354 1.88441 9.32781C1.81171 9.10208 1.8122 8.85915 1.88582 8.63372C1.95944 8.4083 2.10241 8.2119 2.29432 8.07258C2.48623 7.93327 2.71726 7.85816 2.95441 7.85799H7.63025C7.82436 7.85799 8.01346 7.79638 8.17031 7.68203C8.32717 7.56769 8.44368 7.40651 8.50308 7.22171L9.92417 2.79249C9.99711 2.56584 10.1401 2.36818 10.3325 2.22795C10.525 2.08773 10.7569 2.01218 10.995 2.01218C11.2331 2.01218 11.4651 2.08773 11.6575 2.22795C11.85 2.36818 11.9929 2.56584 12.0659 2.79249L13.487 7.22171C13.5464 7.40651 13.6629 7.56769 13.8197 7.68203C13.9766 7.79638 14.1657 7.85799 14.3598 7.85799H19.0357C19.2728 7.85816 19.5038 7.93327 19.6957 8.07258C19.8876 8.2119 20.0306 8.4083 20.1042 8.63372C20.1779 8.85915 20.1783 9.10208 20.1056 9.32781C20.033 9.55354 19.8908 9.75052 19.6994 9.89061H19.6976Z" fill="black"/>
</svg>
