<svg width="22" height="22" viewBox="0 0 22 22" fill="none" xmlns="http://www.w3.org/2000/svg">
<path d="M21.8457 8.0652C21.6582 7.46825 21.2835 6.9475 20.7771 6.57996C20.2707 6.21242 19.6595 6.01761 19.0338 6.02433H15.0282L13.8115 2.23231C13.6202 1.63541 13.2443 1.1147 12.7379 0.745266C12.2315 0.375829 11.6209 0.176758 10.9941 0.176758C10.3673 0.176758 9.75669 0.375829 9.25032 0.745266C8.74396 1.1147 8.36801 1.63541 8.17668 2.23231L6.96005 6.02433H2.95441C2.33072 6.02522 1.72327 6.22318 1.21882 6.58993C0.71437 6.95668 0.338719 7.47347 0.145525 8.06647C-0.0476699 8.65948 -0.048525 9.29837 0.143081 9.89189C0.334688 10.4854 0.708954 11.0032 1.21242 11.3713L4.47268 13.7551L3.23312 17.5938C3.03281 18.1892 3.03027 18.8334 3.22589 19.4303C3.42151 20.0273 3.80481 20.545 4.31865 20.9064C4.82369 21.2793 5.43571 21.4791 6.06353 21.476C6.69134 21.4728 7.30133 21.2669 7.80262 20.8889L10.9941 18.54L14.1865 20.8862C14.6906 21.257 15.2994 21.4584 15.9252 21.4615C16.551 21.4645 17.1616 21.269 17.6694 20.9032C18.1771 20.5373 18.5557 20.0198 18.7508 19.4252C18.9459 18.8306 18.9474 18.1894 18.7551 17.5938L17.5155 13.7551L20.7795 11.3713C21.2887 11.0078 21.6673 10.49 21.8594 9.8946C22.0514 9.29916 22.0466 8.65771 21.8457 8.0652Z" fill="#161C3D"/>
</svg>
