<svg width="26" height="27" viewBox="0 0 26 27" fill="none" xmlns="http://www.w3.org/2000/svg">
<g clip-path="url(#clip0_69_188)">
<path fill-rule="evenodd" clip-rule="evenodd" d="M4.33325 5.82275C4.33325 4.02783 5.78833 2.57275 7.58325 2.57275H18.4166C20.2116 2.57275 21.6666 4.02783 21.6666 5.82275V23.1869C21.6666 24.5086 20.1726 25.2774 19.097 24.5092L12.9999 20.1541L6.90277 24.5092C5.82723 25.2774 4.33325 24.5086 4.33325 23.1869V5.82275ZM7.58325 4.73942C6.98495 4.73942 6.49992 5.22445 6.49992 5.82275V22.1343L12.0554 18.1661C12.6204 17.7625 13.3794 17.7625 13.9445 18.1661L19.4999 22.1343V5.82275C19.4999 5.22445 19.0149 4.73942 18.4166 4.73942H7.58325Z" fill="#55648B"/>
</g>
<defs>
<clipPath id="clip0_69_188">
<rect width="26" height="26" fill="white" transform="translate(0 0.40625)"/>
</clipPath>
</defs>
</svg>
