<svg width="22" height="22" viewBox="0 0 22 22" fill="none" xmlns="http://www.w3.org/2000/svg">
<path d="M16.0396 0.659668C15.0078 0.675717 13.9985 0.963744 13.1137 1.49466C12.2288 2.02558 11.4997 2.78059 11 3.68345C10.5003 2.78059 9.77118 2.02558 8.88632 1.49466C8.00146 0.963744 6.99216 0.675717 5.96037 0.659668C4.31556 0.731131 2.76589 1.45066 1.64991 2.66107C0.533927 3.87148 -0.0576437 5.47437 0.00443589 7.11956C0.00443589 13.3275 10.0434 20.4975 10.4704 20.8017L11 21.1765L11.5296 20.8017C11.9566 20.4993 21.9956 13.3275 21.9956 7.11956C22.0576 5.47437 21.4661 3.87148 20.3501 2.66107C19.2341 1.45066 17.6844 0.731131 16.0396 0.659668ZM11 18.9206C8.01929 16.694 1.83703 11.2237 1.83703 7.11956C1.77439 5.96019 2.17273 4.82307 2.94517 3.95623C3.7176 3.08939 4.80147 2.56314 5.96037 2.49226C7.11927 2.56314 8.20313 3.08939 8.97557 3.95623C9.748 4.82307 10.1463 5.96019 10.0837 7.11956H11.9163C11.8537 5.96019 12.252 4.82307 13.0244 3.95623C13.7969 3.08939 14.8807 2.56314 16.0396 2.49226C17.1985 2.56314 18.2824 3.08939 19.0548 3.95623C19.8273 4.82307 20.2256 5.96019 20.163 7.11956C20.163 11.2255 13.9807 16.694 11 18.9206Z" fill="black"/>
</svg>
