<svg width="22" height="21" viewBox="0 0 22 21" fill="none" xmlns="http://www.w3.org/2000/svg">
<path d="M20.2189 4.10768L13.4595 0.887517C11.9717 -0.00122535 10.1198 -0.0169946 8.61692 0.846268L1.78154 4.10768C1.75589 4.12053 1.72929 4.13428 1.70454 4.14893C0.0824297 5.07643 -0.480704 7.14331 0.446795 8.76542C0.761189 9.31532 1.22365 9.76588 1.78154 10.0659L3.66709 10.9642V15.4557C3.66821 17.4642 4.97507 19.2386 6.89276 19.8355C8.22729 20.2215 9.61106 20.4106 11.0003 20.3965C12.3892 20.412 13.773 20.2246 15.1077 19.8401C17.0254 19.2432 18.3323 17.4688 18.3334 15.4603V10.9624L20.1667 10.086V17.6465C20.1667 18.1527 20.5771 18.5631 21.0833 18.5631C21.5896 18.5631 22 18.1527 22 17.6465V6.64677C22.0061 5.57039 21.1562 4.57603 20.2189 4.10768ZM16.5001 15.4603C16.5005 16.6617 15.7211 17.7243 14.5751 18.0847C13.413 18.4167 12.2088 18.5779 11.0002 18.5632C9.79166 18.5779 8.5874 18.4167 7.4253 18.0847C6.27931 17.7243 5.49988 16.6617 5.50035 15.4603V11.8378L8.54087 13.2861C9.29108 13.7316 10.1479 13.9657 11.0204 13.9635C11.8509 13.9694 12.6674 13.7495 13.3826 13.3273L16.5001 11.8377V15.4603ZM19.4333 8.41132L12.52 11.7112C11.5561 12.2725 10.3613 12.2566 9.4126 11.67L2.64867 8.45257C1.89472 8.04601 1.61311 7.10524 2.01967 6.35133C2.15717 6.09636 2.36332 5.885 2.61477 5.74114L9.485 2.45957C10.4492 1.89953 11.6434 1.91539 12.5924 2.50082L19.3517 5.72099C19.8488 5.99701 20.1598 6.51826 20.1666 7.0868C20.1675 7.62536 19.8902 8.12619 19.4333 8.41132Z" fill="white"/>
</svg>
