<svg width="22" height="24" viewBox="0 0 22 24" fill="none" xmlns="http://www.w3.org/2000/svg">
<path d="M21.8946 15.8189L19.394 6.80635C18.86 4.87844 17.6966 3.18453 16.0887 1.99421C14.4809 0.803891 12.5211 0.185572 10.5213 0.23766C8.52151 0.289748 6.59658 1.00925 5.0529 2.28165C3.50922 3.55406 2.4355 5.30624 2.00262 7.25934L0.0685375 15.9632C-0.0250481 16.3849 -0.0227653 16.8222 0.0752172 17.2429C0.1732 17.6635 0.364382 18.0568 0.634659 18.3938C0.904935 18.7307 1.24741 19.0026 1.63681 19.1895C2.02622 19.3764 2.45262 19.4735 2.88455 19.4736H6.35359C6.57433 20.5607 7.16409 21.538 8.02295 22.24C8.8818 22.942 9.95694 23.3254 11.0662 23.3254C12.1754 23.3254 13.2506 22.942 14.1094 22.24C14.9683 21.538 15.558 20.5607 15.7788 19.4736H19.1161C19.5605 19.4734 19.9989 19.3705 20.397 19.173C20.7951 18.9755 21.1423 18.6887 21.4113 18.3349C21.6803 17.9812 21.864 17.5701 21.948 17.1336C22.032 16.6972 22.0131 16.2473 21.8946 15.8189ZM11.0662 21.3971C10.4716 21.3946 9.89224 21.2085 9.40745 20.8642C8.92266 20.5199 8.55609 20.0342 8.35789 19.4736H13.7745C13.5763 20.0342 13.2097 20.5199 12.7249 20.8642C12.2401 21.2085 11.6608 21.3946 11.0662 21.3971ZM19.8806 17.1702C19.7909 17.2892 19.6746 17.3855 19.541 17.4514C19.4074 17.5174 19.2602 17.5512 19.1112 17.5501H2.88455C2.74054 17.5501 2.59837 17.5177 2.46854 17.4554C2.33871 17.3931 2.22453 17.3024 2.13443 17.19C2.04434 17.0777 1.98062 16.9466 1.94798 16.8063C1.91535 16.666 1.91463 16.5202 1.94588 16.3796L3.87996 7.67578C4.22076 6.14294 5.06418 4.76802 6.27613 3.76957C7.48808 2.77112 8.99901 2.20645 10.5687 2.16533C12.1385 2.12421 13.6769 2.60899 14.9395 3.54261C16.202 4.47624 17.1163 5.80512 17.5369 7.31801L20.0374 16.3306C20.0782 16.4731 20.0853 16.6232 20.0581 16.7689C20.0309 16.9146 19.9702 17.052 19.8806 17.1702Z" fill="black"/>
</svg>
