<svg width="17" height="23" viewBox="0 0 17 23" fill="none" xmlns="http://www.w3.org/2000/svg">
<path d="M3.70858 0.209717C2.85767 0.209717 2.04162 0.547737 1.43994 1.14942C0.838264 1.7511 0.500244 2.56715 0.500244 3.41805V19.0014C0.500244 19.8523 0.838264 20.6683 1.43994 21.27C2.04162 21.8717 2.85767 22.2097 3.70858 22.2097C4.55948 22.2097 5.37553 21.8717 5.97721 21.27C6.57889 20.6683 6.91691 19.8523 6.91691 19.0014V3.41805C6.91691 2.56715 6.57889 1.7511 5.97721 1.14942C5.37553 0.547737 4.55948 0.209717 3.70858 0.209717Z" fill="#161C3D"/>
<path d="M13.7918 0.209717C12.9409 0.209717 12.1249 0.547737 11.5232 1.14942C10.9215 1.7511 10.5835 2.56715 10.5835 3.41805V19.0014C10.5835 19.8523 10.9215 20.6683 11.5232 21.27C12.1249 21.8717 12.9409 22.2097 13.7918 22.2097C14.6427 22.2097 15.4588 21.8717 16.0605 21.27C16.6621 20.6683 17.0002 19.8523 17.0002 19.0014V3.41805C17.0002 2.56715 16.6621 1.7511 16.0605 1.14942C15.4588 0.547737 14.6427 0.209717 13.7918 0.209717Z" fill="#161C3D"/>
</svg>
