<svg width="40" height="41" viewBox="0 0 40 41" fill="none" xmlns="http://www.w3.org/2000/svg">
<g clip-path="url(#clip0_198_2215)">
<path d="M36.3197 0.893203C36.1322 1.0182 34.9057 2.19008 33.601 3.50258L31.2182 5.8932L31.0307 5.73695C30.7572 5.52602 30.3588 5.43227 30.0541 5.5182C29.6713 5.61977 28.39 6.94789 28.3197 7.30727C28.265 7.61195 28.3744 7.97133 28.5932 8.2057C28.7494 8.36977 28.7416 8.36977 28.2025 8.90883L27.6557 9.44789L27.3041 9.10414C26.9057 8.71352 26.5854 8.65883 26.3119 8.93227C26.0385 9.2057 26.0932 9.52602 26.4916 9.93227L26.8275 10.276L26.2338 10.8776L25.64 11.4713L25.265 11.1432C24.9525 10.8698 24.8432 10.8229 24.6244 10.8385C24.2729 10.8698 24.015 11.1823 24.0932 11.487C24.1244 11.5963 24.2807 11.8385 24.4525 12.026L24.7572 12.3541L23.3354 13.7604L21.9135 15.1745L21.64 15.0729C21.2729 14.9401 20.7885 14.9401 20.4135 15.0729L20.101 15.1823L19.6791 14.7526C19.1479 14.2213 18.9369 14.1041 18.4447 14.1041C18.1166 14.1041 18.0072 14.1432 17.6791 14.4088C17.476 14.5729 14.0619 17.9635 10.101 21.9245C3.7963 28.2448 2.89005 29.1823 2.80411 29.4713C2.66348 29.9713 2.7963 30.3307 3.36661 30.9401C3.82755 31.4245 3.84317 31.4557 3.75723 31.6901C3.64786 32.0104 3.64786 32.6823 3.75723 33.0026L3.84317 33.2526L1.96817 35.151C-0.555266 37.6901 -0.524016 37.5026 1.31973 39.3541C3.14786 41.1823 2.99161 41.2057 5.4213 38.7995C6.39786 37.8307 7.24942 36.9323 7.30411 36.8073C7.4213 36.5338 7.32755 36.1745 7.1088 36.0573C6.70255 35.8385 6.6088 35.9088 4.78848 37.7135L3.0463 39.4479L2.12442 38.5338L1.21036 37.6198L2.96817 35.862C4.19473 34.6276 4.76505 34.1198 4.84317 34.151C6.12442 34.7057 7.57755 33.7604 7.57755 32.3854C7.57755 32.1354 7.53848 31.8229 7.49161 31.6901C7.40567 31.4557 7.4213 31.4166 7.60098 31.237C7.78067 31.0573 7.81973 31.0416 8.05411 31.1276C8.18692 31.1745 8.50723 31.2135 8.74942 31.2135C9.61661 31.2135 10.39 30.5885 10.6322 29.7057C10.7182 29.3776 10.6713 28.7838 10.5307 28.526C10.4682 28.4166 10.4994 28.3385 10.6557 28.1745L10.8588 27.9557L11.3197 28.0807C12.7807 28.4635 14.0854 27.1041 13.6713 25.6198C13.5775 25.276 13.5775 25.2526 13.765 25.0651C13.9525 24.8776 13.9838 24.8776 14.2572 24.9635C14.4135 25.0182 14.765 25.0416 15.0385 25.026C15.6947 24.987 16.1947 24.6823 16.5307 24.1198C16.8432 23.6041 16.9135 23.1745 16.765 22.6198C16.6557 22.1979 16.6557 22.1901 16.8432 21.987C17.0307 21.7916 17.0541 21.7838 17.3275 21.8854C18.1791 22.1901 19.1869 21.8151 19.6557 21.0104C19.9213 20.5651 19.9916 19.8229 19.8197 19.401C19.7025 19.1276 19.7025 19.112 19.9135 18.9166C20.1088 18.7291 20.1557 18.7213 20.3588 18.7995C20.4838 18.8463 20.8041 18.8854 21.0619 18.8854C22.1479 18.8932 22.9838 18.0338 22.976 16.9166C22.976 16.6745 22.9369 16.3776 22.89 16.2526C22.8041 16.0338 22.8275 16.0026 24.2104 14.6198L25.6244 13.2057L26.5385 14.1276L27.4604 15.0416L17.8275 24.6745C8.5463 33.9557 8.20255 34.3073 8.20255 34.5885C8.20255 34.9166 8.4838 35.1979 8.81973 35.1979C8.9838 35.1979 10.8119 33.4088 18.6713 25.5573L28.3197 15.9088L28.6947 16.2604C29.1166 16.6432 29.3275 16.6823 29.64 16.4401C29.9604 16.1901 29.9213 15.8541 29.515 15.401L29.1947 15.026L29.7885 14.4323L30.39 13.8385L30.726 14.1666C31.1166 14.5495 31.5072 14.612 31.7572 14.3385C32.0072 14.0651 31.9369 13.7448 31.5619 13.362L31.2182 13.0104L31.7572 12.4635C32.2963 11.9245 32.2963 11.9166 32.4604 12.0729C32.6947 12.2916 33.0541 12.401 33.3588 12.3463C33.7182 12.276 35.0463 10.9948 35.1479 10.612C35.2338 10.3073 35.14 9.90102 34.9291 9.63539L34.7807 9.4557L35.7104 8.50258C36.4682 7.73695 36.64 7.51039 36.64 7.3307C36.64 7.00258 36.3822 6.76039 36.0385 6.76039C35.7807 6.76039 35.6713 6.84633 34.8275 7.67445L33.9057 8.58852L32.9838 7.67445L32.0697 6.76039L33.0854 5.74477L34.0932 4.73695L34.4604 5.0807C34.8979 5.48695 35.1479 5.52602 35.4291 5.23695C35.7182 4.9557 35.6791 4.7057 35.2729 4.2682L34.9291 3.90102L35.9369 2.8932L36.9525 1.87758L37.8666 2.79164L38.7807 3.7057L38.1088 4.40102C37.7338 4.78383 37.4057 5.18227 37.3744 5.30727C37.2963 5.62758 37.5463 5.93227 37.9135 5.96352C38.1713 5.98695 38.2494 5.93227 38.8744 5.33852C39.9057 4.35414 40.1322 3.91664 39.9135 3.34633C39.8041 3.06508 37.7025 0.940078 37.3744 0.783828C37.0072 0.611953 36.7104 0.643203 36.3197 0.893203ZM32.1479 8.55727L33.9447 10.3541L33.5541 10.7448L33.1635 11.1354L31.351 9.32289L29.5307 7.50258L29.8979 7.13539C30.101 6.92445 30.2885 6.76039 30.3119 6.76039C30.3354 6.76039 31.1635 7.56508 32.1479 8.55727ZM30.5463 10.1588L31.4447 11.0573L30.8979 11.6041L30.351 12.151L29.4369 11.237L28.515 10.3151L29.0385 9.79164C29.3275 9.49477 29.5854 9.26039 29.6088 9.26039C29.6322 9.26039 30.0541 9.66664 30.5463 10.1588ZM28.9291 13.5729L28.3197 14.1823L27.4057 13.2682L26.4838 12.3463L27.0854 11.7448L27.6947 11.1354L28.6088 12.0495L29.5307 12.9713L28.9291 13.5729ZM18.9135 15.6354L19.2807 16.0026L19.1713 16.3151C19.0385 16.6979 19.0385 17.1745 19.1713 17.5573C19.2729 17.8307 19.265 17.8541 19.0619 18.0495C18.8744 18.2291 18.8275 18.237 18.6244 18.1666C18.3197 18.0495 17.6713 18.0495 17.3119 18.1666C17.015 18.2604 17.015 18.2604 16.6322 17.8854L16.2494 17.5104L17.3588 16.3932C17.976 15.776 18.4916 15.276 18.515 15.276C18.5307 15.276 18.7104 15.4401 18.9135 15.6354ZM21.5697 16.3385C21.7416 16.4948 21.8588 16.8776 21.8119 17.1276C21.765 17.3698 21.4447 17.6745 21.1869 17.7213C20.9447 17.7682 20.5619 17.6276 20.4057 17.4401C20.3432 17.3698 20.2807 17.1745 20.2572 17.0026C20.2182 16.7213 20.2416 16.6588 20.4994 16.401C20.7572 16.1432 20.8119 16.1198 21.101 16.1588C21.2729 16.1823 21.4838 16.2604 21.5697 16.3385ZM16.101 19.3385C15.9916 19.6588 15.9916 20.4323 16.0932 20.7135C16.1635 20.8932 16.1479 20.9557 15.9682 21.1432C15.7729 21.3463 15.7572 21.3541 15.4994 21.2448C15.1791 21.112 14.5854 21.112 14.2025 21.2448L13.9135 21.3463L13.5385 20.9635L13.1713 20.5885L14.2963 19.4557L15.4291 18.3229L15.8119 18.7057C16.1791 19.0729 16.1869 19.0963 16.101 19.3385ZM18.5229 19.487C19.0619 20.0338 18.5619 20.9401 17.7885 20.7916C17.1947 20.6823 16.9682 19.9245 17.3979 19.4791C17.7025 19.1666 18.2025 19.1666 18.5229 19.487ZM12.7416 21.8073L13.1088 22.1666L12.9994 22.5182C12.8588 22.9791 12.8588 23.2995 12.9994 23.6979C13.1088 24.0026 13.1088 24.0182 12.8979 24.2135C12.6947 24.4088 12.6869 24.4088 12.3041 24.2916C11.8979 24.1666 11.3979 24.1979 11.0385 24.362C10.8744 24.4323 10.8119 24.4088 10.4682 24.0651L10.0775 23.6823L11.1869 22.5651C11.8041 21.9479 12.3197 21.4479 12.3432 21.4479C12.3588 21.4479 12.5385 21.612 12.7416 21.8073ZM15.3354 22.4635C15.9369 22.9323 15.6479 23.8698 14.8979 23.8698C14.515 23.8698 14.3275 23.7682 14.1791 23.4791C13.9916 23.1198 14.0307 22.8698 14.3275 22.5729C14.64 22.2604 15.0229 22.2135 15.3354 22.4635ZM9.92911 25.5104C9.81973 25.8385 9.81973 26.5104 9.92911 26.8307C10.0072 27.0651 9.99942 27.1041 9.82755 27.2838C9.64786 27.4635 9.60098 27.4713 9.32755 27.3932C8.92911 27.2838 8.36661 27.2838 8.05411 27.3932C7.81192 27.4791 7.78067 27.4713 7.41348 27.1041L7.03067 26.7291L8.14005 25.612L9.25723 24.4948L9.64005 24.8776C10.0072 25.2448 10.015 25.2682 9.92911 25.5104ZM12.351 25.6588C12.7104 26.026 12.6322 26.6041 12.1869 26.862C11.9135 27.026 11.7025 27.026 11.4057 26.8776C10.6947 26.5104 10.9916 25.4323 11.7963 25.4323C12.0541 25.4323 12.1713 25.4791 12.351 25.6588ZM6.58536 27.9948L6.94473 28.362L6.83536 28.6745C6.69473 29.0729 6.69473 29.3776 6.82755 29.8307C6.92911 30.1745 6.92911 30.1901 6.72598 30.3854C6.53067 30.5729 6.50723 30.5807 6.21036 30.4713C5.81192 30.3307 5.43692 30.3307 5.03848 30.4713L4.72598 30.5885L4.33536 30.1979L3.94473 29.8073L5.03848 28.7135C5.64005 28.112 6.14786 27.6198 6.1713 27.6198C6.19473 27.6198 6.38223 27.7838 6.58536 27.9948ZM9.20255 28.6745C9.77286 29.151 9.46036 30.0416 8.7338 30.0416C8.34317 30.0416 8.07755 29.862 7.96817 29.5338C7.85098 29.1901 7.93692 28.9088 8.21817 28.6745C8.52286 28.4166 8.89786 28.4166 9.20255 28.6745ZM5.97598 31.6432C6.55411 31.9245 6.55411 32.7682 5.96036 33.0495C5.2338 33.401 4.51505 32.5182 5.00723 31.8854C5.28848 31.526 5.56973 31.4557 5.97598 31.6432Z" fill="#FF8E7C"/>
</g>
<defs>
<clipPath id="clip0_198_2215">
<rect width="40" height="40" fill="white" transform="translate(0 0.666626)"/>
</clipPath>
</defs>
</svg>
