<svg width="22" height="23" viewBox="0 0 22 23" fill="none" xmlns="http://www.w3.org/2000/svg">
<path d="M10.0201 3.29964C9.82333 2.57571 9.39384 1.93665 8.79787 1.48103C8.20189 1.02541 7.47256 0.778564 6.72237 0.778564C5.97219 0.778564 5.24286 1.02541 4.64688 1.48103C4.05091 1.93665 3.62142 2.57571 3.42467 3.29964H0V5.13297H3.42467C3.62142 5.85689 4.05091 6.49595 4.64688 6.95157C5.24286 7.40719 5.97219 7.65404 6.72237 7.65404C7.47256 7.65404 8.20189 7.40719 8.79787 6.95157C9.39384 6.49595 9.82333 5.85689 10.0201 5.13297H22V3.29964H10.0201Z" fill="#161C3D"/>
<path d="M15.2781 8.34131C14.5287 8.34399 13.8007 8.59183 13.2054 9.047C12.61 9.50217 12.1799 10.1397 11.9808 10.8621H0V12.6955H11.9808C12.1773 13.4196 12.6066 14.0589 13.2025 14.5147C13.7984 14.9705 14.5278 15.2174 15.2781 15.2174C16.0283 15.2174 16.7577 14.9705 17.3537 14.5147C17.9496 14.0589 18.3789 13.4196 18.5753 12.6955H22V10.8621H18.5753C18.3762 10.1397 17.9462 9.50217 17.3508 9.047C16.7554 8.59183 16.0275 8.34399 15.2781 8.34131Z" fill="#161C3D"/>
<path d="M6.72192 15.9038C5.97203 15.9059 5.24345 16.1535 4.64754 16.6087C4.05162 17.0639 3.62115 17.7017 3.42192 18.4246H0V20.258H3.42467C3.62142 20.9819 4.05091 21.621 4.64688 22.0766C5.24286 22.5322 5.97219 22.779 6.72237 22.779C7.47256 22.779 8.20189 22.5322 8.79787 22.0766C9.39384 21.621 9.82333 20.9819 10.0201 20.258H22V18.4246H10.0201C9.82093 17.702 9.39074 17.0644 8.79519 16.6092C8.19965 16.154 7.47149 15.9063 6.72192 15.9038Z" fill="#161C3D"/>
</svg>
