<svg width="34" height="23" viewBox="0 0 34 23" fill="none" xmlns="http://www.w3.org/2000/svg">
<path d="M31.4975 3.81672C30.5679 3.35194 29.472 3.44957 28.6414 4.07523C28.5878 4.11511 28.5369 4.16049 28.4902 4.20724L26.0742 6.64527C25.784 3.11818 22.8551 0.328125 19.2551 0.328125H6.87934C3.08822 0.32675 0.00390625 3.41107 0.00390625 7.20218V15.4527C0.00390625 19.2438 3.08822 22.3281 6.87934 22.3281H19.2551C22.8702 22.3281 25.8115 19.5133 26.0783 15.9656L28.4929 18.3775C28.5397 18.4229 28.5878 18.4641 28.6401 18.504C29.1241 18.867 29.6961 19.0513 30.2737 19.0513C30.6903 19.0513 31.107 18.9564 31.4975 18.7612C32.4284 18.2964 33.006 17.3599 33.006 16.3218V6.25887C33.006 5.21793 32.4284 4.2815 31.4975 3.81672Z" fill="#161C3D"/>
</svg>
