<svg width="22" height="23" viewBox="0 0 22 23" fill="none" xmlns="http://www.w3.org/2000/svg">
<path d="M21.0286 1.14825C20.4054 0.526007 19.5608 0.176514 18.6801 0.176514C17.7994 0.176514 16.9548 0.526007 16.3316 1.14825L0 17.4798V22.1769H4.69707L21.0286 5.84532C21.6507 5.222 22 4.37738 22 3.49679C22 2.6162 21.6507 1.77157 21.0286 1.14825ZM3.94172 20.3435H1.83336V18.2352L14.0344 6.04332L16.1427 8.15169L3.94172 20.3435ZM19.7325 4.54913L17.4343 6.84725L15.3306 4.73889L17.6278 2.44444C17.9073 2.16485 18.2865 2.00778 18.6819 2.00778C19.0773 2.00778 19.4565 2.16485 19.7361 2.44444C20.0157 2.72402 20.1728 3.10322 20.1728 3.49862C20.1728 3.89401 20.0157 4.27322 19.7361 4.5528L19.7325 4.54913Z" fill="#161C3D"/>
</svg>
