<svg width="22" height="17" viewBox="0 0 22 17" fill="none" xmlns="http://www.w3.org/2000/svg">
<path d="M3.47209 16.1113C2.55154 16.1108 1.66883 15.745 1.01781 15.0942C0.366801 14.4433 0.000728854 13.5607 1.23443e-07 12.6401V3.71008C-0.000170896 3.06895 0.177361 2.44033 0.512882 1.89401C0.848403 1.34769 1.32878 0.905057 1.90067 0.615265C2.47256 0.325472 3.11358 0.199862 3.75255 0.252381C4.39152 0.304901 5.00343 0.533496 5.52033 0.91278L8.98508 3.45611C9.03038 2.83835 9.24028 2.244 9.59297 1.73481C9.94567 1.22561 10.4283 0.820159 10.9907 0.560578C11.5531 0.300996 12.1747 0.196757 12.791 0.258694C13.4073 0.32063 13.9958 0.546482 14.4953 0.91278L20.5841 5.37782C21.023 5.70011 21.3799 6.12119 21.6258 6.60699C21.8718 7.09279 22 7.62967 22 8.17419C22 8.71872 21.8718 9.2556 21.6258 9.7414C21.3799 10.2272 21.023 10.6483 20.5841 10.9706L14.4953 15.4356C13.996 15.8019 13.4076 16.0277 12.7915 16.0897C12.1753 16.1518 11.5538 16.0477 10.9914 15.7883C10.4291 15.5289 9.94643 15.1237 9.59361 14.6148C9.2408 14.1058 9.03068 13.5117 8.98508 12.8941L5.52033 15.4374C4.92675 15.8744 4.20918 16.1105 3.47209 16.1113Z" fill="#161C3D"/>
</svg>
