<svg width="22" height="27" viewBox="0 0 22 27" fill="none" xmlns="http://www.w3.org/2000/svg">
<path d="M13.0558 26.2346C9.59486 26.2309 6.2767 24.8544 3.82941 22.4071C1.38213 19.9598 0.0055966 16.6416 0.00185328 13.1806C-0.164585 3.43802 10.9139 -3.12052 19.3555 1.7682L21.0449 2.70591L19.3664 3.6632C12.0779 7.67513 12.6109 18.7514 20.2366 22.0541L22 22.8493L20.4042 23.9437C18.243 25.4334 15.6807 26.2323 13.0558 26.2346ZM13.0558 2.30232C10.1717 2.30549 7.4066 3.45261 5.3672 5.49201C3.32781 7.5314 2.18069 10.2965 2.17752 13.1806C2.0089 20.9228 10.6224 26.4522 17.5758 23.0603C15.9479 21.9678 14.5984 20.5094 13.6353 18.8017C12.6723 17.094 12.1224 15.1846 12.0298 13.2262C11.9372 11.2679 12.3044 9.31511 13.1019 7.52416C13.8995 5.73321 15.1053 4.15387 16.6228 2.9126C15.4776 2.50623 14.271 2.2998 13.0558 2.30232Z" fill="#55648B"/>
</svg>
