<svg width="37" height="49" viewBox="0 0 37 49" fill="none" xmlns="http://www.w3.org/2000/svg">
<g clip-path="url(#clip0_72_300)">
<path d="M36.7767 23.6888C36.7767 23.5009 36.7733 23.3128 36.7663 23.1249V0.157898H-0.0330811V30.4616V30.8171C-0.0330811 40.8431 8.2218 49 18.3684 49C28.3939 49 36.5727 41.0345 36.7629 31.1758H36.7663V30.8205V30.465V24.0475H36.7767V23.6888ZM33.1594 23.3334C32.9657 15.4396 26.4123 9.07339 18.3753 9.07339C10.3383 9.07339 3.78485 15.4396 3.59119 23.3334H0.70353C0.893735 13.8643 8.75092 6.22002 18.3787 6.22002C27.9443 6.22002 35.7565 13.7652 36.047 23.1489V23.3334H33.1594ZM29.5593 23.3334H29.5524C29.3623 17.4045 24.4238 12.6375 18.3753 12.6375C12.3302 12.6375 7.39183 17.4045 7.19816 23.3334H7.18779H4.30704C4.50071 15.8327 10.736 9.78758 18.3718 9.78758C26.0111 9.78758 32.2464 15.8327 32.4366 23.3334H29.5593ZM36.0332 31.4389C36.0297 31.5142 36.0297 31.5928 36.0229 31.6679C36.0194 31.7397 36.0159 31.8149 36.009 31.8866C36.0056 31.9618 35.9986 32.037 35.9951 32.1122C35.9883 32.1839 35.9813 32.2591 35.9778 32.3309C35.971 32.4026 35.9641 32.4778 35.9571 32.5496C35.9502 32.6247 35.9398 32.6965 35.9329 32.7717C35.9261 32.8434 35.9156 32.9152 35.9088 32.9836C35.8983 33.0588 35.8879 33.1339 35.8776 33.2057C35.8672 33.2741 35.8569 33.3457 35.8464 33.4141C35.8361 33.4893 35.8223 33.5644 35.8118 33.6397C35.8015 33.708 35.7911 33.7764 35.7773 33.8447C35.7635 33.9199 35.7496 33.9951 35.7358 34.0702C35.722 34.1386 35.7116 34.2035 35.6977 34.2719C35.684 34.347 35.6667 34.4222 35.6494 34.4974C35.6355 34.5623 35.6216 34.6272 35.6078 34.6922C35.5906 34.7673 35.5733 34.8425 35.5526 34.9177C35.5353 34.9827 35.5214 35.0441 35.5041 35.1091C35.4834 35.1843 35.4626 35.2594 35.4453 35.3346C35.428 35.3961 35.4107 35.4611 35.3934 35.5225C35.3727 35.5977 35.3485 35.6729 35.3278 35.748C35.3105 35.8096 35.2896 35.8711 35.2724 35.9327C35.2481 36.0078 35.224 36.083 35.1998 36.1582C35.1791 36.2196 35.1618 36.2777 35.141 36.3359C35.1167 36.4111 35.0891 36.4862 35.0614 36.5614C35.0407 36.6195 35.0199 36.6775 34.9992 36.739C34.9715 36.8143 34.9438 36.8895 34.9162 36.9612C34.8954 37.0193 34.8712 37.0774 34.8505 37.1355C34.8229 37.2106 34.7917 37.2858 34.7605 37.3576C34.7364 37.4156 34.7156 37.4703 34.6915 37.5285C34.6603 37.6037 34.6291 37.6754 34.5945 37.7506C34.5704 37.8053 34.5462 37.86 34.5219 37.918C34.4874 37.9898 34.4562 38.065 34.4216 38.1367C34.3975 38.1914 34.3697 38.2461 34.3456 38.3008C34.311 38.3724 34.2764 38.4442 34.2383 38.5195C34.2107 38.5742 34.183 38.6253 34.1588 38.68C34.1208 38.7518 34.0862 38.8235 34.0481 38.8919C34.0205 38.9466 33.9928 38.9979 33.9618 39.0526C33.9272 39.1174 33.8891 39.1824 33.8545 39.2508L19.7171 31.1861H36.0436C36.0436 31.2032 36.0436 31.2168 36.0436 31.2339C36.0402 31.2955 36.0366 31.3673 36.0332 31.4389ZM33.3219 40.1289C33.277 40.1973 33.2355 40.2656 33.1905 40.3305C33.1594 40.3784 33.1248 40.4297 33.0937 40.4775C33.0488 40.5458 33.0037 40.6108 32.9554 40.6791C32.9208 40.727 32.8862 40.7747 32.855 40.8226C32.8067 40.8876 32.7616 40.9525 32.7133 41.0208C32.6787 41.0687 32.6441 41.1165 32.6095 41.1644C32.5611 41.2292 32.5127 41.2942 32.4642 41.3591C32.4297 41.407 32.3917 41.4515 32.3571 41.4992C32.3086 41.5642 32.2567 41.6257 32.2084 41.6872C32.1704 41.7316 32.1323 41.7794 32.0977 41.8239C32.0458 41.8854 31.9939 41.9468 31.9421 42.0084C31.904 42.0528 31.8659 42.0973 31.8279 42.1451C31.7761 42.2066 31.7242 42.2681 31.6689 42.3262C31.6308 42.3707 31.5894 42.415 31.5513 42.4594C31.496 42.5176 31.4441 42.5791 31.3888 42.6372C31.3473 42.6815 31.3092 42.7226 31.2677 42.767C31.2124 42.8251 31.1571 42.8833 31.1018 42.9413C31.0602 42.9823 31.0187 43.0267 30.9772 43.0678C30.9219 43.1259 30.8631 43.1805 30.8078 43.2386C30.7663 43.2796 30.7213 43.3206 30.6798 43.3617C30.621 43.4163 30.5657 43.471 30.5069 43.5257C30.4619 43.5667 30.4204 43.6077 30.3755 43.6452C30.3167 43.6999 30.2578 43.7512 30.1991 43.8059C30.1542 43.8469 30.1092 43.8844 30.0642 43.9254C30.0054 43.9767 29.9432 44.0314 29.8845 44.0827C29.8394 44.1236 29.7911 44.1612 29.7426 44.1988C29.6804 44.2501 29.6215 44.298 29.5593 44.3491C29.511 44.3867 29.4625 44.4244 29.4176 44.462C29.3553 44.5098 29.2931 44.5611 29.2308 44.6089C29.1824 44.6465 29.1339 44.6841 29.0856 44.7183C29.0232 44.7661 28.961 44.8139 28.8954 44.8583C28.8469 44.8959 28.795 44.9301 28.7467 44.9677C28.6843 45.0122 28.6187 45.0599 28.5529 45.1044C28.5012 45.1385 28.4492 45.1762 28.3973 45.2103C28.3317 45.2548 28.2694 45.2991 28.2037 45.3401C28.1518 45.3743 28.0999 45.4085 28.048 45.4427C27.9824 45.4837 27.9166 45.5282 27.851 45.5691C27.7991 45.6033 27.7437 45.6341 27.6918 45.6682C27.64 45.699 27.5881 45.7332 27.5362 45.764L19.3748 31.7944L33.5121 39.859C33.4879 39.9 33.4637 39.9376 33.4396 39.9786C33.3842 40.0264 33.3531 40.0777 33.3219 40.1289ZM26.5645 46.2935C26.4953 46.3277 26.4296 46.3653 26.3604 46.3995C26.3016 46.4303 26.2429 46.4576 26.1841 46.485C26.1149 46.5191 26.0457 46.5533 25.9766 46.584C25.9177 46.6114 25.8589 46.6387 25.7967 46.6661C25.7275 46.6969 25.6585 46.7309 25.5892 46.7617C25.527 46.789 25.4681 46.813 25.4059 46.8403C25.3367 46.8711 25.2677 46.9019 25.1985 46.9292C25.1362 46.9566 25.0739 46.9804 25.0117 47.0043C24.9425 47.0317 24.8734 47.0624 24.8008 47.0898C24.7385 47.1137 24.6728 47.1377 24.6106 47.1616C24.5414 47.1889 24.4688 47.2127 24.3996 47.2401C24.3339 47.264 24.2716 47.2845 24.2059 47.3085C24.1367 47.3324 24.0641 47.3563 23.995 47.3803C23.9292 47.4008 23.8636 47.4213 23.7978 47.4451C23.7286 47.469 23.6561 47.4896 23.5869 47.5135C23.5212 47.534 23.4521 47.5545 23.3829 47.5716C23.3137 47.5921 23.241 47.6126 23.1719 47.6332C23.1027 47.6537 23.0335 47.6708 22.9645 47.6877C22.8953 47.7083 22.8226 47.7253 22.75 47.7459C22.6808 47.763 22.6081 47.7801 22.5391 47.7971C22.4699 47.8142 22.3972 47.8313 22.3281 47.8484C22.2555 47.8655 22.1829 47.8792 22.1102 47.8963C22.041 47.91 21.9684 47.9271 21.8993 47.9406C21.8267 47.9543 21.754 47.968 21.678 47.9816C21.6088 47.9953 21.5396 48.009 21.4669 48.0227C21.3908 48.0364 21.3183 48.0466 21.2421 48.0603C21.1731 48.0705 21.1039 48.0842 21.0312 48.0945C20.9551 48.1047 20.8791 48.115 20.7996 48.1252C20.7304 48.1355 20.6611 48.1458 20.5921 48.1526C20.5124 48.1628 20.4329 48.1696 20.3534 48.1798C20.2877 48.1867 20.2186 48.1969 20.1528 48.2038C20.0699 48.2106 19.9834 48.2174 19.9004 48.2277C19.8381 48.2345 19.7724 48.2379 19.7102 48.2448C19.6203 48.2516 19.5338 48.255 19.4439 48.2619C19.3851 48.2653 19.3229 48.2687 19.2641 48.2721C19.1707 48.2756 19.0739 48.279 18.9805 48.2824C18.9252 48.2858 18.8699 48.2858 18.8145 48.2892C18.7834 48.2892 18.7522 48.2892 18.7246 48.2892V32.1566L26.8861 46.1261C26.8342 46.1535 26.7824 46.1843 26.7305 46.2116C26.6786 46.2355 26.6198 46.2628 26.5645 46.2935ZM17.7494 48.2756C17.656 48.2721 17.5592 48.2687 17.4658 48.2653C17.4069 48.2619 17.3447 48.2585 17.2859 48.255C17.196 48.2482 17.1061 48.2448 17.0197 48.2379C16.9539 48.2345 16.8917 48.2277 16.8295 48.2209C16.7464 48.214 16.6599 48.2072 16.577 48.1969C16.5078 48.1901 16.4421 48.1832 16.3764 48.173C16.2969 48.1628 16.2173 48.156 16.1378 48.1458C16.0686 48.1389 15.9994 48.1252 15.9302 48.1184C15.8542 48.1081 15.7746 48.0979 15.6986 48.0876C15.6294 48.0774 15.5603 48.0637 15.4877 48.0534C15.4116 48.0398 15.3389 48.0295 15.2629 48.0158C15.1937 48.0022 15.1245 47.9885 15.0519 47.9748C14.9793 47.9611 14.9032 47.9475 14.8306 47.9338C14.7614 47.9202 14.6888 47.9031 14.6196 47.8895C14.547 47.8758 14.4744 47.8587 14.4018 47.8416C14.3326 47.8245 14.2599 47.8074 14.1907 47.7903C14.1216 47.7732 14.049 47.7561 13.9798 47.739C13.9072 47.7219 13.8381 47.7014 13.7654 47.681C13.6962 47.6639 13.627 47.6434 13.558 47.6263C13.4853 47.6058 13.4161 47.5853 13.3469 47.5648C13.2778 47.5443 13.2121 47.5272 13.1429 47.5067C13.0704 47.4861 13.0012 47.4622 12.9319 47.4384C12.8663 47.4179 12.8005 47.3974 12.7349 47.3734C12.6623 47.3495 12.5931 47.3256 12.5239 47.3016C12.4582 47.2777 12.396 47.2572 12.3302 47.2333C12.261 47.2093 12.1884 47.1821 12.1193 47.1548C12.057 47.1308 11.9913 47.1069 11.9291 47.083C11.8599 47.0556 11.7907 47.0282 11.7181 46.9975C11.6559 46.9735 11.5936 46.9463 11.5314 46.9224C11.4622 46.895 11.393 46.8643 11.3239 46.8335C11.2616 46.8061 11.1994 46.7822 11.1406 46.7549C11.0714 46.7242 11.0023 46.6934 10.9331 46.6592C10.8743 46.6319 10.8155 46.6045 10.7533 46.5772C10.6841 46.543 10.6149 46.5122 10.5458 46.4782C10.487 46.4508 10.4282 46.42 10.3694 46.3927C10.3002 46.3585 10.2345 46.3243 10.1653 46.2867C10.1066 46.2559 10.0512 46.2287 9.99244 46.1979C9.94056 46.1706 9.8887 46.1432 9.83682 46.1125L17.9983 32.1429V48.2756C17.9672 48.2756 17.9361 48.2756 17.9084 48.2756C17.86 48.2824 17.8047 48.279 17.7494 48.2756ZM8.90309 45.5691C8.83738 45.5282 8.77167 45.4837 8.70596 45.4427C8.6541 45.4085 8.60222 45.3743 8.55034 45.3401C8.48464 45.2957 8.42239 45.2548 8.35669 45.2103C8.30481 45.1762 8.25293 45.142 8.20105 45.1044C8.13535 45.0599 8.0731 45.0122 8.0074 44.9677C7.95898 44.9335 7.9071 44.8959 7.85869 44.8583C7.79644 44.8106 7.73073 44.7627 7.66849 44.7183C7.62007 44.6807 7.57165 44.6465 7.52324 44.6089C7.46099 44.5611 7.39873 44.5132 7.33649 44.462C7.28807 44.4244 7.23965 44.3867 7.1947 44.3491C7.13245 44.298 7.07367 44.2501 7.01141 44.1988C6.96299 44.1612 6.91804 44.1202 6.86962 44.0827C6.80737 44.0314 6.74859 43.9801 6.68979 43.9254C6.64483 43.8844 6.59988 43.8469 6.55492 43.8059C6.49613 43.7512 6.43734 43.6999 6.37855 43.6452C6.33359 43.6043 6.2921 43.5633 6.24714 43.5257C6.18834 43.471 6.12956 43.4163 6.07422 43.3617C6.03272 43.3206 5.98777 43.2796 5.94627 43.2386C5.88747 43.1839 5.83215 43.1259 5.77681 43.0678C5.73531 43.0267 5.69381 42.9823 5.65232 42.9413C5.59698 42.8833 5.54166 42.8251 5.48632 42.767C5.44482 42.7226 5.40332 42.6815 5.36527 42.6372C5.30995 42.5791 5.25807 42.521 5.20273 42.4594C5.16124 42.415 5.1232 42.3707 5.08515 42.3262C5.03329 42.2647 4.97795 42.2066 4.92607 42.1451C4.88804 42.1007 4.85 42.0562 4.81195 42.0084C4.76008 41.9468 4.70821 41.8854 4.65633 41.8239C4.61829 41.7794 4.58024 41.7316 4.54567 41.6872C4.49379 41.6257 4.44537 41.5607 4.39351 41.4992C4.35892 41.4515 4.32088 41.407 4.28629 41.3591C4.23788 41.2942 4.18947 41.2292 4.14105 41.1644C4.10646 41.1165 4.07189 41.0687 4.0373 41.0208C3.98888 40.956 3.94392 40.891 3.89551 40.8226C3.86093 40.7747 3.82634 40.727 3.79523 40.6791C3.75027 40.6142 3.70185 40.5458 3.65689 40.4775C3.62231 40.4297 3.59119 40.3784 3.56006 40.3305C3.5151 40.2622 3.47015 40.1939 3.42865 40.1289C3.39752 40.0777 3.3664 40.0298 3.33527 39.9786C3.31107 39.9376 3.28686 39.9 3.26265 39.859L17.4 31.7944L9.23854 45.764C9.18666 45.7332 9.1348 45.7024 9.08292 45.6682C9.01029 45.6341 8.95496 45.5999 8.90309 45.5691ZM2.68858 38.885C2.65054 38.8134 2.61249 38.7416 2.57791 38.6732C2.55024 38.6185 2.52258 38.5673 2.49837 38.5126C2.46379 38.4408 2.42575 38.369 2.39116 38.2939C2.3635 38.2392 2.33929 38.1845 2.31508 38.1298C2.2805 38.0582 2.24591 37.9829 2.2148 37.9111C2.19059 37.8566 2.16638 37.7984 2.14217 37.7437C2.11104 37.6719 2.07993 37.5968 2.0488 37.525C2.02459 37.4669 2.00038 37.4122 1.97963 37.3542C1.9485 37.279 1.92085 37.2072 1.88972 37.1321C1.86551 37.074 1.84476 37.0159 1.82401 36.9577C1.79634 36.8826 1.76867 36.8074 1.74102 36.7356C1.72026 36.6775 1.69951 36.6195 1.67876 36.558C1.65109 36.4827 1.62688 36.4077 1.59923 36.3324C1.57848 36.2743 1.56118 36.2128 1.54043 36.1548C1.51622 36.0796 1.49201 36.0043 1.4678 35.9292C1.45051 35.8677 1.42977 35.8062 1.41248 35.7446C1.39173 35.6695 1.36752 35.5943 1.34677 35.5191C1.32947 35.4577 1.31218 35.3961 1.29489 35.3312C1.27415 35.256 1.2534 35.1809 1.23611 35.1056C1.21881 35.0407 1.20498 34.9793 1.18769 34.9143C1.1704 34.8391 1.14965 34.7639 1.13236 34.6888C1.11852 34.6238 1.10469 34.5589 1.09086 34.494C1.07357 34.4188 1.05973 34.3436 1.04244 34.2685C1.02861 34.2035 1.01477 34.1352 1.0044 34.0668C0.990567 33.9917 0.976734 33.9165 0.962901 33.8412C0.952526 33.773 0.938693 33.7046 0.928318 33.6362C0.914485 33.561 0.90411 33.4859 0.893735 33.4107C0.883361 33.3423 0.872985 33.2706 0.862611 33.2023C0.852235 33.1271 0.841861 33.052 0.831486 32.9802C0.821112 32.9084 0.814195 32.8366 0.807278 32.7683C0.800362 32.6931 0.789986 32.6213 0.78307 32.5462C0.776153 32.4744 0.769238 32.3992 0.762321 32.3275C0.755405 32.2557 0.748488 32.1805 0.745029 32.1088C0.738113 32.0336 0.734655 31.9584 0.731196 31.8832C0.727739 31.8115 0.720822 31.7397 0.717363 31.6645C0.713905 31.5894 0.710446 31.5107 0.706989 31.4355C0.70353 31.3639 0.700072 31.2921 0.700072 31.2203C0.700072 31.2032 0.700072 31.1895 0.700072 31.1724H17.0266L2.88915 39.2371C2.85111 39.1721 2.81654 39.1072 2.78195 39.0389C2.74737 38.991 2.71624 38.9363 2.68858 38.885ZM7.19124 24.0441V30.4616H0.696613V24.0441H3.58427H7.19124ZM10.8017 24.0441H14.4086V30.4616H7.91402V24.0441H10.8017ZM28.8296 24.0441V30.4616H22.3453V24.0441H25.9523H28.8296ZM21.6226 24.0441V30.4616H15.128V24.0441H21.6226ZM15.1488 23.3334C15.3285 21.7307 16.7084 20.48 18.3753 20.48C20.0421 20.48 21.422 21.7307 21.6019 23.3334H15.1488ZM22.3453 23.3334H22.3281C22.1448 21.3378 20.4434 19.7692 18.3753 19.7692C16.3073 19.7692 14.6058 21.3378 14.4225 23.3334H14.4052H11.5279C11.7181 19.7624 14.7165 16.9159 18.3753 16.9159C22.0342 16.9159 25.0324 19.7624 25.2226 23.3334H22.3453ZM28.8296 23.3334H25.942C25.7518 19.3695 22.4318 16.2017 18.3753 16.2017C14.3187 16.2017 10.9953 19.3695 10.8086 23.3334H7.92094C8.11114 17.7975 12.7279 13.3517 18.3787 13.3517C24.0261 13.3517 28.6429 17.7975 28.8296 23.3334ZM36.047 0.872094V18.6108C33.8165 11.0485 26.7408 5.50583 18.3787 5.50583C9.99244 5.50583 2.89953 11.0793 0.689697 18.6724V0.868678H36.047V0.872094ZM36.047 30.4616H29.5593V24.0441H33.1663H36.0436V30.4616H36.047Z" fill="black"/>
</g>
<defs>
<clipPath id="clip0_72_300">
<rect width="37" height="49" fill="white"/>
</clipPath>
</defs>
</svg>
