<svg width="201" height="49" viewBox="0 0 201 49" fill="none" xmlns="http://www.w3.org/2000/svg">
<g clip-path="url(#clip0_69_590)">
<path d="M37.5186 23.5309C37.5186 23.343 37.5151 23.1549 37.5081 22.967V0H0.70874V30.3037V30.6592C0.70874 40.6852 8.96362 48.8421 19.1102 48.8421C29.1357 48.8421 37.3145 40.8766 37.5047 31.0179H37.5081V30.6626V30.3071V23.8897H37.5186V23.5309ZM33.9013 23.1755C33.7075 15.2817 27.1541 8.91549 19.1171 8.91549C11.0801 8.91549 4.52667 15.2817 4.33301 23.1755H1.44535C1.63556 13.7064 9.49274 6.06212 19.1205 6.06212C28.6862 6.06212 36.4983 13.6073 36.7889 22.991V23.1755H33.9013ZM30.3011 23.1755H30.2943C30.1041 17.2466 25.1657 12.4796 19.1171 12.4796C13.0721 12.4796 8.13365 17.2466 7.93998 23.1755H7.92961H5.04886C5.24253 15.6748 11.4778 9.62969 19.1136 9.62969C26.7529 9.62969 32.9882 15.6748 33.1784 23.1755H30.3011ZM36.775 31.281C36.7716 31.3563 36.7716 31.4349 36.7647 31.51C36.7613 31.5818 36.7577 31.657 36.7508 31.7287C36.7474 31.8039 36.7404 31.8791 36.737 31.9543C36.7301 32.026 36.7231 32.1012 36.7197 32.173C36.7128 32.2447 36.7059 32.3199 36.6989 32.3917C36.6921 32.4668 36.6816 32.5386 36.6748 32.6138C36.6679 32.6855 36.6575 32.7573 36.6506 32.8257C36.6402 32.9009 36.6297 32.976 36.6194 33.0478C36.609 33.1162 36.5987 33.1878 36.5882 33.2562C36.5779 33.3314 36.5641 33.4065 36.5536 33.4818C36.5433 33.5501 36.5329 33.6185 36.5192 33.6868C36.5053 33.762 36.4914 33.8372 36.4776 33.9123C36.4638 33.9807 36.4534 34.0456 36.4395 34.114C36.4258 34.1891 36.4085 34.2643 36.3912 34.3395C36.3773 34.4044 36.3635 34.4693 36.3496 34.5343C36.3324 34.6094 36.3151 34.6846 36.2944 34.7598C36.2771 34.8248 36.2632 34.8862 36.2459 34.9512C36.2252 35.0264 36.2044 35.1015 36.1871 35.1767C36.1698 35.2382 36.1525 35.3032 36.1352 35.3646C36.1145 35.4398 36.0903 35.515 36.0696 35.5901C36.0523 35.6517 36.0314 35.7132 36.0143 35.7748C35.99 35.8499 35.9658 35.9251 35.9416 36.0003C35.9209 36.0617 35.9036 36.1198 35.8829 36.178C35.8586 36.2532 35.8309 36.3283 35.8032 36.4035C35.7825 36.4616 35.7617 36.5196 35.741 36.5812C35.7133 36.6564 35.6857 36.7316 35.6581 36.8033C35.6372 36.8614 35.613 36.9195 35.5923 36.9776C35.5647 37.0527 35.5335 37.1279 35.5024 37.1997C35.4782 37.2577 35.4575 37.3124 35.4333 37.3706C35.4021 37.4458 35.3709 37.5175 35.3363 37.5927C35.3122 37.6474 35.288 37.7021 35.2637 37.7601C35.2292 37.8319 35.1981 37.9071 35.1635 37.9788C35.1393 38.0335 35.1116 38.0882 35.0874 38.1429C35.0528 38.2146 35.0182 38.2864 34.9801 38.3616C34.9525 38.4163 34.9248 38.4674 34.9006 38.5221C34.8626 38.5939 34.828 38.6656 34.79 38.734C34.7624 38.7887 34.7346 38.84 34.7036 38.8947C34.669 38.9595 34.6309 39.0245 34.5963 39.0929L20.4589 31.0282H36.7854C36.7854 31.0453 36.7854 31.0589 36.7854 31.076C36.782 31.1376 36.7784 31.2094 36.775 31.281ZM34.0637 39.971C34.0188 40.0394 33.9773 40.1077 33.9323 40.1726C33.9013 40.2205 33.8667 40.2718 33.8355 40.3196C33.7906 40.3879 33.7455 40.4529 33.6972 40.5212C33.6626 40.5691 33.628 40.6169 33.5968 40.6647C33.5485 40.7297 33.5035 40.7946 33.4551 40.8629C33.4205 40.9108 33.3859 40.9586 33.3513 41.0065C33.303 41.0713 33.2545 41.1363 33.206 41.2012C33.1716 41.2491 33.1335 41.2936 33.0989 41.3413C33.0505 41.4063 32.9986 41.4678 32.9502 41.5293C32.9122 41.5737 32.8741 41.6215 32.8395 41.666C32.7876 41.7275 32.7357 41.7889 32.684 41.8505C32.6458 41.8949 32.6078 41.9394 32.5697 41.9872C32.5179 42.0487 32.466 42.1102 32.4107 42.1683C32.3727 42.2128 32.3312 42.2571 32.2932 42.3015C32.2378 42.3597 32.1859 42.4212 32.1306 42.4793C32.0891 42.5236 32.0511 42.5647 32.0095 42.6091C31.9543 42.6672 31.8989 42.7254 31.8436 42.7834C31.802 42.8244 31.7605 42.8688 31.719 42.9099C31.6637 42.968 31.6049 43.0226 31.5496 43.0807C31.5081 43.1217 31.4631 43.1627 31.4216 43.2038C31.3628 43.2584 31.3075 43.3131 31.2487 43.3678C31.2037 43.4088 31.1622 43.4498 31.1173 43.4873C31.0586 43.542 30.9997 43.5933 30.9409 43.648C30.896 43.689 30.8511 43.7265 30.806 43.7675C30.7473 43.8188 30.6851 43.8735 30.6263 43.9248C30.5813 43.9657 30.5329 44.0033 30.4844 44.0409C30.4222 44.0922 30.3633 44.1401 30.3011 44.1912C30.2528 44.2288 30.2043 44.2665 30.1594 44.3041C30.0971 44.3519 30.0349 44.4032 29.9727 44.451C29.9242 44.4886 29.8757 44.5262 29.8274 44.5604C29.7651 44.6082 29.7028 44.656 29.6372 44.7004C29.5887 44.738 29.5368 44.7722 29.4885 44.8098C29.4262 44.8543 29.3605 44.902 29.2948 44.9465C29.243 44.9807 29.1911 45.0183 29.1392 45.0524C29.0735 45.0969 29.0112 45.1412 28.9455 45.1822C28.8936 45.2164 28.8417 45.2506 28.7898 45.2848C28.7242 45.3258 28.6584 45.3703 28.5928 45.4112C28.5409 45.4454 28.4855 45.4762 28.4336 45.5103C28.3819 45.5411 28.33 45.5753 28.2781 45.6061L20.1166 31.6365L34.2539 39.7011C34.2297 39.7421 34.2055 39.7797 34.1814 39.8207C34.126 39.8685 34.0949 39.9198 34.0637 39.971ZM27.3063 46.1356C27.2371 46.1698 27.1714 46.2074 27.1022 46.2416C27.0435 46.2724 26.9847 46.2998 26.9259 46.3271C26.8567 46.3612 26.7875 46.3954 26.7184 46.4261C26.6595 46.4535 26.6008 46.4808 26.5386 46.5082C26.4694 46.539 26.4003 46.573 26.3311 46.6038C26.2689 46.6311 26.21 46.6551 26.1478 46.6824C26.0786 46.7132 26.0095 46.744 25.9403 46.7713C25.8781 46.7987 25.8157 46.8225 25.7535 46.8464C25.6843 46.8738 25.6152 46.9045 25.5426 46.9319C25.4803 46.9558 25.4146 46.9798 25.3524 47.0037C25.2832 47.031 25.2106 47.0549 25.1414 47.0822C25.0757 47.1061 25.0134 47.1266 24.9478 47.1506C24.8786 47.1745 24.8059 47.1984 24.7368 47.2224C24.6711 47.2429 24.6054 47.2634 24.5397 47.2872C24.4705 47.3111 24.3979 47.3317 24.3287 47.3556C24.263 47.3761 24.1939 47.3966 24.1247 47.4137C24.0555 47.4342 23.9828 47.4547 23.9138 47.4753C23.8446 47.4958 23.7754 47.5129 23.7063 47.5298C23.6371 47.5504 23.5644 47.5674 23.4918 47.588C23.4226 47.6051 23.35 47.6222 23.2809 47.6392C23.2117 47.6563 23.139 47.6734 23.07 47.6905C22.9973 47.7076 22.9247 47.7213 22.8521 47.7384C22.7829 47.7521 22.7102 47.7692 22.6411 47.7827C22.5685 47.7964 22.4959 47.8101 22.4198 47.8237C22.3506 47.8374 22.2814 47.8511 22.2087 47.8648C22.1327 47.8785 22.0602 47.8887 21.984 47.9024C21.9149 47.9126 21.8457 47.9263 21.773 47.9366C21.697 47.9468 21.6209 47.9571 21.5414 47.9673C21.4722 47.9776 21.403 47.9879 21.3339 47.9947C21.2543 48.005 21.1748 48.0117 21.0952 48.0219C21.0295 48.0288 20.9604 48.039 20.8946 48.0459C20.8117 48.0527 20.7252 48.0595 20.6422 48.0698C20.5799 48.0766 20.5143 48.08 20.4521 48.0869C20.3621 48.0937 20.2756 48.0971 20.1857 48.104C20.1269 48.1074 20.0647 48.1108 20.0059 48.1142C19.9125 48.1177 19.8157 48.1211 19.7224 48.1245C19.667 48.1279 19.6117 48.1279 19.5563 48.1313C19.5252 48.1313 19.494 48.1313 19.4664 48.1313V31.9987L27.6279 45.9682C27.576 45.9956 27.5242 46.0264 27.4723 46.0537C27.4204 46.0776 27.3616 46.1049 27.3063 46.1356ZM18.4912 48.1177C18.3978 48.1142 18.301 48.1108 18.2076 48.1074C18.1487 48.104 18.0865 48.1006 18.0278 48.0971C17.9378 48.0903 17.8479 48.0869 17.7615 48.08C17.6957 48.0766 17.6335 48.0698 17.5713 48.063C17.4882 48.0561 17.4017 48.0493 17.3188 48.039C17.2496 48.0322 17.184 48.0253 17.1182 48.0151C17.0387 48.005 16.9592 47.9981 16.8797 47.9879C16.8105 47.981 16.7413 47.9673 16.6721 47.9605C16.596 47.9502 16.5165 47.94 16.4404 47.9297C16.3712 47.9195 16.3021 47.9058 16.2295 47.8955C16.1534 47.8819 16.0808 47.8716 16.0047 47.8579C15.9355 47.8443 15.8663 47.8306 15.7938 47.8169C15.7211 47.8032 15.6451 47.7896 15.5724 47.7759C15.5032 47.7623 15.4306 47.7452 15.3614 47.7316C15.2889 47.7179 15.2162 47.7008 15.1436 47.6837C15.0744 47.6666 15.0017 47.6495 14.9325 47.6324C14.8635 47.6153 14.7908 47.5982 14.7216 47.5811C14.649 47.564 14.5799 47.5435 14.5073 47.5231C14.4381 47.506 14.3689 47.4855 14.2998 47.4684C14.2271 47.4479 14.1579 47.4274 14.0887 47.4069C14.0197 47.3864 13.9539 47.3693 13.8847 47.3488C13.8122 47.3282 13.743 47.3043 13.6738 47.2805C13.6081 47.26 13.5424 47.2395 13.4767 47.2155C13.4041 47.1916 13.3349 47.1677 13.2657 47.1437C13.2 47.1198 13.1378 47.0993 13.0721 47.0754C13.0029 47.0514 12.9303 47.0242 12.8611 46.9969C12.7989 46.9729 12.7331 46.949 12.6709 46.9251C12.6017 46.8977 12.5326 46.8703 12.4599 46.8396C12.3977 46.8156 12.3354 46.7884 12.2732 46.7645C12.204 46.7371 12.1349 46.7064 12.0657 46.6756C12.0035 46.6482 11.9412 46.6243 11.8824 46.597C11.8132 46.5663 11.7441 46.5355 11.6749 46.5013C11.6161 46.474 11.5573 46.4466 11.4951 46.4193C11.4259 46.3851 11.3568 46.3543 11.2876 46.3203C11.2288 46.2929 11.17 46.2621 11.1112 46.2348C11.0421 46.2006 10.9763 46.1664 10.9072 46.1288C10.8484 46.098 10.793 46.0708 10.7343 46.04C10.6824 46.0127 10.6305 45.9853 10.5786 45.9546L18.7402 31.985V48.1177C18.709 48.1177 18.6779 48.1177 18.6502 48.1177C18.6019 48.1245 18.5465 48.1211 18.4912 48.1177ZM9.64491 45.4112C9.57921 45.3703 9.51349 45.3258 9.44778 45.2848C9.39592 45.2506 9.34404 45.2164 9.29216 45.1822C9.22646 45.1378 9.16421 45.0969 9.09851 45.0524C9.04663 45.0183 8.99475 44.9841 8.94287 44.9465C8.87717 44.902 8.81492 44.8543 8.74922 44.8098C8.7008 44.7756 8.64892 44.738 8.60051 44.7004C8.53826 44.6527 8.47256 44.6048 8.41031 44.5604C8.36189 44.5228 8.31348 44.4886 8.26506 44.451C8.20281 44.4032 8.14056 44.3554 8.07831 44.3041C8.02989 44.2665 7.98148 44.2288 7.93652 44.1912C7.87427 44.1401 7.81549 44.0922 7.75323 44.0409C7.70481 44.0033 7.65986 43.9623 7.61144 43.9248C7.54919 43.8735 7.49041 43.8222 7.43161 43.7675C7.38665 43.7265 7.3417 43.689 7.29674 43.648C7.23795 43.5933 7.17916 43.542 7.12037 43.4873C7.07541 43.4464 7.03392 43.4054 6.98896 43.3678C6.93016 43.3131 6.87138 43.2584 6.81604 43.2038C6.77454 43.1627 6.72959 43.1217 6.68809 43.0807C6.62929 43.026 6.57397 42.968 6.51863 42.9099C6.47713 42.8688 6.43564 42.8244 6.39414 42.7834C6.3388 42.7254 6.28348 42.6672 6.22814 42.6091C6.18664 42.5647 6.14514 42.5236 6.1071 42.4793C6.05177 42.4212 5.99989 42.3631 5.94456 42.3015C5.90306 42.2571 5.86502 42.2128 5.82697 42.1683C5.77511 42.1068 5.71977 42.0487 5.66789 41.9872C5.62986 41.9428 5.59182 41.8983 5.55377 41.8505C5.50191 41.7889 5.45003 41.7275 5.39815 41.666C5.36011 41.6215 5.32206 41.5737 5.28749 41.5293C5.23561 41.4678 5.18719 41.4028 5.13533 41.3413C5.10074 41.2936 5.0627 41.2491 5.02811 41.2012C4.9797 41.1363 4.93129 41.0713 4.88287 41.0065C4.84829 40.9586 4.81371 40.9108 4.77912 40.8629C4.7307 40.7981 4.68575 40.7331 4.63733 40.6647C4.60275 40.6169 4.56816 40.5691 4.53705 40.5212C4.49209 40.4563 4.44367 40.3879 4.39872 40.3196C4.36413 40.2718 4.33301 40.2205 4.30188 40.1726C4.25692 40.1043 4.21197 40.036 4.17047 39.971C4.13934 39.9198 4.10822 39.8719 4.0771 39.8207C4.05289 39.7797 4.02868 39.7421 4.00447 39.7011L18.1419 31.6365L9.98036 45.6061C9.92848 45.5753 9.87662 45.5445 9.82474 45.5103C9.75211 45.4762 9.69678 45.442 9.64491 45.4112ZM3.4304 38.7271C3.39236 38.6555 3.35431 38.5837 3.31973 38.5153C3.29207 38.4606 3.2644 38.4094 3.24019 38.3547C3.20561 38.2829 3.16757 38.2111 3.13299 38.136C3.10532 38.0813 3.08111 38.0266 3.0569 37.9719C3.02232 37.9003 2.98773 37.825 2.95662 37.7532C2.93241 37.6987 2.9082 37.6405 2.88399 37.5858C2.85286 37.514 2.82175 37.4389 2.79062 37.3671C2.76641 37.309 2.7422 37.2543 2.72145 37.1963C2.69032 37.1211 2.66267 37.0493 2.63154 36.9742C2.60733 36.9161 2.58658 36.858 2.56583 36.7998C2.53816 36.7247 2.51049 36.6495 2.48284 36.5777C2.46208 36.5196 2.44133 36.4616 2.42058 36.4001C2.39291 36.3249 2.3687 36.2498 2.34105 36.1745C2.3203 36.1164 2.303 36.0549 2.28225 35.9969C2.25804 35.9217 2.23383 35.8464 2.20962 35.7713C2.19234 35.7098 2.17159 35.6483 2.1543 35.5867C2.13355 35.5116 2.10934 35.4364 2.08859 35.3612C2.07129 35.2998 2.054 35.2382 2.03672 35.1733C2.01597 35.0981 1.99522 35.023 1.97793 34.9477C1.96063 34.8828 1.9468 34.8214 1.92951 34.7564C1.91222 34.6812 1.89147 34.606 1.87418 34.5309C1.86034 34.4659 1.84651 34.401 1.83268 34.3361C1.81539 34.2609 1.80155 34.1857 1.78426 34.1106C1.77043 34.0456 1.7566 33.9773 1.74622 33.9089C1.73239 33.8338 1.71855 33.7586 1.70472 33.6833C1.69435 33.6151 1.68051 33.5467 1.67014 33.4783C1.65631 33.4031 1.64593 33.328 1.63556 33.2528C1.62518 33.1844 1.61481 33.1128 1.60443 33.0444C1.59406 32.9692 1.58368 32.8941 1.57331 32.8223C1.56293 32.7505 1.55602 32.6787 1.5491 32.6104C1.54218 32.5352 1.53181 32.4634 1.52489 32.3883C1.51797 32.3165 1.51106 32.2413 1.50414 32.1696C1.49723 32.0978 1.49031 32.0226 1.48685 31.9509C1.47993 31.8757 1.47648 31.8005 1.47302 31.7253C1.46956 31.6536 1.46264 31.5818 1.45918 31.5066C1.45573 31.4315 1.45227 31.3528 1.44881 31.2776C1.44535 31.206 1.44189 31.1342 1.44189 31.0624C1.44189 31.0453 1.44189 31.0316 1.44189 31.0145H17.7684L3.63097 39.0792C3.59294 39.0142 3.55836 38.9493 3.52377 38.881C3.48919 38.8331 3.45807 38.7784 3.4304 38.7271ZM7.93306 23.8862V30.3037H1.43843V23.8862H4.32609H7.93306ZM11.5435 23.8862H15.1505V30.3037H8.65584V23.8862H11.5435ZM29.5714 23.8862V30.3037H23.0871V23.8862H26.6941H29.5714ZM22.3644 23.8862V30.3037H15.8698V23.8862H22.3644ZM15.8906 23.1755C16.0703 21.5728 17.4502 20.3221 19.1171 20.3221C20.784 20.3221 22.1638 21.5728 22.3437 23.1755H15.8906ZM23.0871 23.1755H23.07C22.8867 21.1799 21.1852 19.6113 19.1171 19.6113C17.0491 19.6113 15.3476 21.1799 15.1643 23.1755H15.147H12.2697C12.4599 19.6045 15.4583 16.758 19.1171 16.758C22.776 16.758 25.7743 19.6045 25.9644 23.1755H23.0871ZM29.5714 23.1755H26.6838C26.4936 19.2116 23.1736 16.0438 19.1171 16.0438C15.0605 16.0438 11.7372 19.2116 11.5504 23.1755H8.66276C8.85296 17.6396 13.4697 13.1938 19.1205 13.1938C24.7679 13.1938 29.3847 17.6396 29.5714 23.1755ZM36.7889 0.714196V18.4529C34.5583 10.8906 27.4826 5.34793 19.1205 5.34793C10.7343 5.34793 3.64135 10.9214 1.43152 18.5145V0.71078H36.7889V0.714196ZM36.7889 30.3037H30.3011V23.8862H33.9081H36.7854V30.3037H36.7889Z" fill="black"/>
<path d="M53.9444 20.3657C52.2846 20.3657 50.9911 20.0403 50.059 19.3849C49.1271 18.7295 48.6635 17.9137 48.6635 16.9373C48.6635 15.7778 49.2663 15.1957 50.4763 15.1957C50.4949 16.8228 50.8009 18.0465 51.3944 18.8761C51.9879 19.7057 52.9012 20.1182 54.1253 20.1182C55.1963 20.1182 56.068 19.8111 56.7311 19.197C57.394 18.5828 57.7232 17.6662 57.7232 16.4378C57.7232 15.6908 57.5842 15.0857 57.3059 14.6228C57.0277 14.1598 56.5827 13.7382 55.9707 13.367C55.3587 12.9957 54.5565 12.5832 53.569 12.134C53.0496 11.8865 52.5165 11.6161 51.974 11.3274C51.4269 11.0386 50.9262 10.6903 50.4671 10.2824C50.0035 9.87443 49.6372 9.38401 49.3589 8.80193C49.0808 8.21984 48.9417 7.51859 48.9417 6.689C48.9417 5.19941 49.4238 4.06274 50.3882 3.28356C51.3527 2.5044 52.6416 2.11481 54.2504 2.11481C55.2242 2.11481 56.0773 2.24773 56.8145 2.51357C57.5517 2.7794 58.1266 3.12773 58.5393 3.55857C58.9519 3.9894 59.156 4.46149 59.156 4.97483C59.156 5.45608 58.9704 5.83191 58.6042 6.10692C58.2333 6.38191 57.7557 6.51941 57.1716 6.51941C57.1716 5.14441 56.9443 4.10857 56.4946 3.41191C56.0401 2.71524 55.2891 2.36689 54.2319 2.36689C53.2583 2.36689 52.4839 2.65565 51.9044 3.23774C51.3248 3.81982 51.0374 4.67233 51.0374 5.79983C51.0374 6.61108 51.1904 7.2665 51.4918 7.76608C51.7931 8.26568 52.2475 8.69192 52.8503 9.04484C53.453 9.40234 54.2273 9.79651 55.1639 10.2273C56.0031 10.6078 56.7774 11.0065 57.4914 11.419C58.2054 11.8315 58.7804 12.3586 59.2162 12.9957C59.652 13.6328 59.87 14.4577 59.87 15.4707C59.87 16.9786 59.3552 18.1749 58.3214 19.0502C57.2782 19.9303 55.8222 20.3657 53.9444 20.3657Z" fill="black"/>
<path d="M66.5464 20.3658C65.2529 20.3658 64.2421 20.0404 63.505 19.3849C62.7678 18.7295 62.3969 17.8311 62.3969 16.6853C62.3969 15.4111 62.8697 14.4578 63.8202 13.8253C64.7661 13.1974 66.2034 12.8491 68.1322 12.7802L70.2186 12.707V10.8461C70.2186 9.9157 70.1676 9.15486 70.0656 8.55903C69.9636 7.9632 69.7457 7.51861 69.4118 7.22986C69.078 6.94111 68.5634 6.79443 67.8771 6.79443C66.9035 6.79443 66.2822 7.09236 66.004 7.68819C65.7258 8.28403 65.5867 9.22362 65.5867 10.4978C64.882 10.4978 64.3488 10.3832 63.9918 10.1495C63.6301 9.9157 63.4492 9.53528 63.4492 9.00362C63.4492 8.40779 63.6533 7.93111 64.0659 7.57361C64.4786 7.21611 65.021 6.95485 65.7026 6.78985C66.3796 6.62485 67.1399 6.54236 67.9792 6.54236C69.5231 6.54236 70.6729 6.86777 71.438 7.51402C72.203 8.16028 72.5832 9.26945 72.5832 10.8461V18.2804C72.5832 18.8761 72.6992 19.2932 72.9356 19.5224C73.1721 19.7561 73.5708 19.8708 74.1411 19.8708H74.2153V20.1183H70.418V17.5057H70.3716C70.1027 18.5004 69.6297 19.2245 68.9481 19.6829C68.2712 20.1411 67.4691 20.3658 66.5464 20.3658ZM67.0518 20.0174C67.6732 20.0174 68.2203 19.8616 68.6978 19.5454C69.1754 19.2291 69.551 18.8074 69.8153 18.2757C70.0841 17.7441 70.2186 17.1758 70.2186 16.5616V12.982L68.6097 13.0553C67.1863 13.1194 66.1987 13.4449 65.6562 14.0269C65.1091 14.609 64.8403 15.5854 64.8403 16.9603C64.8356 18.9999 65.5728 20.0174 67.0518 20.0174Z" fill="black"/>
<path d="M75.6284 20.1182V19.8707H75.9576C76.6948 19.8707 77.2234 19.7195 77.5434 19.4216C77.8633 19.1237 78.0209 18.6333 78.0209 17.9549V3.40733C78.0209 2.71066 77.8633 2.21565 77.5434 1.91316C77.2234 1.61524 76.6948 1.46399 75.9576 1.46399H75.6284V1.22107H80.3809V17.8312C80.3809 18.5599 80.5385 19.0824 80.8585 19.3986C81.1784 19.7149 81.7069 19.8707 82.4441 19.8707H82.7733V20.1182H75.6284Z" fill="black"/>
<path d="M83.6783 20.1182V19.8707H84.0075C84.7448 19.8707 85.2733 19.7194 85.5933 19.4216C85.9132 19.1236 86.0709 18.6331 86.0709 17.9548V8.98062C86.0709 8.28396 85.9132 7.78895 85.5933 7.48646C85.2733 7.18853 84.7448 7.03728 84.0075 7.03728H83.9334V6.78979H88.4355V17.8311C88.4355 18.5599 88.5931 19.0824 88.9131 19.3986C89.2329 19.7149 89.7615 19.8707 90.4987 19.8707H90.8279V20.1182H83.6783ZM87.1234 4.40186C86.8034 4.40186 86.5391 4.29645 86.3305 4.09019C86.1218 3.88394 86.0151 3.52186 86.0151 3.00852C86.0151 2.47685 86.1218 2.11477 86.3305 1.9131C86.5391 1.71601 86.8034 1.61517 87.1234 1.61517C87.4247 1.61517 87.6844 1.71601 87.9023 1.9131C88.1202 2.11018 88.2315 2.47685 88.2315 3.00852C88.2315 3.52186 88.1202 3.88394 87.9023 4.09019C87.6844 4.30103 87.4247 4.40186 87.1234 4.40186Z" fill="black"/>
<path d="M91.8525 20.1181V19.8706H92.0519C92.8216 19.8706 93.3594 19.7056 93.6608 19.3709C93.9622 19.041 94.1152 18.4451 94.1152 17.5789V9.27843C94.1152 8.43509 93.9714 7.84842 93.6886 7.52759C93.4011 7.20217 92.8772 7.04176 92.103 7.04176H91.9778V6.79425H96.4566V9.13176H96.5076C96.7255 8.37092 97.0501 7.80258 97.4767 7.42675C97.9032 7.0555 98.3669 6.81259 98.8583 6.70716C99.3545 6.60175 99.8088 6.54675 100.231 6.54675C101.724 6.54675 102.836 6.93175 103.564 7.70175C104.292 8.47175 104.659 9.71385 104.659 11.4189V17.5834C104.659 18.4451 104.793 19.041 105.062 19.3755C105.331 19.7056 105.827 19.8751 106.546 19.8751H106.671V20.1226H102.294V10.5709C102.294 9.49385 102.09 8.61384 101.677 7.93551C101.265 7.25717 100.574 6.918 99.6001 6.918C98.8119 6.918 98.1907 7.12425 97.7409 7.54134C97.2865 7.95383 96.9666 8.4901 96.7719 9.14551C96.5772 9.80093 96.4844 10.4839 96.4844 11.1989V17.5834C96.4844 18.4451 96.6281 19.041 96.9111 19.3755C97.1939 19.7056 97.7223 19.8751 98.4967 19.8751H98.6219V20.1226H91.8525V20.1181Z" fill="black"/>
<path d="M114.715 20.3657C112.837 20.3657 111.372 19.7698 110.324 18.5736C109.277 17.3819 108.753 15.7044 108.753 13.5503C108.753 11.2311 109.235 9.48024 110.199 8.30231C111.164 7.12439 112.541 6.53772 114.335 6.53772C115.963 6.53772 117.242 7.0373 118.169 8.0319C119.101 9.02648 119.565 10.5115 119.565 12.4823V13.0782H111.187C111.205 15.6127 111.484 17.4232 112.031 18.5003C112.573 19.5774 113.496 20.1182 114.785 20.1182C115.726 20.1182 116.514 19.8615 117.163 19.3482C117.808 18.8349 118.225 18.074 118.41 17.0612C118.61 17.0931 118.763 17.194 118.865 17.359C118.967 17.5241 119.018 17.6982 119.018 17.8815C119.018 18.2115 118.86 18.5736 118.54 18.9632C118.22 19.3528 117.748 19.6828 117.117 19.9577C116.486 20.2282 115.689 20.3657 114.715 20.3657ZM111.196 12.8352H117.034C117.034 10.6627 116.825 9.11357 116.403 8.18773C115.986 7.26189 115.281 6.79439 114.289 6.79439C113.264 6.79439 112.517 7.25731 112.035 8.18773C111.558 9.11357 111.28 10.6627 111.196 12.8352Z" fill="black"/>
<path d="M127.067 20.1182V19.8707H127.396C128.133 19.8707 128.662 19.7194 128.982 19.4216C129.301 19.1236 129.46 18.6331 129.46 17.9548V8.98064C129.46 8.28398 129.301 7.78897 128.982 7.48648C128.662 7.18855 128.133 7.0373 127.396 7.0373H127.322V6.78981H131.801V9.27398H131.852C131.968 8.84315 132.144 8.42147 132.38 8.0044C132.617 7.59189 132.969 7.24356 133.438 6.95939C133.906 6.6798 134.55 6.53772 135.375 6.53772C136.196 6.53772 136.836 6.69814 137.285 7.02355C137.741 7.34898 137.963 7.79814 137.963 8.38023C137.963 8.87982 137.782 9.29232 137.42 9.62232C137.058 9.95232 136.461 10.1219 135.622 10.1219C135.622 9.09523 135.445 8.38481 135.093 7.99523C134.741 7.60564 134.347 7.41314 133.91 7.41314C133.424 7.41314 133.039 7.58272 132.752 7.92189C132.463 8.26106 132.255 8.70106 132.121 9.2419C131.986 9.78273 131.903 10.3373 131.871 10.9057C131.838 11.4786 131.819 12.0057 131.819 12.4823V17.8265C131.819 18.5552 131.977 19.0777 132.296 19.394C132.617 19.7102 133.146 19.8662 133.883 19.8662H134.212V20.1137H127.067V20.1182Z" fill="black"/>
<path d="M145.553 20.3658C143.739 20.3658 142.316 19.7929 141.278 18.6516C140.239 17.5057 139.72 15.7686 139.72 13.4312C139.72 11.112 140.22 9.38403 141.218 8.24736C142.214 7.11069 143.684 6.54236 145.631 6.54236C147.445 6.54236 148.868 7.11069 149.906 8.24736C150.944 9.38403 151.465 11.112 151.465 13.4312C151.465 15.7686 150.959 17.5104 149.958 18.6516C148.947 19.7974 147.482 20.3658 145.553 20.3658ZM145.603 20.1183C146.828 20.1183 147.704 19.6049 148.233 18.5783C148.761 17.5516 149.025 15.8329 149.025 13.4312C149.025 11.0432 148.761 9.34278 148.233 8.3207C147.704 7.30318 146.818 6.78985 145.58 6.78985C144.338 6.78985 143.457 7.29861 142.938 8.3207C142.418 9.3382 142.159 11.0432 142.159 13.4312C142.159 15.8329 142.423 17.5516 142.952 18.5783C143.476 19.6049 144.361 20.1183 145.603 20.1183Z" fill="black"/>
<path d="M153.3 26.0857V25.8382C154.473 25.8382 155.424 25.7511 156.157 25.5769C156.884 25.4028 157.463 25.1278 157.89 24.7566C158.317 24.3853 158.679 23.9041 158.971 23.3128C159.263 22.7261 159.569 22.0249 159.889 21.2136L154.381 8.40771C154.163 7.87604 153.949 7.51854 153.741 7.32604C153.532 7.13354 153.268 7.04188 152.948 7.04188H152.443V6.79437H158.479V7.04188H158.406C157.937 7.04188 157.562 7.11063 157.288 7.25271C157.009 7.3948 156.871 7.64687 156.871 8.00897C156.871 8.29313 156.973 8.67355 157.171 9.1548L159.337 14.3524C159.587 14.9664 159.856 15.6449 160.144 16.3919C160.427 17.1391 160.663 17.7944 160.849 18.3582C161.067 17.712 161.276 17.0978 161.479 16.5202C161.678 15.9382 161.85 15.434 161.985 15.0032L163.82 9.31063C163.974 8.86147 164.047 8.49022 164.047 8.19229C164.047 7.43146 163.496 7.04646 162.389 7.04646H161.331V6.79896H166.56V7.04646H166.362C165.741 7.04646 165.29 7.17021 165.017 7.41771C164.738 7.66521 164.465 8.18772 164.201 8.98522L160.528 20.2236C160.144 21.4153 159.764 22.3961 159.397 23.1569C159.027 23.9177 158.6 24.5136 158.114 24.949C157.627 25.3798 157.019 25.6778 156.29 25.8428C155.563 26.0078 154.645 26.0903 153.537 26.0903H153.3V26.0857Z" fill="black"/>
<path d="M171.963 20.3658C170.668 20.3658 169.658 20.0404 168.921 19.3849C168.184 18.7295 167.813 17.8311 167.813 16.6853C167.813 15.4111 168.285 14.4578 169.236 13.8253C170.182 13.1974 171.619 12.8491 173.548 12.7802L175.634 12.707V10.8461C175.634 9.9157 175.584 9.15486 175.482 8.55903C175.38 7.9632 175.162 7.51861 174.828 7.22986C174.494 6.94111 173.979 6.79443 173.293 6.79443C172.32 6.79443 171.698 7.09236 171.419 7.68819C171.142 8.28403 171.002 9.22362 171.002 10.4978C170.298 10.4978 169.764 10.3832 169.407 10.1495C169.046 9.9157 168.865 9.53528 168.865 9.00362C168.865 8.40779 169.069 7.93111 169.482 7.57361C169.894 7.21611 170.436 6.95485 171.119 6.78985C171.796 6.62485 172.555 6.54236 173.395 6.54236C174.939 6.54236 176.089 6.86777 176.854 7.51402C177.619 8.16028 178 9.26945 178 10.8461V18.2804C178 18.8761 178.115 19.2932 178.352 19.5224C178.587 19.7561 178.986 19.8708 179.557 19.8708H179.631V20.1183H175.834V17.5057H175.782C175.514 18.5004 175.041 19.2245 174.359 19.6829C173.687 20.1411 172.885 20.3658 171.963 20.3658ZM172.467 20.0174C173.089 20.0174 173.636 19.8616 174.114 19.5454C174.591 19.2291 174.966 18.8074 175.231 18.2757C175.5 17.7441 175.634 17.1758 175.634 16.5616V12.982L174.025 13.0553C172.602 13.1194 171.614 13.4449 171.072 14.0269C170.525 14.609 170.256 15.5854 170.256 16.9603C170.251 18.9999 170.989 20.0174 172.467 20.0174Z" fill="black"/>
<path d="M181.045 20.1182V19.8707H181.374C182.111 19.8707 182.639 19.7195 182.959 19.4216C183.279 19.1237 183.436 18.6333 183.436 17.9549V3.40733C183.436 2.71066 183.279 2.21565 182.959 1.91316C182.639 1.61524 182.111 1.46399 181.374 1.46399H181.045V1.22107H185.797V17.8312C185.797 18.5599 185.954 19.0824 186.274 19.3986C186.595 19.7149 187.123 19.8707 187.86 19.8707H188.19V20.1182H181.045Z" fill="black"/>
<path d="M195.858 20.3657C193.981 20.3657 192.516 19.7698 191.468 18.5736C190.42 17.3819 189.896 15.7044 189.896 13.5503C189.896 11.2311 190.379 9.48024 191.343 8.30231C192.308 7.12439 193.684 6.53772 195.478 6.53772C197.106 6.53772 198.386 7.0373 199.312 8.0319C200.245 9.02648 200.709 10.5115 200.709 12.4823V13.0782H192.331C192.349 15.6127 192.627 17.4232 193.174 18.5003C193.716 19.5774 194.639 20.1182 195.928 20.1182C196.869 20.1182 197.657 19.8615 198.306 19.3482C198.952 18.8349 199.369 18.074 199.554 17.0612C199.753 17.0931 199.906 17.194 200.008 17.359C200.11 17.5241 200.162 17.6982 200.162 17.8815C200.162 18.2115 200.003 18.5736 199.684 18.9632C199.364 19.3528 198.892 19.6828 198.261 19.9577C197.63 20.2282 196.833 20.3657 195.858 20.3657ZM192.335 12.8352H198.173C198.173 10.6627 197.964 9.11357 197.542 8.18773C197.125 7.26189 196.419 6.79439 195.428 6.79439C194.403 6.79439 193.656 7.25731 193.174 8.18773C192.701 9.11357 192.423 10.6627 192.335 12.8352Z" fill="black"/>
<path d="M53.9955 29.3629C55.4375 29.3629 56.5132 29.7296 57.2133 30.4583C57.918 31.1872 58.2704 32.3422 58.2704 33.9143V42.8151H57.1901L56.9118 40.5784H56.8609C56.4066 41.3254 55.8548 41.926 55.201 42.3797C54.5473 42.8334 53.6339 43.0626 52.4608 43.0626C51.2693 43.0626 50.3234 42.7464 49.6187 42.1184C48.9139 41.4905 48.5615 40.5692 48.5615 39.3592C48.5615 38.0484 49.0669 37.0447 50.0823 36.3526C51.0977 35.6559 52.5861 35.2663 54.5473 35.1838L56.8377 35.0601V34.1388C56.8377 32.828 56.5966 31.9067 56.1097 31.3659C55.623 30.8296 54.9042 30.5592 53.9445 30.5592C53.3094 30.5592 52.688 30.6462 52.0853 30.8205C51.4825 30.9946 50.8845 31.2468 50.3002 31.5813L49.8226 30.4355C50.4255 30.1192 51.0792 29.8626 51.7839 29.6655C52.4886 29.4684 53.2258 29.3629 53.9955 29.3629ZM56.8377 36.1509L54.7512 36.2517C53.1749 36.3158 51.9972 36.6046 51.2182 37.1088C50.4393 37.613 50.0499 38.3738 50.0499 39.3821C50.0499 40.1934 50.291 40.8121 50.7685 41.2339C51.2461 41.6555 51.9045 41.8664 52.7436 41.8664C54.0326 41.8664 55.0387 41.4767 55.762 40.6976C56.4807 39.9184 56.8424 38.823 56.8424 37.4159V36.1509H56.8377Z" fill="black"/>
<path d="M67.3256 43.0623C65.4802 43.0623 64.0569 42.471 63.0507 41.2839C62.0446 40.0968 61.5392 38.4285 61.5392 36.2743C61.5392 34.7984 61.7942 33.5426 62.3042 32.5068C62.8142 31.4709 63.5236 30.6826 64.4276 30.1463C65.3318 29.6055 66.389 29.3397 67.5991 29.3397C68.2019 29.3397 68.7722 29.3993 69.31 29.5138C69.8478 29.6285 70.3253 29.7888 70.7426 29.9859L70.3393 31.2281C69.449 30.8155 68.5218 30.6047 67.5481 30.6047C66.0875 30.6047 64.9702 31.1089 64.1912 32.1218C63.4123 33.1348 63.0229 34.5098 63.0229 36.2514C63.0229 37.9105 63.3706 39.2534 64.0661 40.2801C64.7615 41.3069 65.8372 41.8202 67.2977 41.8202C67.9329 41.8202 68.5264 41.756 69.0689 41.6231C69.6113 41.4902 70.1121 41.316 70.5664 41.1005V42.3702C70.1631 42.5856 69.6948 42.7552 69.157 42.8789C68.6284 43.0027 68.0164 43.0623 67.3256 43.0623Z" fill="black"/>
<path d="M78.0174 29.3629C79.4593 29.3629 80.5302 29.7296 81.235 30.4583C81.9398 31.1872 82.2922 32.3422 82.2922 33.9143V42.8151H81.2118L80.9337 40.5784H80.8826C80.4283 41.3254 79.8765 41.926 79.2228 42.3797C78.569 42.8334 77.6556 43.0626 76.4826 43.0626C75.291 43.0626 74.3452 42.7464 73.6404 42.1184C72.9356 41.4905 72.5834 40.5692 72.5834 39.3592C72.5834 38.0484 73.0886 37.0447 74.1041 36.3526C75.1194 35.6559 76.6078 35.2663 78.569 35.1838L80.8594 35.0601V34.1388C80.8594 32.828 80.6183 31.9067 80.1316 31.3659C79.6447 30.8296 78.9261 30.5592 77.9663 30.5592C77.3311 30.5592 76.7099 30.6462 76.1071 30.8205C75.5044 30.9946 74.9062 31.2468 74.322 31.5813L73.8445 30.4355C74.4472 30.1192 75.1009 29.8626 75.8057 29.6655C76.5105 29.4638 77.2477 29.3629 78.0174 29.3629ZM80.8594 36.1509L78.7731 36.2517C77.1966 36.3158 76.019 36.6046 75.2401 37.1088C74.4612 37.613 74.0716 38.3738 74.0716 39.3821C74.0716 40.1934 74.3127 40.8121 74.7902 41.2339C75.2679 41.6555 75.9262 41.8664 76.7655 41.8664C78.0544 41.8664 79.0605 41.4767 79.7839 40.6976C80.5025 39.9184 80.8641 38.823 80.8641 37.4159V36.1509H80.8594Z" fill="black"/>
<path d="M90.7956 43.0626C89.1172 43.0626 87.8283 42.4942 86.9241 41.3575C86.0199 40.221 85.5656 38.5525 85.5656 36.348C85.5656 34.0609 86.0386 32.3192 86.989 31.1276C87.9349 29.9359 89.247 29.3354 90.9254 29.3354C91.964 29.3354 92.8124 29.5738 93.4662 30.0551C94.1199 30.5363 94.6161 31.1414 94.9498 31.8701H95.0519C95.0194 31.4713 94.9916 31.0313 94.9777 30.55C94.9592 30.0688 94.9545 29.6472 94.9545 29.2805V23.9088H96.3873V42.8059H95.2281L95.0009 40.5188H94.9453C94.6114 41.2155 94.1107 41.8114 93.4476 42.3109C92.7847 42.8151 91.9037 43.0626 90.7956 43.0626ZM91.0227 41.848C92.4647 41.848 93.4802 41.3851 94.0643 40.4547C94.6532 39.5242 94.9453 38.1905 94.9453 36.4534V36.2059C94.9453 34.3818 94.6485 32.9838 94.0505 32.0167C93.457 31.045 92.46 30.5638 91.0691 30.5638C89.7616 30.5638 88.7648 31.0633 88.0739 32.0672C87.3878 33.0709 87.0447 34.501 87.0447 36.3572C87.0447 38.163 87.3738 39.5334 88.0275 40.4592C88.6814 41.3805 89.6782 41.848 91.0227 41.848Z" fill="black"/>
<path d="M105.257 29.3397C106.328 29.3397 107.237 29.6009 107.974 30.1235C108.711 30.646 109.263 31.3609 109.634 32.2731C110.004 33.1852 110.185 34.2302 110.185 35.4081V36.4027H101.232C101.251 38.1444 101.64 39.4826 102.401 40.4177C103.166 41.3527 104.26 41.8247 105.683 41.8247C106.471 41.8247 107.158 41.7606 107.747 41.6277C108.335 41.4948 108.971 41.261 109.657 40.9311V42.2235C109.036 42.5215 108.414 42.7369 107.797 42.8697C107.176 43.0027 106.458 43.0668 105.632 43.0668C103.736 43.0668 102.285 42.4619 101.269 41.2518C100.254 40.0419 99.7485 38.3919 99.7485 36.3018C99.7485 34.9589 99.9664 33.7626 100.402 32.7085C100.838 31.6543 101.464 30.8293 102.275 30.2334C103.091 29.6377 104.084 29.3397 105.257 29.3397ZM105.257 30.5313C104.116 30.5313 103.193 30.9393 102.489 31.7506C101.784 32.5618 101.371 33.7168 101.255 35.2064H108.702C108.683 33.813 108.4 32.6855 107.849 31.8238C107.297 30.9623 106.43 30.5313 105.257 30.5313Z" fill="black"/>
<path d="M126.789 29.34C128.045 29.34 129.024 29.7112 129.719 30.4582C130.414 31.2054 130.763 32.3833 130.763 33.9874V42.815H129.353V34.0608C129.353 32.8691 129.108 31.9892 128.611 31.4254C128.115 30.8616 127.434 30.582 126.562 30.582C125.37 30.582 124.457 30.9532 123.822 31.6866C123.186 32.4245 122.866 33.5658 122.866 35.1058V42.815H121.457V34.0608C121.457 32.8691 121.206 31.9892 120.701 31.4254C120.196 30.8616 119.51 30.582 118.638 30.582C117.465 30.582 116.561 30.967 115.921 31.737C115.286 32.507 114.966 33.6986 114.966 35.3029V42.8104H113.556V29.5828H114.688L114.915 31.6729H115.017C115.337 31.0266 115.814 30.4766 116.449 30.0183C117.085 29.5645 117.891 29.3353 118.865 29.3353C119.788 29.3353 120.562 29.5416 121.193 29.9587C121.823 30.3711 122.268 30.9945 122.537 31.8241H122.639C123.005 31.0266 123.548 30.4171 124.262 29.9861C124.976 29.5554 125.816 29.34 126.789 29.34Z" fill="black"/>
<path d="M132.7 29.5873H134.258L137.202 37.8191C137.471 38.5478 137.699 39.1986 137.879 39.7715C138.065 40.3444 138.208 40.8533 138.306 41.3024H138.38C138.482 40.922 138.622 40.4315 138.807 39.8358C138.992 39.2399 139.209 38.5753 139.461 37.8465L142.353 29.5919H143.911L138.25 45.1845C137.833 46.3441 137.319 47.2424 136.716 47.8841C136.112 48.5211 135.306 48.842 134.3 48.842C133.98 48.842 133.701 48.819 133.456 48.7686C133.216 48.7182 132.984 48.6586 132.765 48.5945V47.4029C133.169 47.5495 133.618 47.6274 134.124 47.6274C134.796 47.6274 135.333 47.412 135.747 46.9811C136.159 46.5503 136.53 45.8949 136.863 45.0149L137.643 42.7782L132.7 29.5873Z" fill="black"/>
</g>
<defs>
<clipPath id="clip0_69_590">
<rect width="200" height="48.8421" fill="white" transform="translate(0.70874)"/>
</clipPath>
</defs>
</svg>
